<ttFont>
    <TTGlyph name=".notdef" xMin="193" yMin="0" xMax="1034" yMax="1462">
      <contour>
        <pt x="193" y="1462" on="1"/>
        <pt x="1034" y="1462" on="1"/>
        <pt x="1034" y="0" on="1"/>
        <pt x="193" y="0" on="1"/>
      </contour>
      <contour>
        <pt x="297" y="104" on="1"/>
        <pt x="930" y="104" on="1"/>
        <pt x="930" y="1358" on="1"/>
        <pt x="297" y="1358" on="1"/>
      </contour>
    </TTGlyph>
    <TTGlyph name="A" xMin="-111" yMin="0" xMax="979" yMax="1468">
      <contour>
        <pt x="805" y="520" on="1"/>
        <pt x="293" y="520" on="1"/>
        <pt x="6" y="0" on="1"/>
        <pt x="-111" y="0" on="1"/>
        <pt x="711" y="1468" on="1"/>
        <pt x="778" y="1468" on="1"/>
        <pt x="979" y="0" on="1"/>
        <pt x="874" y="0" on="1"/>
      </contour>
      <contour>
        <pt x="793" y="612" on="1"/>
        <pt x="754" y="903" on="1"/>
        <pt x="723" y="1145" on="0"/>
        <pt x="715" y="1305" on="1"/>
        <pt x="685" y="1242" on="0"/>
        <pt x="616" y="1108" on="0"/>
        <pt x="344" y="612" on="1"/>
      </contour>
    </TTGlyph>
    <TTGlyph name="AE" xMin="-117" yMin="0" xMax="1712" yMax="1462">
      <contour>
        <pt x="1403" y="0" on="1"/>
        <pt x="676" y="0" on="1"/>
        <pt x="786" y="522" on="1"/>
        <pt x="342" y="522" on="1"/>
        <pt x="14" y="0" on="1"/>
        <pt x="-117" y="0" on="1"/>
        <pt x="829" y="1462" on="1"/>
        <pt x="1712" y="1462" on="1"/>
        <pt x="1692" y="1368" on="1"/>
        <pt x="1067" y="1368" on="1"/>
        <pt x="950" y="815" on="1"/>
        <pt x="1540" y="815" on="1"/>
        <pt x="1520" y="721" on="1"/>
        <pt x="932" y="721" on="1"/>
        <pt x="797" y="94" on="1"/>
        <pt x="1423" y="94" on="1"/>
      </contour>
      <contour>
        <pt x="408" y="627" on="1"/>
        <pt x="809" y="627" on="1"/>
        <pt x="965" y="1368" on="1"/>
        <pt x="877" y="1368" on="1"/>
      </contour>
    </TTGlyph>
    <TTGlyph name="AEacute" xMin="-117" yMin="0" xMax="1712" yMax="1907">
      <component glyphName="AE" x="0" y="0" flags="0x204"/>
      <component glyphName="acute" x="520" y="338" flags="0x4"/>
    </TTGlyph>
    <TTGlyph name="Aacute" xMin="-111" yMin="0" xMax="1085" yMax="1907">
      <component glyphName="A" x="0" y="0" flags="0x204"/>
      <component glyphName="acute" x="88" y="338" flags="0x4"/>
    </TTGlyph>
    <TTGlyph name="Abreve" xMin="-111" yMin="0" xMax="1043" yMax="1819">
      <component glyphName="A" x="0" y="0" flags="0x204"/>
      <component glyphName="breve" x="35" y="338" flags="0x4"/>
    </TTGlyph>
    <TTGlyph name="Acircumflex" xMin="-111" yMin="0" xMax="1007" yMax="1907">
      <component glyphName="A" x="0" y="0" flags="0x204"/>
      <component glyphName="circumflex" x="49" y="338" flags="0x4"/>
    </TTGlyph>
    <TTGlyph name="Adieresis" xMin="-111" yMin="0" xMax="1010" yMax="1811">
      <component glyphName="A" x="0" y="0" flags="0x204"/>
      <component glyphName="dieresis" x="43" y="338" flags="0x4"/>
    </TTGlyph>
    <TTGlyph name="Agrave" xMin="-111" yMin="0" xMax="979" yMax="1907">
      <component glyphName="A" x="0" y="0" flags="0x204"/>
      <component glyphName="grave" x="49" y="338" flags="0x4"/>
    </TTGlyph>
    <TTGlyph name="Alpha" xMin="-111" yMin="0" xMax="979" yMax="1468">
      <component glyphName="A" x="0" y="0" flags="0x204"/>
    </TTGlyph>
    <TTGlyph name="Alphatonos" xMin="-111" yMin="0" xMax="979" yMax="1558">
      <component glyphName="A" x="0" y="0" flags="0x204"/>
      <component glyphName="tonos" x="-482" y="-105" flags="0x4"/>
    </TTGlyph>
    <TTGlyph name="Amacron" xMin="-111" yMin="0" xMax="1020" yMax="1671">
      <component glyphName="A" x="0" y="0" flags="0x204"/>
      <component glyphName="macron" x="78" y="338" flags="0x4"/>
    </TTGlyph>
    <TTGlyph name="Aogonek" xMin="-111" yMin="-414" xMax="979" yMax="1468">
      <component glyphName="A" x="0" y="0" flags="0x204"/>
      <component glyphName="ogonek" x="793" y="0" flags="0x4"/>
    </TTGlyph>
    <TTGlyph name="Aring" xMin="-111" yMin="0" xMax="979" yMax="1792">
      <component glyphName="A" x="0" y="0" flags="0x204"/>
      <component glyphName="ring" x="-22" y="152" flags="0x4"/>
    </TTGlyph>
    <TTGlyph name="Aringacute" xMin="-111" yMin="0" xMax="1094" yMax="2036">
      <contour>
        <pt x="928" y="1446" on="1"/>
        <pt x="928" y="1383" on="0"/>
        <pt x="866" y="1281" on="0"/>
        <pt x="807" y="1260" on="1"/>
        <pt x="979" y="0" on="1"/>
        <pt x="874" y="0" on="1"/>
        <pt x="805" y="520" on="1"/>
        <pt x="293" y="520" on="1"/>
        <pt x="6" y="0" on="1"/>
        <pt x="-111" y="0" on="1"/>
        <pt x="602" y="1276" on="1"/>
        <pt x="565" y="1302" on="0"/>
        <pt x="522" y="1387" on="0"/>
        <pt x="522" y="1440" on="1"/>
        <pt x="522" y="1530" on="0"/>
        <pt x="640" y="1642" on="0"/>
        <pt x="729" y="1642" on="1"/>
        <pt x="822" y="1642" on="0"/>
        <pt x="928" y="1537" on="0"/>
      </contour>
      <contour>
        <pt x="793" y="612" on="1"/>
        <pt x="754" y="903" on="1"/>
        <pt x="732" y="1058" on="0"/>
        <pt x="719" y="1245" on="1"/>
        <pt x="686" y="1245" on="1"/>
        <pt x="658" y="1190" on="0"/>
        <pt x="598" y="1075" on="0"/>
        <pt x="344" y="612" on="1"/>
      </contour>
      <contour>
        <pt x="852" y="1444" on="1"/>
        <pt x="852" y="1501" on="0"/>
        <pt x="787" y="1569" on="0"/>
        <pt x="727" y="1569" on="1"/>
        <pt x="673" y="1569" on="0"/>
        <pt x="602" y="1501" on="0"/>
        <pt x="602" y="1444" on="1"/>
        <pt x="602" y="1385" on="0"/>
        <pt x="667" y="1319" on="0"/>
        <pt x="727" y="1319" on="1"/>
        <pt x="783" y="1319" on="0"/>
        <pt x="852" y="1385" on="0"/>
      </contour>
      <contour>
        <pt x="676" y="1729" on="1"/>
        <pt x="742" y="1780" on="0"/>
        <pt x="911" y="1962" on="0"/>
        <pt x="956" y="2036" on="1"/>
        <pt x="1094" y="2036" on="1"/>
        <pt x="1094" y="2013" on="1"/>
        <pt x="1036" y="1942" on="0"/>
        <pt x="830" y="1762" on="0"/>
        <pt x="743" y="1708" on="1"/>
        <pt x="676" y="1708" on="1"/>
      </contour>
    </TTGlyph>
    <TTGlyph name="Atilde" xMin="-111" yMin="0" xMax="1110" yMax="1815">
      <component glyphName="A" x="0" y="0" flags="0x204"/>
      <component glyphName="tilde" x="80" y="338" flags="0x4"/>
    </TTGlyph>
    <TTGlyph name="B" xMin="102" yMin="0" xMax="1182" yMax="1462">
      <contour>
        <pt x="412" y="1462" on="1"/>
        <pt x="791" y="1462" on="1"/>
        <pt x="981" y="1462" on="0"/>
        <pt x="1182" y="1294" on="0"/>
        <pt x="1182" y="1137" on="1"/>
        <pt x="1182" y="984" on="0"/>
        <pt x="1002" y="792" on="0"/>
        <pt x="838" y="764" on="1"/>
        <pt x="838" y="760" on="1"/>
        <pt x="963" y="729" on="0"/>
        <pt x="1090" y="564" on="0"/>
        <pt x="1090" y="442" on="1"/>
        <pt x="1090" y="237" on="0"/>
        <pt x="809" y="0" on="0"/>
        <pt x="559" y="0" on="1"/>
        <pt x="102" y="0" on="1"/>
      </contour>
      <contour>
        <pt x="377" y="811" on="1"/>
        <pt x="655" y="811" on="1"/>
        <pt x="861" y="811" on="0"/>
        <pt x="1075" y="973" on="0"/>
        <pt x="1075" y="1130" on="1"/>
        <pt x="1075" y="1249" on="0"/>
        <pt x="919" y="1372" on="0"/>
        <pt x="768" y="1372" on="1"/>
        <pt x="496" y="1372" on="1"/>
      </contour>
      <contour>
        <pt x="358" y="721" on="1"/>
        <pt x="223" y="90" on="1"/>
        <pt x="565" y="90" on="1"/>
        <pt x="766" y="90" on="0"/>
        <pt x="983" y="265" on="0"/>
        <pt x="983" y="434" on="1"/>
        <pt x="983" y="579" on="0"/>
        <pt x="803" y="721" on="0"/>
        <pt x="618" y="721" on="1"/>
      </contour>
    </TTGlyph>
    <TTGlyph name="Beta" xMin="102" yMin="0" xMax="1182" yMax="1462">
      <component glyphName="B" x="0" y="0" flags="0x204"/>
    </TTGlyph>
    <TTGlyph name="C" xMin="170" yMin="-20" xMax="1268" yMax="1483">
      <contour>
        <pt x="961" y="1389" on="1"/>
        <pt x="764" y="1389" on="0"/>
        <pt x="455" y="1180" on="0"/>
        <pt x="274" y="780" on="0"/>
        <pt x="274" y="539" on="1"/>
        <pt x="274" y="314" on="0"/>
        <pt x="495" y="72" on="0"/>
        <pt x="702" y="72" on="1"/>
        <pt x="842" y="72" on="0"/>
        <pt x="1006" y="123" on="1"/>
        <pt x="1006" y="29" on="1"/>
        <pt x="850" y="-20" on="0"/>
        <pt x="690" y="-20" on="1"/>
        <pt x="438" y="-20" on="0"/>
        <pt x="170" y="270" on="0"/>
        <pt x="170" y="535" on="1"/>
        <pt x="170" y="801" on="0"/>
        <pt x="379" y="1245" on="0"/>
        <pt x="739" y="1483" on="0"/>
        <pt x="961" y="1483" on="1"/>
        <pt x="1138" y="1483" on="0"/>
        <pt x="1268" y="1415" on="1"/>
        <pt x="1223" y="1325" on="1"/>
        <pt x="1168" y="1355" on="0"/>
        <pt x="1029" y="1389" on="0"/>
      </contour>
    </TTGlyph>
    <TTGlyph name="Cacute" xMin="170" yMin="-20" xMax="1273" yMax="1907">
      <component glyphName="C" x="0" y="0" flags="0x204"/>
      <component glyphName="acute" x="276" y="338" flags="0x4"/>
    </TTGlyph>
    <TTGlyph name="Ccaron" xMin="170" yMin="-20" xMax="1268" yMax="1907">
      <component glyphName="C" x="0" y="0" flags="0x204"/>
      <component glyphName="caron" x="166" y="338" flags="0x4"/>
    </TTGlyph>
    <TTGlyph name="Ccedilla" xMin="170" yMin="-492" xMax="1268" yMax="1483">
      <component glyphName="C" x="0" y="0" flags="0x204"/>
      <component glyphName="cedilla" x="555" y="0" flags="0x4"/>
    </TTGlyph>
    <TTGlyph name="Ccircumflex" xMin="170" yMin="-20" xMax="1268" yMax="1907">
      <component glyphName="C" x="0" y="0" flags="0x204"/>
      <component glyphName="circumflex" x="213" y="338" flags="0x4"/>
    </TTGlyph>
    <TTGlyph name="Cdot" xMin="170" yMin="-20" xMax="1268" yMax="1825">
      <component glyphName="C" x="0" y="0" flags="0x204"/>
      <component glyphName="dotaccent" x="522" y="338" flags="0x4"/>
    </TTGlyph>
    <TTGlyph name="Chi" xMin="-135" yMin="0" xMax="1149" yMax="1462">
      <component glyphName="X" x="0" y="0" flags="0x204"/>
    </TTGlyph>
    <TTGlyph name="D" xMin="102" yMin="0" xMax="1288" yMax="1462">
      <contour>
        <pt x="1288" y="879" on="1"/>
        <pt x="1288" y="626" on="0"/>
        <pt x="1069" y="209" on="0"/>
        <pt x="687" y="0" on="0"/>
        <pt x="432" y="0" on="1"/>
        <pt x="102" y="0" on="1"/>
        <pt x="412" y="1462" on="1"/>
        <pt x="717" y="1462" on="1"/>
        <pt x="999" y="1462" on="0"/>
        <pt x="1288" y="1167" on="0"/>
      </contour>
      <contour>
        <pt x="430" y="90" on="1"/>
        <pt x="656" y="90" on="0"/>
        <pt x="993" y="279" on="0"/>
        <pt x="1178" y="641" on="0"/>
        <pt x="1178" y="872" on="1"/>
        <pt x="1178" y="1370" on="0"/>
        <pt x="702" y="1370" on="1"/>
        <pt x="496" y="1370" on="1"/>
        <pt x="221" y="90" on="1"/>
      </contour>
    </TTGlyph>
    <TTGlyph name="Dcaron" xMin="102" yMin="0" xMax="1288" yMax="1907">
      <component glyphName="D" x="0" y="0" flags="0x204"/>
      <component glyphName="caron" x="94" y="338" flags="0x4"/>
    </TTGlyph>
    <TTGlyph name="Dcroat" xMin="90" yMin="0" xMax="1288" yMax="1462">
      <component glyphName="Eth" x="0" y="0" flags="0x204"/>
    </TTGlyph>
    <TTGlyph name="Delta" xMin="-45" yMin="0" xMax="1012" yMax="1468">
      <contour>
        <pt x="752" y="1468" on="1"/>
        <pt x="819" y="1468" on="1"/>
        <pt x="1012" y="66" on="1"/>
        <pt x="1001" y="0" on="1"/>
        <pt x="-45" y="0" on="1"/>
        <pt x="-31" y="70" on="1"/>
      </contour>
      <contour>
        <pt x="754" y="1305" on="1"/>
        <pt x="712" y="1215" on="0"/>
        <pt x="609" y="1019" on="0"/>
        <pt x="100" y="96" on="1"/>
        <pt x="901" y="96" on="1"/>
        <pt x="831" y="627" on="0"/>
        <pt x="757" y="1189" on="0"/>
      </contour>
    </TTGlyph>
    <TTGlyph name="E" xMin="102" yMin="0" xMax="1139" yMax="1462">
      <contour>
        <pt x="829" y="0" on="1"/>
        <pt x="102" y="0" on="1"/>
        <pt x="412" y="1462" on="1"/>
        <pt x="1139" y="1462" on="1"/>
        <pt x="1118" y="1368" on="1"/>
        <pt x="494" y="1368" on="1"/>
        <pt x="377" y="815" on="1"/>
        <pt x="967" y="815" on="1"/>
        <pt x="946" y="721" on="1"/>
        <pt x="358" y="721" on="1"/>
        <pt x="223" y="94" on="1"/>
        <pt x="850" y="94" on="1"/>
      </contour>
    </TTGlyph>
    <TTGlyph name="Eacute" xMin="102" yMin="0" xMax="1139" yMax="1907">
      <component glyphName="E" x="0" y="0" flags="0x204"/>
      <component glyphName="acute" x="74" y="338" flags="0x4"/>
    </TTGlyph>
    <TTGlyph name="Ebreve" xMin="102" yMin="0" xMax="1139" yMax="1819">
      <component glyphName="E" x="0" y="0" flags="0x204"/>
      <component glyphName="breve" x="80" y="338" flags="0x4"/>
    </TTGlyph>
    <TTGlyph name="Ecaron" xMin="102" yMin="0" xMax="1139" yMax="1907">
      <component glyphName="E" x="0" y="0" flags="0x204"/>
      <component glyphName="caron" x="68" y="338" flags="0x4"/>
    </TTGlyph>
    <TTGlyph name="Ecircumflex" xMin="102" yMin="0" xMax="1139" yMax="1907">
      <component glyphName="E" x="0" y="0" flags="0x204"/>
      <component glyphName="circumflex" x="78" y="338" flags="0x4"/>
    </TTGlyph>
    <TTGlyph name="Edieresis" xMin="102" yMin="0" xMax="1139" yMax="1811">
      <component glyphName="E" x="0" y="0" flags="0x204"/>
      <component glyphName="dieresis" x="66" y="338" flags="0x4"/>
    </TTGlyph>
    <TTGlyph name="Edotaccent" xMin="102" yMin="0" xMax="1139" yMax="1796">
      <component glyphName="E" x="0" y="0" flags="0x204"/>
      <component glyphName="dotaccent" x="408" y="309" flags="0x4"/>
    </TTGlyph>
    <TTGlyph name="Egrave" xMin="102" yMin="0" xMax="1139" yMax="1907">
      <component glyphName="E" x="0" y="0" flags="0x204"/>
      <component glyphName="grave" x="125" y="338" flags="0x4"/>
    </TTGlyph>
    <TTGlyph name="Emacron" xMin="102" yMin="0" xMax="1139" yMax="1671">
      <component glyphName="E" x="0" y="0" flags="0x204"/>
      <component glyphName="macron" x="109" y="338" flags="0x4"/>
    </TTGlyph>
    <TTGlyph name="Eng" xMin="102" yMin="-360" xMax="1378" yMax="1462">
      <contour>
        <pt x="696" y="-360" on="1"/>
        <pt x="659" y="-360" on="0"/>
        <pt x="567" y="-343" on="0"/>
        <pt x="553" y="-336" on="1"/>
        <pt x="563" y="-244" on="1"/>
        <pt x="621" y="-264" on="0"/>
        <pt x="700" y="-264" on="1"/>
        <pt x="813" y="-264" on="0"/>
        <pt x="938" y="-134" on="0"/>
        <pt x="973" y="23" on="1"/>
        <pt x="467" y="1284" on="1"/>
        <pt x="459" y="1284" on="1"/>
        <pt x="436" y="1135" on="0"/>
        <pt x="386" y="887" on="0"/>
        <pt x="197" y="0" on="1"/>
        <pt x="102" y="0" on="1"/>
        <pt x="412" y="1462" on="1"/>
        <pt x="492" y="1462" on="1"/>
        <pt x="1014" y="168" on="1"/>
        <pt x="1022" y="168" on="1"/>
        <pt x="1045" y="344" on="0"/>
        <pt x="1096" y="584" on="1"/>
        <pt x="1284" y="1462" on="1"/>
        <pt x="1378" y="1462" on="1"/>
        <pt x="1073" y="18" on="1"/>
        <pt x="1032" y="-178" on="0"/>
        <pt x="853" y="-360" on="0"/>
      </contour>
    </TTGlyph>
    <TTGlyph name="Eogonek" xMin="102" yMin="-414" xMax="1139" yMax="1462">
      <component glyphName="E" x="0" y="0" flags="0x204"/>
      <component glyphName="ogonek" x="588" y="0" flags="0x4"/>
    </TTGlyph>
    <TTGlyph name="Epsilon" xMin="102" yMin="0" xMax="1139" yMax="1462">
      <component glyphName="E" x="0" y="0" flags="0x204"/>
    </TTGlyph>
    <TTGlyph name="Epsilontonos" xMin="89" yMin="0" xMax="1286" yMax="1558">
      <component glyphName="tonos" x="-562" y="-105" flags="0x4"/>
      <component glyphName="E" x="147" y="0" flags="0x4"/>
    </TTGlyph>
    <TTGlyph name="Eta" xMin="102" yMin="0" xMax="1372" yMax="1462">
      <component glyphName="H" x="0" y="0" flags="0x204"/>
    </TTGlyph>
    <TTGlyph name="Etatonos" xMin="89" yMin="0" xMax="1530" yMax="1558">
      <component glyphName="tonos" x="-562" y="-105" flags="0x4"/>
      <component glyphName="H" x="158" y="0" flags="0x4"/>
    </TTGlyph>
    <TTGlyph name="Eth" xMin="90" yMin="0" xMax="1288" yMax="1462">
      <contour>
        <pt x="1288" y="879" on="1"/>
        <pt x="1288" y="626" on="0"/>
        <pt x="1069" y="209" on="0"/>
        <pt x="687" y="0" on="0"/>
        <pt x="432" y="0" on="1"/>
        <pt x="102" y="0" on="1"/>
        <pt x="246" y="676" on="1"/>
        <pt x="90" y="676" on="1"/>
        <pt x="111" y="772" on="1"/>
        <pt x="266" y="772" on="1"/>
        <pt x="412" y="1462" on="1"/>
        <pt x="717" y="1462" on="1"/>
        <pt x="999" y="1462" on="0"/>
        <pt x="1288" y="1167" on="0"/>
      </contour>
      <contour>
        <pt x="430" y="90" on="1"/>
        <pt x="656" y="90" on="0"/>
        <pt x="993" y="279" on="0"/>
        <pt x="1178" y="641" on="0"/>
        <pt x="1178" y="872" on="1"/>
        <pt x="1178" y="1370" on="0"/>
        <pt x="702" y="1370" on="1"/>
        <pt x="496" y="1370" on="1"/>
        <pt x="367" y="772" on="1"/>
        <pt x="745" y="772" on="1"/>
        <pt x="725" y="676" on="1"/>
        <pt x="346" y="676" on="1"/>
        <pt x="221" y="90" on="1"/>
      </contour>
    </TTGlyph>
    <TTGlyph name="Euro" xMin="80" yMin="-20" xMax="1282" yMax="1483">
      <contour>
        <pt x="991" y="1389" on="1"/>
        <pt x="805" y="1389" on="0"/>
        <pt x="516" y="1148" on="0"/>
        <pt x="434" y="922" on="1"/>
        <pt x="891" y="922" on="1"/>
        <pt x="870" y="840" on="1"/>
        <pt x="410" y="840" on="1"/>
        <pt x="380" y="742" on="0"/>
        <pt x="371" y="623" on="1"/>
        <pt x="813" y="623" on="1"/>
        <pt x="793" y="541" on="1"/>
        <pt x="369" y="541" on="1"/>
        <pt x="369" y="298" on="0"/>
        <pt x="547" y="72" on="0"/>
        <pt x="723" y="72" on="1"/>
        <pt x="838" y="72" on="0"/>
        <pt x="975" y="129" on="1"/>
        <pt x="975" y="35" on="1"/>
        <pt x="846" y="-20" on="0"/>
        <pt x="705" y="-20" on="1"/>
        <pt x="496" y="-20" on="0"/>
        <pt x="264" y="259" on="0"/>
        <pt x="264" y="514" on="1"/>
        <pt x="264" y="541" on="1"/>
        <pt x="80" y="541" on="1"/>
        <pt x="96" y="623" on="1"/>
        <pt x="268" y="623" on="1"/>
        <pt x="273" y="724" on="0"/>
        <pt x="303" y="840" on="1"/>
        <pt x="133" y="840" on="1"/>
        <pt x="152" y="922" on="1"/>
        <pt x="326" y="922" on="1"/>
        <pt x="421" y="1195" on="0"/>
        <pt x="771" y="1483" on="0"/>
        <pt x="995" y="1483" on="1"/>
        <pt x="1161" y="1483" on="0"/>
        <pt x="1282" y="1393" on="1"/>
        <pt x="1229" y="1311" on="1"/>
        <pt x="1127" y="1389" on="0"/>
      </contour>
    </TTGlyph>
    <TTGlyph name="F" xMin="102" yMin="0" xMax="1120" yMax="1462">
      <contour>
        <pt x="205" y="0" on="1"/>
        <pt x="102" y="0" on="1"/>
        <pt x="412" y="1462" on="1"/>
        <pt x="1120" y="1462" on="1"/>
        <pt x="1100" y="1368" on="1"/>
        <pt x="496" y="1368" on="1"/>
        <pt x="362" y="748" on="1"/>
        <pt x="932" y="748" on="1"/>
        <pt x="911" y="653" on="1"/>
        <pt x="342" y="653" on="1"/>
      </contour>
    </TTGlyph>
    <TTGlyph name="G" xMin="170" yMin="-20" xMax="1341" yMax="1483">
      <contour>
        <pt x="856" y="735" on="1"/>
        <pt x="1262" y="735" on="1"/>
        <pt x="1112" y="53" on="1"/>
        <pt x="901" y="-20" on="0"/>
        <pt x="707" y="-20" on="1"/>
        <pt x="450" y="-20" on="0"/>
        <pt x="170" y="272" on="0"/>
        <pt x="170" y="547" on="1"/>
        <pt x="170" y="812" on="0"/>
        <pt x="380" y="1249" on="0"/>
        <pt x="737" y="1483" on="0"/>
        <pt x="954" y="1483" on="1"/>
        <pt x="1067" y="1483" on="0"/>
        <pt x="1247" y="1445" on="0"/>
        <pt x="1341" y="1405" on="1"/>
        <pt x="1303" y="1311" on="1"/>
        <pt x="1193" y="1357" on="0"/>
        <pt x="1034" y="1389" on="0"/>
        <pt x="946" y="1389" on="1"/>
        <pt x="762" y="1389" on="0"/>
        <pt x="452" y="1174" on="0"/>
        <pt x="274" y="786" on="0"/>
        <pt x="274" y="547" on="1"/>
        <pt x="274" y="318" on="0"/>
        <pt x="503" y="72" on="0"/>
        <pt x="715" y="72" on="1"/>
        <pt x="870" y="72" on="0"/>
        <pt x="1024" y="119" on="1"/>
        <pt x="1141" y="645" on="1"/>
        <pt x="838" y="645" on="1"/>
      </contour>
    </TTGlyph>
    <TTGlyph name="Gamma" xMin="102" yMin="0" xMax="1120" yMax="1462">
      <contour>
        <pt x="205" y="0" on="1"/>
        <pt x="102" y="0" on="1"/>
        <pt x="412" y="1462" on="1"/>
        <pt x="1120" y="1462" on="1"/>
        <pt x="1100" y="1368" on="1"/>
        <pt x="496" y="1368" on="1"/>
      </contour>
    </TTGlyph>
    <TTGlyph name="Gbreve" xMin="170" yMin="-20" xMax="1341" yMax="1819">
      <component glyphName="G" x="0" y="0" flags="0x204"/>
      <component glyphName="breve" x="209" y="338" flags="0x4"/>
    </TTGlyph>
    <TTGlyph name="Gcircumflex" xMin="170" yMin="-20" xMax="1341" yMax="1907">
      <component glyphName="G" x="0" y="0" flags="0x204"/>
      <component glyphName="circumflex" x="219" y="338" flags="0x4"/>
    </TTGlyph>
    <TTGlyph name="Gcommaaccent" xMin="170" yMin="-453" xMax="1341" yMax="1483">
      <component glyphName="G" x="0" y="0" flags="0x204"/>
      <component glyphName="commaaccent" x="289" y="0" flags="0x4"/>
    </TTGlyph>
    <TTGlyph name="Gdot" xMin="170" yMin="-20" xMax="1341" yMax="1825">
      <component glyphName="G" x="0" y="0" flags="0x204"/>
      <component glyphName="dotaccent" x="543" y="338" flags="0x4"/>
    </TTGlyph>
    <TTGlyph name="H" xMin="102" yMin="0" xMax="1372" yMax="1462">
      <contour>
        <pt x="1063" y="0" on="1"/>
        <pt x="963" y="0" on="1"/>
        <pt x="1114" y="719" on="1"/>
        <pt x="354" y="719" on="1"/>
        <pt x="205" y="0" on="1"/>
        <pt x="102" y="0" on="1"/>
        <pt x="412" y="1462" on="1"/>
        <pt x="514" y="1462" on="1"/>
        <pt x="375" y="813" on="1"/>
        <pt x="1135" y="813" on="1"/>
        <pt x="1272" y="1462" on="1"/>
        <pt x="1372" y="1462" on="1"/>
      </contour>
    </TTGlyph>
    <TTGlyph name="Hbar" xMin="102" yMin="0" xMax="1511" yMax="1462">
      <contour>
        <pt x="1313" y="1184" on="1"/>
        <pt x="1511" y="1184" on="1"/>
        <pt x="1491" y="1094" on="1"/>
        <pt x="1294" y="1094" on="1"/>
        <pt x="1063" y="0" on="1"/>
        <pt x="963" y="0" on="1"/>
        <pt x="1114" y="719" on="1"/>
        <pt x="354" y="719" on="1"/>
        <pt x="205" y="0" on="1"/>
        <pt x="102" y="0" on="1"/>
        <pt x="334" y="1094" on="1"/>
        <pt x="141" y="1094" on="1"/>
        <pt x="162" y="1184" on="1"/>
        <pt x="352" y="1184" on="1"/>
        <pt x="412" y="1462" on="1"/>
        <pt x="514" y="1462" on="1"/>
        <pt x="455" y="1184" on="1"/>
        <pt x="1212" y="1184" on="1"/>
        <pt x="1272" y="1462" on="1"/>
        <pt x="1372" y="1462" on="1"/>
      </contour>
      <contour>
        <pt x="1135" y="813" on="1"/>
        <pt x="1194" y="1094" on="1"/>
        <pt x="434" y="1094" on="1"/>
        <pt x="375" y="813" on="1"/>
      </contour>
    </TTGlyph>
    <TTGlyph name="Hcircumflex" xMin="102" yMin="0" xMax="1372" yMax="1907">
      <component glyphName="H" x="0" y="0" flags="0x204"/>
      <component glyphName="circumflex" x="190" y="338" flags="0x4"/>
    </TTGlyph>
    <TTGlyph name="I" xMin="102" yMin="0" xMax="510" yMax="1462">
      <contour>
        <pt x="102" y="0" on="1"/>
        <pt x="412" y="1462" on="1"/>
        <pt x="510" y="1462" on="1"/>
        <pt x="201" y="0" on="1"/>
      </contour>
    </TTGlyph>
    <TTGlyph name="I.alt" xMin="-37" yMin="0" xMax="690" yMax="1462">
      <contour>
        <pt x="383" y="0" on="1"/>
        <pt x="-37" y="0" on="1"/>
        <pt x="-23" y="63" on="1"/>
        <pt x="141" y="74" on="1"/>
        <pt x="418" y="1386" on="1"/>
        <pt x="260" y="1397" on="1"/>
        <pt x="270" y="1462" on="1"/>
        <pt x="690" y="1462" on="1"/>
        <pt x="680" y="1397" on="1"/>
        <pt x="520" y="1386" on="1"/>
        <pt x="242" y="74" on="1"/>
        <pt x="395" y="63" on="1"/>
      </contour>
    </TTGlyph>
    <TTGlyph name="IJ" xMin="102" yMin="-360" xMax="1004" yMax="1462">
      <component glyphName="I" x="0" y="0" flags="0x4"/>
      <component glyphName="J" x="504" y="0" flags="0x4"/>
    </TTGlyph>
    <TTGlyph name="IJ.alt" xMin="-29" yMin="-360" xMax="1082" yMax="1462">
      <component glyphName="I.alt" x="8" y="0" flags="0x4"/>
      <component glyphName="J" x="582" y="0" flags="0x4"/>
    </TTGlyph>
    <TTGlyph name="Iacute" xMin="102" yMin="0" xMax="836" yMax="1907">
      <component glyphName="I" x="0" y="0" flags="0x204"/>
      <component glyphName="acute" x="-161" y="338" flags="0x4"/>
    </TTGlyph>
    <TTGlyph name="Iacute.alt" xMin="-37" yMin="0" xMax="830" yMax="1907">
      <component glyphName="I.alt" x="0" y="0" flags="0x204"/>
      <component glyphName="acute" x="-167" y="338" flags="0x4"/>
    </TTGlyph>
    <TTGlyph name="Ibreve" xMin="102" yMin="0" xMax="769" yMax="1819">
      <component glyphName="I" x="0" y="0" flags="0x204"/>
      <component glyphName="breve" x="-239" y="338" flags="0x4"/>
    </TTGlyph>
    <TTGlyph name="Ibreve.alt" xMin="-37" yMin="0" xMax="792" yMax="1819">
      <component glyphName="I.alt" x="0" y="0" flags="0x204"/>
      <component glyphName="breve" x="-216" y="338" flags="0x4"/>
    </TTGlyph>
    <TTGlyph name="Icircumflex" xMin="102" yMin="0" xMax="738" yMax="1907">
      <component glyphName="I" x="0" y="0" flags="0x204"/>
      <component glyphName="circumflex" x="-220" y="338" flags="0x4"/>
    </TTGlyph>
    <TTGlyph name="Icircumflex.alt" xMin="-37" yMin="0" xMax="758" yMax="1907">
      <component glyphName="I.alt" x="0" y="0" flags="0x204"/>
      <component glyphName="circumflex" x="-200" y="338" flags="0x4"/>
    </TTGlyph>
    <TTGlyph name="Idieresis" xMin="102" yMin="0" xMax="735" yMax="1811">
      <component glyphName="I" x="0" y="0" flags="0x204"/>
      <component glyphName="dieresis" x="-232" y="338" flags="0x4"/>
    </TTGlyph>
    <TTGlyph name="Idieresis.alt" xMin="-37" yMin="0" xMax="765" yMax="1811">
      <component glyphName="I.alt" x="0" y="0" flags="0x204"/>
      <component glyphName="dieresis" x="-202" y="338" flags="0x4"/>
    </TTGlyph>
    <TTGlyph name="Idotaccent" xMin="102" yMin="0" xMax="578" yMax="1825">
      <component glyphName="I" x="0" y="0" flags="0x204"/>
      <component glyphName="dotaccent" x="113" y="338" flags="0x4"/>
    </TTGlyph>
    <TTGlyph name="Idotaccent.alt" xMin="-37" yMin="0" xMax="690" yMax="1825">
      <component glyphName="I.alt" x="0" y="0" flags="0x204"/>
      <component glyphName="dotaccent" x="135" y="338" flags="0x4"/>
    </TTGlyph>
    <TTGlyph name="Igrave" xMin="102" yMin="0" xMax="525" yMax="1907">
      <component glyphName="I" x="0" y="0" flags="0x204"/>
      <component glyphName="grave" x="-241" y="338" flags="0x4"/>
    </TTGlyph>
    <TTGlyph name="Igrave.alt" xMin="-37" yMin="0" xMax="690" yMax="1907">
      <component glyphName="I.alt" x="0" y="0" flags="0x204"/>
      <component glyphName="grave" x="-187" y="338" flags="0x4"/>
    </TTGlyph>
    <TTGlyph name="Imacron" xMin="102" yMin="0" xMax="740" yMax="1671">
      <component glyphName="I" x="0" y="0" flags="0x204"/>
      <component glyphName="macron" x="-202" y="338" flags="0x4"/>
    </TTGlyph>
    <TTGlyph name="Imacron.alt" xMin="-37" yMin="0" xMax="775" yMax="1671">
      <component glyphName="I.alt" x="0" y="0" flags="0x204"/>
      <component glyphName="macron" x="-167" y="338" flags="0x4"/>
    </TTGlyph>
    <TTGlyph name="Iogonek" xMin="-88" yMin="-414" xMax="510" yMax="1462">
      <component glyphName="I" x="0" y="0" flags="0x204"/>
      <component glyphName="ogonek" x="47" y="0" flags="0x4"/>
    </TTGlyph>
    <TTGlyph name="Iogonek.alt" xMin="-37" yMin="-414" xMax="690" yMax="1462">
      <component glyphName="I.alt" x="0" y="0" flags="0x204"/>
      <component glyphName="ogonek" x="154" y="0" flags="0x4"/>
    </TTGlyph>
    <TTGlyph name="Iota" xMin="102" yMin="0" xMax="510" yMax="1462">
      <component glyphName="I" x="0" y="0" flags="0x204"/>
    </TTGlyph>
    <TTGlyph name="Iota.alt" xMin="-37" yMin="0" xMax="690" yMax="1462">
      <component glyphName="I.alt" x="0" y="0" flags="0x204"/>
    </TTGlyph>
    <TTGlyph name="Iotadieresis" xMin="102" yMin="0" xMax="735" yMax="1811">
      <component glyphName="I" x="0" y="0" flags="0x204"/>
      <component glyphName="dieresis" x="-232" y="338" flags="0x4"/>
    </TTGlyph>
    <TTGlyph name="Iotadieresis.alt" xMin="-37" yMin="0" xMax="765" yMax="1811">
      <component glyphName="I.alt" x="0" y="0" flags="0x204"/>
      <component glyphName="dieresis" x="-202" y="338" flags="0x4"/>
    </TTGlyph>
    <TTGlyph name="Iotatonos" xMin="109" yMin="0" xMax="666" yMax="1558">
      <component glyphName="I" x="156" y="0" flags="0x4"/>
      <component glyphName="tonos" x="-542" y="-105" flags="0x4"/>
    </TTGlyph>
    <TTGlyph name="Iotatonos.alt" xMin="124" yMin="0" xMax="946" yMax="1558">
      <component glyphName="I.alt" x="256" y="0" flags="0x4"/>
      <component glyphName="tonos" x="-527" y="-105" flags="0x4"/>
    </TTGlyph>
    <TTGlyph name="Itilde" xMin="102" yMin="0" xMax="838" yMax="1815">
      <component glyphName="I" x="0" y="0" flags="0x204"/>
      <component glyphName="tilde" x="-192" y="338" flags="0x4"/>
    </TTGlyph>
    <TTGlyph name="Itilde.alt" xMin="-37" yMin="0" xMax="859" yMax="1815">
      <component glyphName="I.alt" x="0" y="0" flags="0x204"/>
      <component glyphName="tilde" x="-171" y="338" flags="0x4"/>
    </TTGlyph>
    <TTGlyph name="J" xMin="-324" yMin="-360" xMax="500" yMax="1462">
      <contour>
        <pt x="-180" y="-360" on="1"/>
        <pt x="-228" y="-360" on="0"/>
        <pt x="-308" y="-344" on="0"/>
        <pt x="-324" y="-336" on="1"/>
        <pt x="-313" y="-244" on="1"/>
        <pt x="-256" y="-264" on="0"/>
        <pt x="-176" y="-264" on="1"/>
        <pt x="37" y="-264" on="0"/>
        <pt x="86" y="-23" on="1"/>
        <pt x="395" y="1462" on="1"/>
        <pt x="500" y="1462" on="1"/>
        <pt x="186" y="-29" on="1"/>
        <pt x="151" y="-199" on="0"/>
        <pt x="-29" y="-360" on="0"/>
      </contour>
    </TTGlyph>
    <TTGlyph name="Jcircumflex" xMin="-324" yMin="-360" xMax="726" yMax="1907">
      <component glyphName="J" x="0" y="0" flags="0x204"/>
      <component glyphName="circumflex" x="-232" y="338" flags="0x4"/>
    </TTGlyph>
    <TTGlyph name="K" xMin="102" yMin="0" xMax="1307" yMax="1462">
      <contour>
        <pt x="979" y="0" on="1"/>
        <pt x="868" y="0" on="1"/>
        <pt x="526" y="788" on="1"/>
        <pt x="336" y="635" on="1"/>
        <pt x="205" y="0" on="1"/>
        <pt x="102" y="0" on="1"/>
        <pt x="412" y="1462" on="1"/>
        <pt x="514" y="1462" on="1"/>
        <pt x="356" y="739" on="1"/>
        <pt x="489" y="860" on="1"/>
        <pt x="1169" y="1462" on="1"/>
        <pt x="1307" y="1462" on="1"/>
        <pt x="608" y="852" on="1"/>
      </contour>
    </TTGlyph>
    <TTGlyph name="Kappa" xMin="102" yMin="0" xMax="1307" yMax="1462">
      <component glyphName="K" x="0" y="0" flags="0x204"/>
    </TTGlyph>
    <TTGlyph name="Kcommaaccent" xMin="102" yMin="-453" xMax="1307" yMax="1462">
      <component glyphName="K" x="0" y="0" flags="0x204"/>
      <component glyphName="commaaccent" x="125" y="0" flags="0x4"/>
    </TTGlyph>
    <TTGlyph name="L" xMin="102" yMin="0" xMax="846" yMax="1462">
      <contour>
        <pt x="102" y="0" on="1"/>
        <pt x="412" y="1462" on="1"/>
        <pt x="514" y="1462" on="1"/>
        <pt x="225" y="96" on="1"/>
        <pt x="846" y="96" on="1"/>
        <pt x="823" y="0" on="1"/>
      </contour>
    </TTGlyph>
    <TTGlyph name="Lacute" xMin="102" yMin="0" xMax="846" yMax="1907">
      <component glyphName="L" x="0" y="0" flags="0x204"/>
      <component glyphName="acute" x="-165" y="338" flags="0x4"/>
    </TTGlyph>
    <TTGlyph name="Lambda" xMin="-113" yMin="0" xMax="1016" yMax="1462">
      <contour>
        <pt x="737" y="1331" on="1"/>
        <pt x="670" y="1183" on="0"/>
        <pt x="532" y="940" on="1"/>
        <pt x="6" y="0" on="1"/>
        <pt x="-113" y="0" on="1"/>
        <pt x="717" y="1462" on="1"/>
        <pt x="809" y="1462" on="1"/>
        <pt x="1016" y="0" on="1"/>
        <pt x="915" y="0" on="1"/>
        <pt x="776" y="985" on="1"/>
        <pt x="747" y="1191" on="0"/>
        <pt x="741" y="1331" on="1"/>
      </contour>
    </TTGlyph>
    <TTGlyph name="Lcaron" xMin="102" yMin="0" xMax="1021" yMax="1463">
      <component glyphName="L" x="0" y="0" flags="0x204"/>
      <component glyphName="caroncommaaccent" x="233" y="-93" flags="0x4"/>
    </TTGlyph>
    <TTGlyph name="Lcommaaccent" xMin="102" yMin="-453" xMax="846" yMax="1462">
      <component glyphName="L" x="0" y="0" flags="0x204"/>
      <component glyphName="commaaccent" x="119" y="0" flags="0x4"/>
    </TTGlyph>
    <TTGlyph name="Ldot" xMin="102" yMin="0" xMax="846" yMax="1462">
      <component glyphName="L" x="0" y="0" flags="0x204"/>
      <component glyphName="dotaccent" x="358" y="-648" flags="0x4"/>
    </TTGlyph>
    <TTGlyph name="Lslash" xMin="39" yMin="0" xMax="846" yMax="1462">
      <contour>
        <pt x="100" y="0" on="1"/>
        <pt x="213" y="524" on="1"/>
        <pt x="78" y="444" on="1"/>
        <pt x="39" y="522" on="1"/>
        <pt x="238" y="641" on="1"/>
        <pt x="412" y="1462" on="1"/>
        <pt x="514" y="1462" on="1"/>
        <pt x="354" y="707" on="1"/>
        <pt x="639" y="877" on="1"/>
        <pt x="682" y="801" on="1"/>
        <pt x="328" y="588" on="1"/>
        <pt x="225" y="96" on="1"/>
        <pt x="846" y="96" on="1"/>
        <pt x="823" y="0" on="1"/>
      </contour>
    </TTGlyph>
    <TTGlyph name="M" xMin="109" yMin="0" xMax="1655" yMax="1462">
      <contour>
        <pt x="772" y="205" on="1"/>
        <pt x="1505" y="1462" on="1"/>
        <pt x="1655" y="1462" on="1"/>
        <pt x="1354" y="0" on="1"/>
        <pt x="1253" y="0" on="1"/>
        <pt x="1444" y="901" on="1"/>
        <pt x="1523" y="1270" on="0"/>
        <pt x="1544" y="1348" on="1"/>
        <pt x="1538" y="1348" on="1"/>
        <pt x="758" y="0" on="1"/>
        <pt x="707" y="0" on="1"/>
        <pt x="485" y="1348" on="1"/>
        <pt x="479" y="1348" on="1"/>
        <pt x="459" y="1194" on="0"/>
        <pt x="401" y="922" on="1"/>
        <pt x="205" y="0" on="1"/>
        <pt x="109" y="0" on="1"/>
        <pt x="418" y="1462" on="1"/>
        <pt x="561" y="1462" on="1"/>
        <pt x="766" y="205" on="1"/>
      </contour>
    </TTGlyph>
    <TTGlyph name="Mu" xMin="109" yMin="0" xMax="1655" yMax="1462">
      <component glyphName="M" x="0" y="0" flags="0x204"/>
    </TTGlyph>
    <TTGlyph name="N" xMin="102" yMin="0" xMax="1378" yMax="1462">
      <contour>
        <pt x="1069" y="0" on="1"/>
        <pt x="983" y="0" on="1"/>
        <pt x="467" y="1284" on="1"/>
        <pt x="459" y="1284" on="1"/>
        <pt x="436" y="1135" on="0"/>
        <pt x="386" y="887" on="0"/>
        <pt x="197" y="0" on="1"/>
        <pt x="102" y="0" on="1"/>
        <pt x="412" y="1462" on="1"/>
        <pt x="492" y="1462" on="1"/>
        <pt x="1014" y="168" on="1"/>
        <pt x="1022" y="168" on="1"/>
        <pt x="1045" y="344" on="0"/>
        <pt x="1096" y="584" on="1"/>
        <pt x="1284" y="1462" on="1"/>
        <pt x="1378" y="1462" on="1"/>
      </contour>
    </TTGlyph>
    <TTGlyph name="Nacute" xMin="102" yMin="0" xMax="1378" yMax="1907">
      <component glyphName="N" x="0" y="0" flags="0x204"/>
      <component glyphName="acute" x="264" y="338" flags="0x4"/>
    </TTGlyph>
    <TTGlyph name="Ncaron" xMin="102" yMin="0" xMax="1378" yMax="1907">
      <component glyphName="N" x="0" y="0" flags="0x204"/>
      <component glyphName="caron" x="197" y="338" flags="0x4"/>
    </TTGlyph>
    <TTGlyph name="Ncommaaccent" xMin="102" yMin="-453" xMax="1378" yMax="1462">
      <component glyphName="N" x="0" y="0" flags="0x204"/>
      <component glyphName="commaaccent" x="215" y="0" flags="0x4"/>
    </TTGlyph>
    <TTGlyph name="Ntilde" xMin="102" yMin="0" xMax="1378" yMax="1815">
      <component glyphName="N" x="0" y="0" flags="0x204"/>
      <component glyphName="tilde" x="231" y="338" flags="0x4"/>
    </TTGlyph>
    <TTGlyph name="Nu" xMin="102" yMin="0" xMax="1378" yMax="1462">
      <component glyphName="N" x="0" y="0" flags="0x204"/>
    </TTGlyph>
    <TTGlyph name="O" xMin="172" yMin="-20" xMax="1403" yMax="1483">
      <contour>
        <pt x="1403" y="911" on="1"/>
        <pt x="1403" y="656" on="0"/>
        <pt x="1215" y="203" on="0"/>
        <pt x="899" y="-20" on="0"/>
        <pt x="692" y="-20" on="1"/>
        <pt x="442" y="-20" on="0"/>
        <pt x="172" y="278" on="0"/>
        <pt x="172" y="559" on="1"/>
        <pt x="172" y="821" on="0"/>
        <pt x="358" y="1252" on="0"/>
        <pt x="682" y="1483" on="0"/>
        <pt x="893" y="1483" on="1"/>
        <pt x="1140" y="1483" on="0"/>
        <pt x="1403" y="1186" on="0"/>
      </contour>
      <contour>
        <pt x="879" y="1389" on="1"/>
        <pt x="705" y="1389" on="0"/>
        <pt x="436" y="1187" on="0"/>
        <pt x="276" y="793" on="0"/>
        <pt x="276" y="573" on="1"/>
        <pt x="276" y="328" on="0"/>
        <pt x="495" y="72" on="0"/>
        <pt x="705" y="72" on="1"/>
        <pt x="874" y="72" on="0"/>
        <pt x="1136" y="269" on="0"/>
        <pt x="1294" y="672" on="0"/>
        <pt x="1294" y="901" on="1"/>
        <pt x="1294" y="1141" on="0"/>
        <pt x="1085" y="1389" on="0"/>
      </contour>
    </TTGlyph>
    <TTGlyph name="OE" xMin="172" yMin="-20" xMax="1839" yMax="1483">
      <contour>
        <pt x="1530" y="0" on="1"/>
        <pt x="864" y="0" on="1"/>
        <pt x="839" y="-6" on="0"/>
        <pt x="734" y="-20" on="0"/>
        <pt x="692" y="-20" on="1"/>
        <pt x="441" y="-20" on="0"/>
        <pt x="172" y="279" on="0"/>
        <pt x="172" y="559" on="1"/>
        <pt x="172" y="822" on="0"/>
        <pt x="364" y="1260" on="0"/>
        <pt x="696" y="1483" on="0"/>
        <pt x="911" y="1483" on="1"/>
        <pt x="1041" y="1483" on="0"/>
        <pt x="1151" y="1462" on="1"/>
        <pt x="1839" y="1462" on="1"/>
        <pt x="1819" y="1368" on="1"/>
        <pt x="1194" y="1368" on="1"/>
        <pt x="1077" y="815" on="1"/>
        <pt x="1667" y="815" on="1"/>
        <pt x="1647" y="721" on="1"/>
        <pt x="1059" y="721" on="1"/>
        <pt x="924" y="94" on="1"/>
        <pt x="1550" y="94" on="1"/>
      </contour>
      <contour>
        <pt x="705" y="72" on="1"/>
        <pt x="773" y="72" on="0"/>
        <pt x="821" y="84" on="1"/>
        <pt x="1092" y="1374" on="1"/>
        <pt x="982" y="1389" on="0"/>
        <pt x="903" y="1389" on="1"/>
        <pt x="721" y="1389" on="0"/>
        <pt x="442" y="1192" on="0"/>
        <pt x="276" y="802" on="0"/>
        <pt x="276" y="573" on="1"/>
        <pt x="276" y="328" on="0"/>
        <pt x="494" y="72" on="0"/>
      </contour>
    </TTGlyph>
    <TTGlyph name="Oacute" xMin="172" yMin="-20" xMax="1403" yMax="1907">
      <component glyphName="O" x="0" y="0" flags="0x204"/>
      <component glyphName="acute" x="264" y="338" flags="0x4"/>
    </TTGlyph>
    <TTGlyph name="Obreve" xMin="172" yMin="-20" xMax="1403" yMax="1819">
      <component glyphName="O" x="0" y="0" flags="0x204"/>
      <component glyphName="breve" x="176" y="338" flags="0x4"/>
    </TTGlyph>
    <TTGlyph name="Ocircumflex" xMin="172" yMin="-20" xMax="1403" yMax="1907">
      <component glyphName="O" x="0" y="0" flags="0x204"/>
      <component glyphName="circumflex" x="213" y="338" flags="0x4"/>
    </TTGlyph>
    <TTGlyph name="Odieresis" xMin="172" yMin="-20" xMax="1403" yMax="1811">
      <component glyphName="O" x="0" y="0" flags="0x204"/>
      <component glyphName="dieresis" x="195" y="338" flags="0x4"/>
    </TTGlyph>
    <TTGlyph name="Ograve" xMin="172" yMin="-20" xMax="1403" yMax="1907">
      <component glyphName="O" x="0" y="0" flags="0x204"/>
      <component glyphName="grave" x="223" y="338" flags="0x4"/>
    </TTGlyph>
    <TTGlyph name="Ohorn" xMin="172" yMin="-20" xMax="1663" yMax="1556">
      <contour>
        <pt x="1403" y="911" on="1"/>
        <pt x="1403" y="656" on="0"/>
        <pt x="1215" y="203" on="0"/>
        <pt x="899" y="-20" on="0"/>
        <pt x="692" y="-20" on="1"/>
        <pt x="442" y="-20" on="0"/>
        <pt x="172" y="278" on="0"/>
        <pt x="172" y="559" on="1"/>
        <pt x="172" y="821" on="0"/>
        <pt x="358" y="1252" on="0"/>
        <pt x="682" y="1483" on="0"/>
        <pt x="893" y="1483" on="1"/>
        <pt x="1036" y="1483" on="0"/>
        <pt x="1255" y="1375" on="0"/>
        <pt x="1321" y="1266" on="1"/>
        <pt x="1423" y="1307" on="0"/>
        <pt x="1527" y="1443" on="0"/>
        <pt x="1546" y="1556" on="1"/>
        <pt x="1651" y="1556" on="1"/>
        <pt x="1663" y="1538" on="1"/>
        <pt x="1610" y="1292" on="0"/>
        <pt x="1358" y="1194" on="1"/>
        <pt x="1403" y="1073" on="0"/>
      </contour>
      <contour>
        <pt x="879" y="1389" on="1"/>
        <pt x="705" y="1389" on="0"/>
        <pt x="436" y="1187" on="0"/>
        <pt x="276" y="793" on="0"/>
        <pt x="276" y="573" on="1"/>
        <pt x="276" y="328" on="0"/>
        <pt x="495" y="72" on="0"/>
        <pt x="705" y="72" on="1"/>
        <pt x="874" y="72" on="0"/>
        <pt x="1136" y="269" on="0"/>
        <pt x="1294" y="672" on="0"/>
        <pt x="1294" y="901" on="1"/>
        <pt x="1294" y="1141" on="0"/>
        <pt x="1085" y="1389" on="0"/>
      </contour>
    </TTGlyph>
    <TTGlyph name="Ohungarumlaut" xMin="172" yMin="-20" xMax="1403" yMax="1907">
      <component glyphName="O" x="0" y="0" flags="0x204"/>
      <component glyphName="hungarumlaut" x="295" y="338" flags="0x4"/>
    </TTGlyph>
    <TTGlyph name="Omacron" xMin="172" yMin="-20" xMax="1403" yMax="1671">
      <component glyphName="O" x="0" y="0" flags="0x204"/>
      <component glyphName="macron" x="231" y="338" flags="0x4"/>
    </TTGlyph>
    <TTGlyph name="Omega" xMin="27" yMin="0" xMax="1403" yMax="1483">
      <component glyphName="uni03A9" x="0" y="0" flags="0x204"/>
    </TTGlyph>
    <TTGlyph name="Omegatonos" xMin="101" yMin="0" xMax="1477" yMax="1558">
      <component glyphName="uni03A9" x="74" y="0" flags="0x4"/>
      <component glyphName="tonos" x="-521" y="-105" flags="0x4"/>
    </TTGlyph>
    <TTGlyph name="Omicron" xMin="172" yMin="-20" xMax="1403" yMax="1483">
      <component glyphName="O" x="0" y="0" flags="0x204"/>
    </TTGlyph>
    <TTGlyph name="Omicrontonos" xMin="103" yMin="-20" xMax="1456" yMax="1558">
      <component glyphName="tonos" x="-548" y="-105" flags="0x4"/>
      <component glyphName="O" x="53" y="0" flags="0x4"/>
    </TTGlyph>
    <TTGlyph name="Oslash" xMin="139" yMin="-78" xMax="1448" yMax="1530">
      <contour>
        <pt x="1403" y="911" on="1"/>
        <pt x="1403" y="724" on="0"/>
        <pt x="1299" y="367" on="0"/>
        <pt x="1114" y="115" on="0"/>
        <pt x="853" y="-20" on="0"/>
        <pt x="692" y="-20" on="1"/>
        <pt x="477" y="-20" on="0"/>
        <pt x="344" y="92" on="1"/>
        <pt x="205" y="-78" on="1"/>
        <pt x="139" y="-14" on="1"/>
        <pt x="285" y="158" on="1"/>
        <pt x="172" y="307" on="0"/>
        <pt x="172" y="559" on="1"/>
        <pt x="172" y="822" on="0"/>
        <pt x="360" y="1255" on="0"/>
        <pt x="685" y="1483" on="0"/>
        <pt x="893" y="1483" on="1"/>
        <pt x="1112" y="1483" on="0"/>
        <pt x="1245" y="1362" on="1"/>
        <pt x="1378" y="1530" on="1"/>
        <pt x="1448" y="1477" on="1"/>
        <pt x="1303" y="1294" on="1"/>
        <pt x="1348" y="1243" on="0"/>
        <pt x="1403" y="1023" on="0"/>
      </contour>
      <contour>
        <pt x="879" y="1389" on="1"/>
        <pt x="745" y="1389" on="0"/>
        <pt x="525" y="1270" on="0"/>
        <pt x="368" y="1049" on="0"/>
        <pt x="276" y="735" on="0"/>
        <pt x="276" y="573" on="1"/>
        <pt x="276" y="468" on="0"/>
        <pt x="319" y="296" on="0"/>
        <pt x="354" y="244" on="1"/>
        <pt x="1180" y="1276" on="1"/>
        <pt x="1073" y="1389" on="0"/>
      </contour>
      <contour>
        <pt x="1294" y="901" on="1"/>
        <pt x="1294" y="986" on="0"/>
        <pt x="1259" y="1160" on="0"/>
        <pt x="1233" y="1202" on="1"/>
        <pt x="412" y="172" on="1"/>
        <pt x="519" y="72" on="0"/>
        <pt x="705" y="72" on="1"/>
        <pt x="875" y="72" on="0"/>
        <pt x="1137" y="272" on="0"/>
        <pt x="1294" y="665" on="0"/>
      </contour>
    </TTGlyph>
    <TTGlyph name="Oslashacute" xMin="139" yMin="-78" xMax="1448" yMax="1907">
      <component glyphName="Oslash" x="0" y="0" flags="0x204"/>
      <component glyphName="acute" x="233" y="338" flags="0x4"/>
    </TTGlyph>
    <TTGlyph name="Otilde" xMin="172" yMin="-20" xMax="1403" yMax="1815">
      <component glyphName="O" x="0" y="0" flags="0x204"/>
      <component glyphName="tilde" x="246" y="338" flags="0x4"/>
    </TTGlyph>
    <TTGlyph name="P" xMin="102" yMin="0" xMax="1145" yMax="1462">
      <contour>
        <pt x="1145" y="1102" on="1"/>
        <pt x="1145" y="602" on="0"/>
        <pt x="535" y="602" on="1"/>
        <pt x="334" y="602" on="1"/>
        <pt x="205" y="0" on="1"/>
        <pt x="102" y="0" on="1"/>
        <pt x="412" y="1462" on="1"/>
        <pt x="727" y="1462" on="1"/>
        <pt x="929" y="1462" on="0"/>
        <pt x="1145" y="1277" on="0"/>
      </contour>
      <contour>
        <pt x="350" y="694" on="1"/>
        <pt x="541" y="694" on="1"/>
        <pt x="793" y="694" on="0"/>
        <pt x="1036" y="887" on="0"/>
        <pt x="1036" y="1096" on="1"/>
        <pt x="1036" y="1370" on="0"/>
        <pt x="707" y="1370" on="1"/>
        <pt x="496" y="1370" on="1"/>
      </contour>
    </TTGlyph>
    <TTGlyph name="Phi" xMin="156" yMin="-20" xMax="1393" yMax="1483">
      <contour>
        <pt x="561" y="-20" on="1"/>
        <pt x="610" y="213" on="1"/>
        <pt x="466" y="221" on="0"/>
        <pt x="263" y="344" on="0"/>
        <pt x="156" y="544" on="0"/>
        <pt x="156" y="674" on="1"/>
        <pt x="156" y="851" on="0"/>
        <pt x="321" y="1134" on="0"/>
        <pt x="628" y="1286" on="0"/>
        <pt x="840" y="1292" on="1"/>
        <pt x="881" y="1483" on="1"/>
        <pt x="981" y="1483" on="1"/>
        <pt x="942" y="1292" on="1"/>
        <pt x="1160" y="1278" on="0"/>
        <pt x="1393" y="1047" on="0"/>
        <pt x="1393" y="846" on="1"/>
        <pt x="1393" y="659" on="0"/>
        <pt x="1225" y="372" on="0"/>
        <pt x="919" y="220" on="0"/>
        <pt x="715" y="213" on="1"/>
        <pt x="664" y="-20" on="1"/>
      </contour>
      <contour>
        <pt x="733" y="305" on="1"/>
        <pt x="997" y="313" on="0"/>
        <pt x="1288" y="591" on="0"/>
        <pt x="1288" y="840" on="1"/>
        <pt x="1288" y="1003" on="0"/>
        <pt x="1104" y="1192" on="0"/>
        <pt x="922" y="1198" on="1"/>
      </contour>
      <contour>
        <pt x="819" y="1198" on="1"/>
        <pt x="648" y="1195" on="0"/>
        <pt x="397" y="1071" on="0"/>
        <pt x="258" y="835" on="0"/>
        <pt x="258" y="682" on="1"/>
        <pt x="258" y="508" on="0"/>
        <pt x="458" y="309" on="0"/>
        <pt x="631" y="305" on="1"/>
      </contour>
    </TTGlyph>
    <TTGlyph name="Pi" xMin="102" yMin="0" xMax="1372" yMax="1462">
      <contour>
        <pt x="1063" y="0" on="1"/>
        <pt x="963" y="0" on="1"/>
        <pt x="1251" y="1366" on="1"/>
        <pt x="494" y="1366" on="1"/>
        <pt x="205" y="0" on="1"/>
        <pt x="102" y="0" on="1"/>
        <pt x="412" y="1462" on="1"/>
        <pt x="1372" y="1462" on="1"/>
      </contour>
    </TTGlyph>
    <TTGlyph name="Psi" xMin="209" yMin="0" xMax="1526" yMax="1462">
      <contour>
        <pt x="770" y="455" on="1"/>
        <pt x="758" y="455" on="1"/>
        <pt x="662" y="0" on="1"/>
        <pt x="559" y="0" on="1"/>
        <pt x="655" y="455" on="1"/>
        <pt x="647" y="455" on="1"/>
        <pt x="435" y="455" on="0"/>
        <pt x="209" y="656" on="0"/>
        <pt x="209" y="848" on="1"/>
        <pt x="209" y="950" on="0"/>
        <pt x="238" y="1087" on="1"/>
        <pt x="317" y="1462" on="1"/>
        <pt x="420" y="1462" on="1"/>
        <pt x="365" y="1204" on="0"/>
        <pt x="304" y="921" on="0"/>
        <pt x="309" y="856" on="1"/>
        <pt x="309" y="696" on="0"/>
        <pt x="481" y="543" on="0"/>
        <pt x="662" y="543" on="1"/>
        <pt x="674" y="543" on="1"/>
        <pt x="868" y="1462" on="1"/>
        <pt x="971" y="1462" on="1"/>
        <pt x="776" y="543" on="1"/>
        <pt x="786" y="543" on="1"/>
        <pt x="1021" y="543" on="0"/>
        <pt x="1272" y="753" on="0"/>
        <pt x="1325" y="999" on="1"/>
        <pt x="1425" y="1462" on="1"/>
        <pt x="1526" y="1462" on="1"/>
        <pt x="1421" y="977" on="1"/>
        <pt x="1365" y="702" on="0"/>
        <pt x="1048" y="455" on="0"/>
      </contour>
    </TTGlyph>
    <TTGlyph name="Q" xMin="172" yMin="-348" xMax="1403" yMax="1483">
      <contour>
        <pt x="1403" y="911" on="1"/>
        <pt x="1403" y="695" on="0"/>
        <pt x="1263" y="291" on="0"/>
        <pt x="1030" y="47" on="0"/>
        <pt x="872" y="2" on="1"/>
        <pt x="1139" y="-348" on="1"/>
        <pt x="997" y="-348" on="1"/>
        <pt x="766" y="-16" on="1"/>
        <pt x="692" y="-20" on="1"/>
        <pt x="442" y="-20" on="0"/>
        <pt x="172" y="278" on="0"/>
        <pt x="172" y="559" on="1"/>
        <pt x="172" y="821" on="0"/>
        <pt x="358" y="1252" on="0"/>
        <pt x="682" y="1483" on="0"/>
        <pt x="893" y="1483" on="1"/>
        <pt x="1140" y="1483" on="0"/>
        <pt x="1403" y="1186" on="0"/>
      </contour>
      <contour>
        <pt x="879" y="1389" on="1"/>
        <pt x="705" y="1389" on="0"/>
        <pt x="436" y="1187" on="0"/>
        <pt x="276" y="793" on="0"/>
        <pt x="276" y="573" on="1"/>
        <pt x="276" y="328" on="0"/>
        <pt x="495" y="72" on="0"/>
        <pt x="705" y="72" on="1"/>
        <pt x="874" y="72" on="0"/>
        <pt x="1136" y="269" on="0"/>
        <pt x="1294" y="672" on="0"/>
        <pt x="1294" y="901" on="1"/>
        <pt x="1294" y="1141" on="0"/>
        <pt x="1085" y="1389" on="0"/>
      </contour>
    </TTGlyph>
    <TTGlyph name="R" xMin="102" yMin="0" xMax="1145" yMax="1462">
      <contour>
        <pt x="336" y="633" on="1"/>
        <pt x="205" y="0" on="1"/>
        <pt x="102" y="0" on="1"/>
        <pt x="412" y="1462" on="1"/>
        <pt x="715" y="1462" on="1"/>
        <pt x="1145" y="1462" on="0"/>
        <pt x="1145" y="1102" on="1"/>
        <pt x="1145" y="920" on="0"/>
        <pt x="938" y="678" on="0"/>
        <pt x="760" y="647" on="1"/>
        <pt x="961" y="56" on="0"/>
        <pt x="981" y="0" on="1"/>
        <pt x="870" y="0" on="1"/>
        <pt x="659" y="633" on="1"/>
      </contour>
      <contour>
        <pt x="358" y="725" on="1"/>
        <pt x="610" y="725" on="1"/>
        <pt x="818" y="725" on="0"/>
        <pt x="1036" y="916" on="0"/>
        <pt x="1036" y="1102" on="1"/>
        <pt x="1036" y="1370" on="0"/>
        <pt x="707" y="1370" on="1"/>
        <pt x="496" y="1370" on="1"/>
      </contour>
    </TTGlyph>
    <TTGlyph name="Racute" xMin="102" yMin="0" xMax="1145" yMax="1907">
      <component glyphName="R" x="0" y="0" flags="0x204"/>
      <component glyphName="acute" x="145" y="338" flags="0x4"/>
    </TTGlyph>
    <TTGlyph name="Rcaron" xMin="102" yMin="0" xMax="1145" yMax="1907">
      <component glyphName="R" x="0" y="0" flags="0x204"/>
      <component glyphName="caron" x="51" y="338" flags="0x4"/>
    </TTGlyph>
    <TTGlyph name="Rcommaaccent" xMin="102" yMin="-453" xMax="1145" yMax="1462">
      <component glyphName="R" x="0" y="0" flags="0x204"/>
      <component glyphName="commaaccent" x="143" y="0" flags="0x4"/>
    </TTGlyph>
    <TTGlyph name="Rho" xMin="102" yMin="0" xMax="1145" yMax="1462">
      <component glyphName="P" x="0" y="0" flags="0x204"/>
    </TTGlyph>
    <TTGlyph name="S" xMin="37" yMin="-20" xMax="1036" yMax="1483">
      <contour>
        <pt x="895" y="403" on="1"/>
        <pt x="895" y="277" on="0"/>
        <pt x="764" y="80" on="0"/>
        <pt x="536" y="-20" on="0"/>
        <pt x="381" y="-20" on="1"/>
        <pt x="293" y="-20" on="0"/>
        <pt x="124" y="14" on="0"/>
        <pt x="37" y="55" on="1"/>
        <pt x="37" y="164" on="1"/>
        <pt x="200" y="72" on="0"/>
        <pt x="385" y="72" on="1"/>
        <pt x="573" y="72" on="0"/>
        <pt x="788" y="245" on="0"/>
        <pt x="788" y="391" on="1"/>
        <pt x="788" y="452" on="0"/>
        <pt x="754" y="539" on="0"/>
        <pt x="683" y="609" on="0"/>
        <pt x="572" y="675" on="0"/>
        <pt x="496" y="717" on="1"/>
        <pt x="346" y="793" on="0"/>
        <pt x="227" y="969" on="0"/>
        <pt x="227" y="1087" on="1"/>
        <pt x="227" y="1205" on="0"/>
        <pt x="345" y="1384" on="0"/>
        <pt x="557" y="1483" on="0"/>
        <pt x="688" y="1483" on="1"/>
        <pt x="787" y="1483" on="0"/>
        <pt x="949" y="1448" on="0"/>
        <pt x="1036" y="1405" on="1"/>
        <pt x="1004" y="1311" on="1"/>
        <pt x="938" y="1351" on="0"/>
        <pt x="767" y="1397" on="0"/>
        <pt x="688" y="1397" on="1"/>
        <pt x="525" y="1397" on="0"/>
        <pt x="332" y="1232" on="0"/>
        <pt x="332" y="1096" on="1"/>
        <pt x="332" y="993" on="0"/>
        <pt x="430" y="859" on="0"/>
        <pt x="563" y="793" on="1"/>
        <pt x="717" y="714" on="0"/>
        <pt x="836" y="612" on="0"/>
        <pt x="895" y="488" on="0"/>
      </contour>
    </TTGlyph>
    <TTGlyph name="Sacute" xMin="37" yMin="-20" xMax="1060" yMax="1907">
      <component glyphName="S" x="0" y="0" flags="0x204"/>
      <component glyphName="acute" x="63" y="338" flags="0x4"/>
    </TTGlyph>
    <TTGlyph name="Scaron" xMin="37" yMin="-20" xMax="1036" yMax="1907">
      <component glyphName="S" x="0" y="0" flags="0x204"/>
      <component glyphName="caron" x="-46" y="338" flags="0x4"/>
    </TTGlyph>
    <TTGlyph name="Scedilla" xMin="37" yMin="-492" xMax="1036" yMax="1483">
      <component glyphName="S" x="0" y="0" flags="0x204"/>
      <component glyphName="cedilla" x="311" y="0" flags="0x4"/>
    </TTGlyph>
    <TTGlyph name="Scircumflex" xMin="37" yMin="-20" xMax="1036" yMax="1907">
      <component glyphName="S" x="0" y="0" flags="0x204"/>
      <component glyphName="circumflex" x="0" y="338" flags="0x4"/>
    </TTGlyph>
    <TTGlyph name="Scommaaccent" xMin="37" yMin="-453" xMax="1036" yMax="1483">
      <component glyphName="S" x="0" y="0" flags="0x204"/>
      <component glyphName="commaaccent" x="27" y="0" flags="0x4"/>
    </TTGlyph>
    <TTGlyph name="Sigma" xMin="-23" yMin="0" xMax="1137" yMax="1462">
      <contour>
        <pt x="-23" y="0" on="1"/>
        <pt x="-8" y="88" on="1"/>
        <pt x="618" y="743" on="1"/>
        <pt x="281" y="1378" on="1"/>
        <pt x="297" y="1462" on="1"/>
        <pt x="1137" y="1462" on="1"/>
        <pt x="1118" y="1368" on="1"/>
        <pt x="588" y="1368" on="1"/>
        <pt x="391" y="1372" on="1"/>
        <pt x="727" y="731" on="1"/>
        <pt x="115" y="90" on="1"/>
        <pt x="266" y="94" on="1"/>
        <pt x="905" y="94" on="1"/>
        <pt x="885" y="0" on="1"/>
      </contour>
    </TTGlyph>
    <TTGlyph name="T" xMin="193" yMin="0" xMax="1186" yMax="1462">
      <contour>
        <pt x="438" y="0" on="1"/>
        <pt x="336" y="0" on="1"/>
        <pt x="625" y="1368" on="1"/>
        <pt x="193" y="1368" on="1"/>
        <pt x="213" y="1462" on="1"/>
        <pt x="1186" y="1462" on="1"/>
        <pt x="1167" y="1368" on="1"/>
        <pt x="727" y="1368" on="1"/>
      </contour>
    </TTGlyph>
    <TTGlyph name="Tau" xMin="193" yMin="0" xMax="1186" yMax="1462">
      <component glyphName="T" x="0" y="0" flags="0x204"/>
    </TTGlyph>
    <TTGlyph name="Tbar" xMin="164" yMin="0" xMax="1186" yMax="1462">
      <contour>
        <pt x="182" y="803" on="1"/>
        <pt x="506" y="803" on="1"/>
        <pt x="625" y="1368" on="1"/>
        <pt x="193" y="1368" on="1"/>
        <pt x="213" y="1462" on="1"/>
        <pt x="1186" y="1462" on="1"/>
        <pt x="1167" y="1368" on="1"/>
        <pt x="727" y="1368" on="1"/>
        <pt x="606" y="803" on="1"/>
        <pt x="938" y="803" on="1"/>
        <pt x="920" y="721" on="1"/>
        <pt x="590" y="721" on="1"/>
        <pt x="438" y="0" on="1"/>
        <pt x="336" y="0" on="1"/>
        <pt x="487" y="721" on="1"/>
        <pt x="164" y="721" on="1"/>
      </contour>
    </TTGlyph>
    <TTGlyph name="Tcaron" xMin="193" yMin="0" xMax="1186" yMax="1907">
      <component glyphName="T" x="0" y="0" flags="0x204"/>
      <component glyphName="caron" x="2" y="338" flags="0x4"/>
    </TTGlyph>
    <TTGlyph name="Tcedilla" xMin="121" yMin="-492" xMax="1186" yMax="1462">
      <component glyphName="T" x="0" y="0" flags="0x204"/>
      <component glyphName="cedilla" x="295" y="0" flags="0x4"/>
    </TTGlyph>
    <TTGlyph name="Tcommaaccent" xMin="161" yMin="-453" xMax="1186" yMax="1462">
      <component glyphName="T" x="0" y="0" flags="0x204"/>
      <component glyphName="commaaccent" x="-11" y="0" flags="0x4"/>
    </TTGlyph>
    <TTGlyph name="Theta" xMin="172" yMin="-20" xMax="1403" yMax="1483">
      <contour>
        <pt x="1087" y="793" on="1"/>
        <pt x="1069" y="696" on="1"/>
        <pt x="469" y="696" on="1"/>
        <pt x="487" y="793" on="1"/>
      </contour>
      <contour>
        <pt x="1403" y="911" on="1"/>
        <pt x="1403" y="656" on="0"/>
        <pt x="1215" y="203" on="0"/>
        <pt x="899" y="-20" on="0"/>
        <pt x="692" y="-20" on="1"/>
        <pt x="442" y="-20" on="0"/>
        <pt x="172" y="278" on="0"/>
        <pt x="172" y="559" on="1"/>
        <pt x="172" y="821" on="0"/>
        <pt x="358" y="1252" on="0"/>
        <pt x="682" y="1483" on="0"/>
        <pt x="893" y="1483" on="1"/>
        <pt x="1140" y="1483" on="0"/>
        <pt x="1403" y="1186" on="0"/>
      </contour>
      <contour>
        <pt x="879" y="1389" on="1"/>
        <pt x="705" y="1389" on="0"/>
        <pt x="436" y="1187" on="0"/>
        <pt x="276" y="793" on="0"/>
        <pt x="276" y="573" on="1"/>
        <pt x="276" y="328" on="0"/>
        <pt x="495" y="72" on="0"/>
        <pt x="705" y="72" on="1"/>
        <pt x="874" y="72" on="0"/>
        <pt x="1136" y="269" on="0"/>
        <pt x="1294" y="672" on="0"/>
        <pt x="1294" y="901" on="1"/>
        <pt x="1294" y="1141" on="0"/>
        <pt x="1085" y="1389" on="0"/>
      </contour>
    </TTGlyph>
    <TTGlyph name="Thorn" xMin="102" yMin="0" xMax="1087" yMax="1462">
      <contour>
        <pt x="1087" y="836" on="1"/>
        <pt x="1087" y="589" on="0"/>
        <pt x="781" y="336" on="0"/>
        <pt x="477" y="336" on="1"/>
        <pt x="276" y="336" on="1"/>
        <pt x="205" y="0" on="1"/>
        <pt x="102" y="0" on="1"/>
        <pt x="412" y="1462" on="1"/>
        <pt x="514" y="1462" on="1"/>
        <pt x="457" y="1196" on="1"/>
        <pt x="670" y="1196" on="1"/>
        <pt x="870" y="1196" on="0"/>
        <pt x="1087" y="1011" on="0"/>
      </contour>
      <contour>
        <pt x="293" y="428" on="1"/>
        <pt x="483" y="428" on="1"/>
        <pt x="739" y="428" on="0"/>
        <pt x="979" y="625" on="0"/>
        <pt x="979" y="829" on="1"/>
        <pt x="979" y="1104" on="0"/>
        <pt x="649" y="1104" on="1"/>
        <pt x="438" y="1104" on="1"/>
      </contour>
    </TTGlyph>
    <TTGlyph name="U" xMin="176" yMin="-20" xMax="1395" yMax="1462">
      <contour>
        <pt x="1395" y="1462" on="1"/>
        <pt x="1188" y="485" on="1"/>
        <pt x="1130" y="215" on="0"/>
        <pt x="852" y="-20" on="0"/>
        <pt x="616" y="-20" on="1"/>
        <pt x="176" y="-20" on="0"/>
        <pt x="176" y="381" on="1"/>
        <pt x="176" y="464" on="0"/>
        <pt x="203" y="582" on="1"/>
        <pt x="389" y="1462" on="1"/>
        <pt x="492" y="1462" on="1"/>
        <pt x="299" y="563" on="1"/>
        <pt x="279" y="474" on="0"/>
        <pt x="279" y="379" on="1"/>
        <pt x="279" y="70" on="0"/>
        <pt x="621" y="70" on="1"/>
        <pt x="816" y="70" on="0"/>
        <pt x="1041" y="263" on="0"/>
        <pt x="1087" y="485" on="1"/>
        <pt x="1294" y="1462" on="1"/>
      </contour>
    </TTGlyph>
    <TTGlyph name="Uacute" xMin="176" yMin="-20" xMax="1395" yMax="1907">
      <component glyphName="U" x="0" y="0" flags="0x204"/>
      <component glyphName="acute" x="258" y="338" flags="0x4"/>
    </TTGlyph>
    <TTGlyph name="Ubreve" xMin="176" yMin="-20" xMax="1395" yMax="1819">
      <component glyphName="U" x="0" y="0" flags="0x204"/>
      <component glyphName="breve" x="180" y="338" flags="0x4"/>
    </TTGlyph>
    <TTGlyph name="Ucircumflex" xMin="176" yMin="-20" xMax="1395" yMax="1907">
      <component glyphName="U" x="0" y="0" flags="0x204"/>
      <component glyphName="circumflex" x="190" y="338" flags="0x4"/>
    </TTGlyph>
    <TTGlyph name="Udieresis" xMin="176" yMin="-20" xMax="1395" yMax="1811">
      <component glyphName="U" x="0" y="0" flags="0x204"/>
      <component glyphName="dieresis" x="186" y="338" flags="0x4"/>
    </TTGlyph>
    <TTGlyph name="Ugrave" xMin="176" yMin="-20" xMax="1395" yMax="1907">
      <component glyphName="U" x="0" y="0" flags="0x204"/>
      <component glyphName="grave" x="180" y="338" flags="0x4"/>
    </TTGlyph>
    <TTGlyph name="Uhorn" xMin="176" yMin="-20" xMax="1710" yMax="1556">
      <contour>
        <pt x="1395" y="1462" on="1"/>
        <pt x="1350" y="1251" on="1"/>
        <pt x="1451" y="1280" on="0"/>
        <pt x="1570" y="1420" on="0"/>
        <pt x="1593" y="1556" on="1"/>
        <pt x="1698" y="1556" on="1"/>
        <pt x="1710" y="1538" on="1"/>
        <pt x="1675" y="1378" on="0"/>
        <pt x="1486" y="1201" on="0"/>
        <pt x="1331" y="1163" on="1"/>
        <pt x="1188" y="485" on="1"/>
        <pt x="1130" y="215" on="0"/>
        <pt x="852" y="-20" on="0"/>
        <pt x="616" y="-20" on="1"/>
        <pt x="176" y="-20" on="0"/>
        <pt x="176" y="381" on="1"/>
        <pt x="176" y="464" on="0"/>
        <pt x="203" y="582" on="1"/>
        <pt x="389" y="1462" on="1"/>
        <pt x="492" y="1462" on="1"/>
        <pt x="299" y="563" on="1"/>
        <pt x="279" y="474" on="0"/>
        <pt x="279" y="379" on="1"/>
        <pt x="279" y="70" on="0"/>
        <pt x="621" y="70" on="1"/>
        <pt x="816" y="70" on="0"/>
        <pt x="1041" y="263" on="0"/>
        <pt x="1087" y="485" on="1"/>
        <pt x="1294" y="1462" on="1"/>
      </contour>
    </TTGlyph>
    <TTGlyph name="Uhungarumlaut" xMin="176" yMin="-20" xMax="1395" yMax="1907">
      <component glyphName="U" x="0" y="0" flags="0x204"/>
      <component glyphName="hungarumlaut" x="252" y="338" flags="0x4"/>
    </TTGlyph>
    <TTGlyph name="Umacron" xMin="176" yMin="-20" xMax="1395" yMax="1671">
      <component glyphName="U" x="0" y="0" flags="0x204"/>
      <component glyphName="macron" x="229" y="338" flags="0x4"/>
    </TTGlyph>
    <TTGlyph name="Uogonek" xMin="176" yMin="-414" xMax="1395" yMax="1462">
      <component glyphName="U" x="0" y="0" flags="0x204"/>
      <component glyphName="ogonek" x="631" y="0" flags="0x4"/>
    </TTGlyph>
    <TTGlyph name="Upsilon" xMin="193" yMin="0" xMax="1155" yMax="1462">
      <component glyphName="Y" x="0" y="0" flags="0x204"/>
    </TTGlyph>
    <TTGlyph name="Upsilondieresis" xMin="193" yMin="0" xMax="1155" yMax="1811">
      <component glyphName="Y" x="0" y="0" flags="0x204"/>
      <component glyphName="dieresis" x="-40" y="338" flags="0x4"/>
    </TTGlyph>
    <TTGlyph name="Upsilontonos" xMin="89" yMin="0" xMax="1474" yMax="1558">
      <component glyphName="Y" x="319" y="0" flags="0x4"/>
      <component glyphName="tonos" x="-562" y="-105" flags="0x4"/>
    </TTGlyph>
    <TTGlyph name="Uring" xMin="176" yMin="-20" xMax="1395" yMax="1978">
      <component glyphName="U" x="0" y="0" flags="0x204"/>
      <component glyphName="ring" x="143" y="338" flags="0x4"/>
    </TTGlyph>
    <TTGlyph name="Utilde" xMin="176" yMin="-20" xMax="1395" yMax="1815">
      <component glyphName="U" x="0" y="0" flags="0x204"/>
      <component glyphName="tilde" x="238" y="338" flags="0x4"/>
    </TTGlyph>
    <TTGlyph name="V" xMin="201" yMin="0" xMax="1270" yMax="1462">
      <contour>
        <pt x="457" y="147" on="1"/>
        <pt x="508" y="258" on="0"/>
        <pt x="581" y="394" on="1"/>
        <pt x="1153" y="1462" on="1"/>
        <pt x="1270" y="1462" on="1"/>
        <pt x="471" y="0" on="1"/>
        <pt x="383" y="0" on="1"/>
        <pt x="201" y="1462" on="1"/>
        <pt x="301" y="1462" on="1"/>
        <pt x="418" y="512" on="1"/>
        <pt x="444" y="295" on="0"/>
        <pt x="453" y="147" on="1"/>
      </contour>
    </TTGlyph>
    <TTGlyph name="W" xMin="238" yMin="0" xMax="1851" yMax="1462">
      <contour>
        <pt x="1018" y="1341" on="1"/>
        <pt x="991" y="1265" on="0"/>
        <pt x="921" y="1110" on="0"/>
        <pt x="393" y="0" on="1"/>
        <pt x="311" y="0" on="1"/>
        <pt x="238" y="1462" on="1"/>
        <pt x="338" y="1462" on="1"/>
        <pt x="385" y="431" on="1"/>
        <pt x="389" y="266" on="1"/>
        <pt x="387" y="180" on="1"/>
        <pt x="393" y="180" on="1"/>
        <pt x="478" y="406" on="0"/>
        <pt x="563" y="578" on="1"/>
        <pt x="997" y="1462" on="1"/>
        <pt x="1102" y="1462" on="1"/>
        <pt x="1163" y="584" on="1"/>
        <pt x="1182" y="318" on="0"/>
        <pt x="1182" y="174" on="1"/>
        <pt x="1188" y="174" on="1"/>
        <pt x="1218" y="260" on="0"/>
        <pt x="1281" y="414" on="0"/>
        <pt x="1743" y="1462" on="1"/>
        <pt x="1851" y="1462" on="1"/>
        <pt x="1682" y="1097" on="0"/>
        <pt x="1359" y="365" on="0"/>
        <pt x="1192" y="0" on="1"/>
        <pt x="1114" y="0" on="1"/>
        <pt x="1036" y="1075" on="1"/>
        <pt x="1025" y="1217" on="0"/>
        <pt x="1025" y="1294" on="1"/>
        <pt x="1026" y="1341" on="1"/>
      </contour>
    </TTGlyph>
    <TTGlyph name="Wacute" xMin="238" yMin="0" xMax="1851" yMax="1907">
      <component glyphName="W" x="0" y="0" flags="0x204"/>
      <component glyphName="acute" x="414" y="338" flags="0x4"/>
    </TTGlyph>
    <TTGlyph name="Wcircumflex" xMin="238" yMin="0" xMax="1851" yMax="1907">
      <component glyphName="W" x="0" y="0" flags="0x204"/>
      <component glyphName="circumflex" x="352" y="338" flags="0x4"/>
    </TTGlyph>
    <TTGlyph name="Wdieresis" xMin="238" yMin="0" xMax="1851" yMax="1811">
      <component glyphName="W" x="0" y="0" flags="0x204"/>
      <component glyphName="dieresis" x="356" y="338" flags="0x4"/>
    </TTGlyph>
    <TTGlyph name="Wgrave" xMin="238" yMin="0" xMax="1851" yMax="1907">
      <component glyphName="W" x="0" y="0" flags="0x204"/>
      <component glyphName="grave" x="352" y="338" flags="0x4"/>
    </TTGlyph>
    <TTGlyph name="X" xMin="-135" yMin="0" xMax="1149" yMax="1462">
      <contour>
        <pt x="879" y="0" on="1"/>
        <pt x="772" y="0" on="1"/>
        <pt x="518" y="678" on="1"/>
        <pt x="-8" y="0" on="1"/>
        <pt x="-135" y="0" on="1"/>
        <pt x="473" y="766" on="1"/>
        <pt x="201" y="1462" on="1"/>
        <pt x="307" y="1462" on="1"/>
        <pt x="547" y="836" on="1"/>
        <pt x="1030" y="1462" on="1"/>
        <pt x="1149" y="1462" on="1"/>
        <pt x="594" y="743" on="1"/>
      </contour>
    </TTGlyph>
    <TTGlyph name="Xi" xMin="-18" yMin="0" xMax="1139" yMax="1462">
      <contour>
        <pt x="285" y="815" on="1"/>
        <pt x="911" y="815" on="1"/>
        <pt x="893" y="721" on="1"/>
        <pt x="266" y="721" on="1"/>
      </contour>
      <contour>
        <pt x="330" y="1462" on="1"/>
        <pt x="1139" y="1462" on="1"/>
        <pt x="1120" y="1368" on="1"/>
        <pt x="309" y="1368" on="1"/>
      </contour>
      <contour>
        <pt x="889" y="94" on="1"/>
        <pt x="868" y="0" on="1"/>
        <pt x="-18" y="0" on="1"/>
        <pt x="0" y="94" on="1"/>
      </contour>
    </TTGlyph>
    <TTGlyph name="Y" xMin="193" yMin="0" xMax="1155" yMax="1462">
      <contour>
        <pt x="494" y="645" on="1"/>
        <pt x="1038" y="1462" on="1"/>
        <pt x="1155" y="1462" on="1"/>
        <pt x="524" y="530" on="1"/>
        <pt x="416" y="0" on="1"/>
        <pt x="311" y="0" on="1"/>
        <pt x="430" y="545" on="1"/>
        <pt x="193" y="1462" on="1"/>
        <pt x="293" y="1462" on="1"/>
      </contour>
    </TTGlyph>
    <TTGlyph name="Yacute" xMin="193" yMin="0" xMax="1155" yMax="1907">
      <component glyphName="Y" x="0" y="0" flags="0x204"/>
      <component glyphName="acute" x="-17" y="338" flags="0x4"/>
    </TTGlyph>
    <TTGlyph name="Ycircumflex" xMin="193" yMin="0" xMax="1155" yMax="1907">
      <component glyphName="Y" x="0" y="0" flags="0x204"/>
      <component glyphName="circumflex" x="-30" y="338" flags="0x4"/>
    </TTGlyph>
    <TTGlyph name="Ydieresis" xMin="193" yMin="0" xMax="1155" yMax="1811">
      <component glyphName="Y" x="0" y="0" flags="0x204"/>
      <component glyphName="dieresis" x="-38" y="338" flags="0x4"/>
    </TTGlyph>
    <TTGlyph name="Ygrave" xMin="193" yMin="0" xMax="1155" yMax="1907">
      <component glyphName="Y" x="0" y="0" flags="0x204"/>
      <component glyphName="grave" x="-38" y="338" flags="0x4"/>
    </TTGlyph>
    <TTGlyph name="Z" xMin="-12" yMin="0" xMax="1225" yMax="1462">
      <contour>
        <pt x="913" y="0" on="1"/>
        <pt x="-12" y="0" on="1"/>
        <pt x="10" y="92" on="1"/>
        <pt x="1079" y="1368" on="1"/>
        <pt x="315" y="1368" on="1"/>
        <pt x="338" y="1462" on="1"/>
        <pt x="1225" y="1462" on="1"/>
        <pt x="1206" y="1374" on="1"/>
        <pt x="137" y="94" on="1"/>
        <pt x="936" y="94" on="1"/>
      </contour>
    </TTGlyph>
    <TTGlyph name="Zacute" xMin="-12" yMin="0" xMax="1225" yMax="1907">
      <component glyphName="Z" x="0" y="0" flags="0x204"/>
      <component glyphName="acute" x="88" y="338" flags="0x4"/>
    </TTGlyph>
    <TTGlyph name="Zcaron" xMin="-12" yMin="0" xMax="1225" yMax="1907">
      <component glyphName="Z" x="0" y="0" flags="0x204"/>
      <component glyphName="caron" x="53" y="338" flags="0x4"/>
    </TTGlyph>
    <TTGlyph name="Zdotaccent" xMin="-12" yMin="0" xMax="1225" yMax="1825">
      <component glyphName="Z" x="0" y="0" flags="0x204"/>
      <component glyphName="dotaccent" x="393" y="338" flags="0x4"/>
    </TTGlyph>
    <TTGlyph name="Zeta" xMin="-12" yMin="0" xMax="1225" yMax="1462">
      <component glyphName="Z" x="0" y="0" flags="0x204"/>
    </TTGlyph>
    <TTGlyph name="a" xMin="102" yMin="-20" xMax="1079" yMax="1104">
      <contour>
        <pt x="655" y="1104" on="1"/>
        <pt x="887" y="1104" on="0"/>
        <pt x="934" y="885" on="1"/>
        <pt x="940" y="885" on="1"/>
        <pt x="999" y="1087" on="1"/>
        <pt x="1079" y="1087" on="1"/>
        <pt x="850" y="0" on="1"/>
        <pt x="768" y="0" on="1"/>
        <pt x="813" y="274" on="1"/>
        <pt x="807" y="274" on="1"/>
        <pt x="723" y="132" on="0"/>
        <pt x="517" y="-20" on="0"/>
        <pt x="383" y="-20" on="1"/>
        <pt x="102" y="-20" on="0"/>
        <pt x="102" y="354" on="1"/>
        <pt x="102" y="551" on="0"/>
        <pt x="252" y="909" on="0"/>
        <pt x="503" y="1104" on="0"/>
      </contour>
      <contour>
        <pt x="406" y="70" on="1"/>
        <pt x="495" y="70" on="0"/>
        <pt x="672" y="194" on="0"/>
        <pt x="813" y="402" on="0"/>
        <pt x="887" y="654" on="0"/>
        <pt x="887" y="741" on="1"/>
        <pt x="887" y="820" on="0"/>
        <pt x="835" y="945" on="0"/>
        <pt x="733" y="1018" on="0"/>
        <pt x="657" y="1018" on="1"/>
        <pt x="533" y="1018" on="0"/>
        <pt x="333" y="854" on="0"/>
        <pt x="205" y="527" on="0"/>
        <pt x="205" y="365" on="1"/>
        <pt x="205" y="213" on="0"/>
        <pt x="305" y="70" on="0"/>
      </contour>
    </TTGlyph>
    <TTGlyph name="aacute" xMin="102" yMin="-20" xMax="1079" yMax="1569">
      <component glyphName="a" x="0" y="0" flags="0x204"/>
      <component glyphName="acute" x="6" y="0" flags="0x4"/>
    </TTGlyph>
    <TTGlyph name="abreve" xMin="102" yMin="-20" xMax="1079" yMax="1481">
      <component glyphName="a" x="0" y="0" flags="0x204"/>
      <component glyphName="breve" x="12" y="0" flags="0x4"/>
    </TTGlyph>
    <TTGlyph name="acircumflex" xMin="102" yMin="-20" xMax="1079" yMax="1571">
      <component glyphName="a" x="0" y="0" flags="0x204"/>
      <component glyphName="circumflex" x="-3" y="2" flags="0x4"/>
    </TTGlyph>
    <TTGlyph name="acute" xMin="580" yMin="1241" xMax="997" yMax="1569">
      <contour>
        <pt x="580" y="1262" on="1"/>
        <pt x="646" y="1313" on="0"/>
        <pt x="815" y="1495" on="0"/>
        <pt x="860" y="1569" on="1"/>
        <pt x="997" y="1569" on="1"/>
        <pt x="997" y="1546" on="1"/>
        <pt x="946" y="1480" on="0"/>
        <pt x="733" y="1295" on="0"/>
        <pt x="647" y="1241" on="1"/>
        <pt x="580" y="1241" on="1"/>
      </contour>
    </TTGlyph>
    <TTGlyph name="adieresis" xMin="102" yMin="-20" xMax="1079" yMax="1473">
      <component glyphName="a" x="0" y="0" flags="0x204"/>
      <component glyphName="dieresis" x="-1" y="0" flags="0x4"/>
    </TTGlyph>
    <TTGlyph name="ae" xMin="102" yMin="-20" xMax="1567" yMax="1104">
      <contour>
        <pt x="1155" y="-20" on="1"/>
        <pt x="1032" y="-20" on="0"/>
        <pt x="856" y="100" on="0"/>
        <pt x="827" y="205" on="1"/>
        <pt x="788" y="0" on="1"/>
        <pt x="711" y="0" on="1"/>
        <pt x="752" y="254" on="1"/>
        <pt x="743" y="254" on="1"/>
        <pt x="649" y="112" on="0"/>
        <pt x="459" y="-20" on="0"/>
        <pt x="346" y="-20" on="1"/>
        <pt x="226" y="-20" on="0"/>
        <pt x="102" y="168" on="0"/>
        <pt x="102" y="344" on="1"/>
        <pt x="102" y="550" on="0"/>
        <pt x="243" y="907" on="0"/>
        <pt x="487" y="1104" on="0"/>
        <pt x="639" y="1104" on="1"/>
        <pt x="745" y="1104" on="0"/>
        <pt x="865" y="991" on="0"/>
        <pt x="879" y="891" on="1"/>
        <pt x="889" y="891" on="1"/>
        <pt x="948" y="1083" on="1"/>
        <pt x="1014" y="1083" on="1"/>
        <pt x="979" y="897" on="1"/>
        <pt x="1118" y="1104" on="0"/>
        <pt x="1329" y="1104" on="1"/>
        <pt x="1441" y="1104" on="0"/>
        <pt x="1567" y="981" on="0"/>
        <pt x="1567" y="870" on="1"/>
        <pt x="1567" y="691" on="0"/>
        <pt x="1250" y="506" on="0"/>
        <pt x="938" y="506" on="1"/>
        <pt x="899" y="506" on="1"/>
        <pt x="891" y="455" on="0"/>
        <pt x="891" y="410" on="1"/>
        <pt x="891" y="249" on="0"/>
        <pt x="1030" y="70" on="0"/>
        <pt x="1178" y="70" on="1"/>
        <pt x="1247" y="70" on="0"/>
        <pt x="1376" y="112" on="0"/>
        <pt x="1442" y="143" on="1"/>
        <pt x="1442" y="49" on="1"/>
        <pt x="1362" y="12" on="0"/>
        <pt x="1228" y="-20" on="0"/>
      </contour>
      <contour>
        <pt x="369" y="70" on="1"/>
        <pt x="436" y="70" on="0"/>
        <pt x="579" y="154" on="0"/>
        <pt x="704" y="305" on="0"/>
        <pt x="791" y="495" on="0"/>
        <pt x="831" y="703" on="0"/>
        <pt x="831" y="764" on="1"/>
        <pt x="831" y="882" on="0"/>
        <pt x="733" y="1018" on="0"/>
        <pt x="641" y="1018" on="1"/>
        <pt x="518" y="1018" on="0"/>
        <pt x="318" y="846" on="0"/>
        <pt x="205" y="538" on="0"/>
        <pt x="205" y="352" on="1"/>
        <pt x="205" y="202" on="0"/>
        <pt x="290" y="70" on="0"/>
      </contour>
      <contour>
        <pt x="1317" y="1018" on="1"/>
        <pt x="1198" y="1018" on="0"/>
        <pt x="972" y="787" on="0"/>
        <pt x="913" y="594" on="1"/>
        <pt x="961" y="594" on="1"/>
        <pt x="1224" y="594" on="0"/>
        <pt x="1464" y="728" on="0"/>
        <pt x="1464" y="864" on="1"/>
        <pt x="1464" y="935" on="0"/>
        <pt x="1387" y="1018" on="0"/>
      </contour>
    </TTGlyph>
    <TTGlyph name="aeacute" xMin="102" yMin="-20" xMax="1567" yMax="1569">
      <component glyphName="ae" x="0" y="0" flags="0x204"/>
      <component glyphName="acute" x="389" y="0" flags="0x4"/>
    </TTGlyph>
    <TTGlyph name="afii00208" xMin="68" yMin="502" xMax="1874" yMax="592">
      <component glyphName="emdash" x="0" y="0" flags="0x204"/>
    </TTGlyph>
    <TTGlyph name="afii08941" xMin="-4" yMin="0" xMax="1192" yMax="1479">
      <contour>
        <pt x="879" y="1479" on="1"/>
        <pt x="1049" y="1479" on="0"/>
        <pt x="1192" y="1401" on="1"/>
        <pt x="1153" y="1317" on="1"/>
        <pt x="1099" y="1343" on="1"/>
        <pt x="991" y="1393" on="0"/>
        <pt x="868" y="1393" on="1"/>
        <pt x="734" y="1393" on="0"/>
        <pt x="561" y="1244" on="0"/>
        <pt x="530" y="1098" on="1"/>
        <pt x="487" y="901" on="1"/>
        <pt x="897" y="901" on="1"/>
        <pt x="879" y="819" on="1"/>
        <pt x="471" y="819" on="1"/>
        <pt x="424" y="588" on="1"/>
        <pt x="838" y="588" on="1"/>
        <pt x="819" y="506" on="1"/>
        <pt x="406" y="506" on="1"/>
        <pt x="383" y="406" on="1"/>
        <pt x="334" y="183" on="0"/>
        <pt x="195" y="94" on="1"/>
        <pt x="954" y="94" on="1"/>
        <pt x="934" y="0" on="1"/>
        <pt x="-4" y="0" on="1"/>
        <pt x="12" y="84" on="1"/>
        <pt x="107" y="95" on="0"/>
        <pt x="251" y="264" on="0"/>
        <pt x="285" y="414" on="1"/>
        <pt x="305" y="506" on="1"/>
        <pt x="115" y="506" on="1"/>
        <pt x="131" y="588" on="1"/>
        <pt x="324" y="588" on="1"/>
        <pt x="373" y="819" on="1"/>
        <pt x="174" y="819" on="1"/>
        <pt x="190" y="901" on="1"/>
        <pt x="389" y="901" on="1"/>
        <pt x="434" y="1108" on="1"/>
        <pt x="475" y="1295" on="0"/>
        <pt x="703" y="1479" on="0"/>
      </contour>
    </TTGlyph>
    <TTGlyph name="afii10017" xMin="-111" yMin="0" xMax="979" yMax="1468">
      <component glyphName="A" x="0" y="0" flags="0x204"/>
    </TTGlyph>
    <TTGlyph name="afii10018" xMin="102" yMin="0" xMax="1092" yMax="1462">
      <contour>
        <pt x="995" y="465" on="1"/>
        <pt x="995" y="243" on="0"/>
        <pt x="717" y="0" on="0"/>
        <pt x="465" y="0" on="1"/>
        <pt x="102" y="0" on="1"/>
        <pt x="412" y="1462" on="1"/>
        <pt x="1092" y="1462" on="1"/>
        <pt x="1071" y="1368" on="1"/>
        <pt x="496" y="1368" on="1"/>
        <pt x="377" y="811" on="1"/>
        <pt x="608" y="811" on="1"/>
        <pt x="795" y="811" on="0"/>
        <pt x="995" y="632" on="0"/>
      </contour>
      <contour>
        <pt x="358" y="721" on="1"/>
        <pt x="223" y="90" on="1"/>
        <pt x="463" y="90" on="1"/>
        <pt x="667" y="90" on="0"/>
        <pt x="889" y="274" on="0"/>
        <pt x="889" y="459" on="1"/>
        <pt x="889" y="593" on="0"/>
        <pt x="740" y="721" on="0"/>
        <pt x="590" y="721" on="1"/>
      </contour>
    </TTGlyph>
    <TTGlyph name="afii10019" xMin="102" yMin="0" xMax="1182" yMax="1462">
      <component glyphName="B" x="0" y="0" flags="0x204"/>
    </TTGlyph>
    <TTGlyph name="afii10020" xMin="102" yMin="0" xMax="1120" yMax="1462">
      <component glyphName="Gamma" x="0" y="0" flags="0x204"/>
    </TTGlyph>
    <TTGlyph name="afii10021" xMin="-164" yMin="-356" xMax="1229" yMax="1462">
      <contour>
        <pt x="1108" y="94" on="1"/>
        <pt x="1010" y="-356" on="1"/>
        <pt x="905" y="-356" on="1"/>
        <pt x="985" y="0" on="1"/>
        <pt x="18" y="0" on="1"/>
        <pt x="-63" y="-356" on="1"/>
        <pt x="-164" y="-356" on="1"/>
        <pt x="-59" y="94" on="1"/>
        <pt x="20" y="94" on="1"/>
        <pt x="198" y="301" on="0"/>
        <pt x="536" y="998" on="0"/>
        <pt x="690" y="1462" on="1"/>
        <pt x="1229" y="1462" on="1"/>
        <pt x="938" y="94" on="1"/>
      </contour>
      <contour>
        <pt x="762" y="1368" on="1"/>
        <pt x="616" y="933" on="0"/>
        <pt x="291" y="272" on="0"/>
        <pt x="139" y="94" on="1"/>
        <pt x="836" y="94" on="1"/>
        <pt x="1106" y="1368" on="1"/>
      </contour>
    </TTGlyph>
    <TTGlyph name="afii10022" xMin="102" yMin="0" xMax="1139" yMax="1462">
      <component glyphName="E" x="0" y="0" flags="0x204"/>
    </TTGlyph>
    <TTGlyph name="afii10023" xMin="102" yMin="0" xMax="1139" yMax="1811">
      <component glyphName="E" x="0" y="0" flags="0x204"/>
      <component glyphName="dieresis" x="66" y="338" flags="0x4"/>
    </TTGlyph>
    <TTGlyph name="afii10024" xMin="-88" yMin="0" xMax="1686" yMax="1462">
      <contour>
        <pt x="641" y="760" on="1"/>
        <pt x="217" y="1462" on="1"/>
        <pt x="342" y="1462" on="1"/>
        <pt x="756" y="758" on="1"/>
        <pt x="903" y="1462" on="1"/>
        <pt x="1006" y="1462" on="1"/>
        <pt x="854" y="756" on="1"/>
        <pt x="1546" y="1462" on="1"/>
        <pt x="1686" y="1462" on="1"/>
        <pt x="969" y="737" on="1"/>
        <pt x="1403" y="0" on="1"/>
        <pt x="1280" y="0" on="1"/>
        <pt x="850" y="737" on="1"/>
        <pt x="696" y="0" on="1"/>
        <pt x="594" y="0" on="1"/>
        <pt x="752" y="739" on="1"/>
        <pt x="53" y="0" on="1"/>
        <pt x="-88" y="0" on="1"/>
      </contour>
    </TTGlyph>
    <TTGlyph name="afii10025" xMin="-31" yMin="-20" xMax="987" yMax="1483">
      <contour>
        <pt x="987" y="1169" on="1"/>
        <pt x="987" y="1009" on="0"/>
        <pt x="805" y="802" on="0"/>
        <pt x="629" y="760" on="1"/>
        <pt x="629" y="756" on="1"/>
        <pt x="759" y="733" on="0"/>
        <pt x="897" y="558" on="0"/>
        <pt x="897" y="418" on="1"/>
        <pt x="897" y="288" on="0"/>
        <pt x="762" y="83" on="0"/>
        <pt x="523" y="-20" on="0"/>
        <pt x="358" y="-20" on="1"/>
        <pt x="147" y="-20" on="0"/>
        <pt x="-31" y="59" on="1"/>
        <pt x="-31" y="176" on="1"/>
        <pt x="152" y="70" on="0"/>
        <pt x="371" y="70" on="1"/>
        <pt x="575" y="70" on="0"/>
        <pt x="795" y="257" on="0"/>
        <pt x="795" y="424" on="1"/>
        <pt x="795" y="711" on="0"/>
        <pt x="422" y="711" on="1"/>
        <pt x="240" y="711" on="1"/>
        <pt x="258" y="807" on="1"/>
        <pt x="436" y="807" on="1"/>
        <pt x="567" y="807" on="0"/>
        <pt x="779" y="897" on="0"/>
        <pt x="883" y="1054" on="0"/>
        <pt x="883" y="1159" on="1"/>
        <pt x="883" y="1273" on="0"/>
        <pt x="749" y="1397" on="0"/>
        <pt x="625" y="1397" on="1"/>
        <pt x="457" y="1397" on="0"/>
        <pt x="285" y="1278" on="1"/>
        <pt x="231" y="1354" on="1"/>
        <pt x="421" y="1483" on="0"/>
        <pt x="637" y="1483" on="1"/>
        <pt x="802" y="1483" on="0"/>
        <pt x="987" y="1319" on="0"/>
      </contour>
    </TTGlyph>
    <TTGlyph name="afii10026" xMin="102" yMin="0" xMax="1378" yMax="1462">
      <contour>
        <pt x="412" y="1462" on="1"/>
        <pt x="514" y="1462" on="1"/>
        <pt x="328" y="584" on="1"/>
        <pt x="249" y="238" on="0"/>
        <pt x="233" y="178" on="1"/>
        <pt x="1268" y="1462" on="1"/>
        <pt x="1378" y="1462" on="1"/>
        <pt x="1069" y="0" on="1"/>
        <pt x="969" y="0" on="1"/>
        <pt x="1089" y="569" on="0"/>
        <pt x="1218" y="1183" on="0"/>
        <pt x="1253" y="1307" on="1"/>
        <pt x="203" y="0" on="1"/>
        <pt x="102" y="0" on="1"/>
      </contour>
    </TTGlyph>
    <TTGlyph name="afii10027" xMin="102" yMin="0" xMax="1378" yMax="1866">
      <component glyphName="afii10026" x="0" y="0" flags="0x204"/>
      <component glyphName="cyrillicbreve" x="266" y="338" flags="0x4"/>
    </TTGlyph>
    <TTGlyph name="afii10028" xMin="102" yMin="0" xMax="1286" yMax="1462">
      <contour>
        <pt x="1040" y="0" on="1"/>
        <pt x="911" y="0" on="1"/>
        <pt x="356" y="729" on="1"/>
        <pt x="205" y="0" on="1"/>
        <pt x="102" y="0" on="1"/>
        <pt x="412" y="1462" on="1"/>
        <pt x="514" y="1462" on="1"/>
        <pt x="356" y="735" on="1"/>
        <pt x="1143" y="1462" on="1"/>
        <pt x="1286" y="1462" on="1"/>
        <pt x="477" y="729" on="1"/>
      </contour>
    </TTGlyph>
    <TTGlyph name="afii10029" xMin="-84" yMin="-23" xMax="1274" yMax="1462">
      <contour>
        <pt x="719" y="1368" on="1"/>
        <pt x="679" y="1231" on="1"/>
        <pt x="547" y="779" on="0"/>
        <pt x="377" y="271" on="0"/>
        <pt x="263" y="70" on="0"/>
        <pt x="119" y="-23" on="0"/>
        <pt x="18" y="-23" on="1"/>
        <pt x="-36" y="-23" on="0"/>
        <pt x="-84" y="-6" on="1"/>
        <pt x="-84" y="90" on="1"/>
        <pt x="-39" y="74" on="0"/>
        <pt x="18" y="74" on="1"/>
        <pt x="96" y="74" on="0"/>
        <pt x="205" y="162" on="0"/>
        <pt x="304" y="361" on="0"/>
        <pt x="487" y="928" on="0"/>
        <pt x="641" y="1462" on="1"/>
        <pt x="1274" y="1462" on="1"/>
        <pt x="965" y="0" on="1"/>
        <pt x="864" y="0" on="1"/>
        <pt x="1153" y="1368" on="1"/>
      </contour>
    </TTGlyph>
    <TTGlyph name="afii10030" xMin="109" yMin="0" xMax="1655" yMax="1462">
      <component glyphName="M" x="0" y="0" flags="0x204"/>
    </TTGlyph>
    <TTGlyph name="afii10031" xMin="102" yMin="0" xMax="1372" yMax="1462">
      <component glyphName="H" x="0" y="0" flags="0x204"/>
    </TTGlyph>
    <TTGlyph name="afii10032" xMin="172" yMin="-20" xMax="1403" yMax="1483">
      <component glyphName="O" x="0" y="0" flags="0x204"/>
    </TTGlyph>
    <TTGlyph name="afii10033" xMin="102" yMin="0" xMax="1372" yMax="1462">
      <component glyphName="Pi" x="0" y="0" flags="0x204"/>
    </TTGlyph>
    <TTGlyph name="afii10034" xMin="102" yMin="0" xMax="1145" yMax="1462">
      <component glyphName="P" x="0" y="0" flags="0x204"/>
    </TTGlyph>
    <TTGlyph name="afii10035" xMin="170" yMin="-20" xMax="1268" yMax="1483">
      <component glyphName="C" x="0" y="0" flags="0x204"/>
    </TTGlyph>
    <TTGlyph name="afii10036" xMin="193" yMin="0" xMax="1186" yMax="1462">
      <component glyphName="T" x="0" y="0" flags="0x204"/>
    </TTGlyph>
    <TTGlyph name="afii10037" xMin="-23" yMin="-20" xMax="1333" yMax="1462">
      <contour>
        <pt x="133" y="-20" on="1"/>
        <pt x="40" y="-20" on="0"/>
        <pt x="-23" y="10" on="1"/>
        <pt x="-23" y="121" on="1"/>
        <pt x="44" y="84" on="0"/>
        <pt x="139" y="84" on="1"/>
        <pt x="250" y="84" on="0"/>
        <pt x="434" y="227" on="0"/>
        <pt x="551" y="420" on="1"/>
        <pt x="233" y="1462" on="1"/>
        <pt x="338" y="1462" on="1"/>
        <pt x="532" y="811" on="1"/>
        <pt x="545" y="770" on="0"/>
        <pt x="621" y="492" on="1"/>
        <pt x="654" y="553" on="0"/>
        <pt x="765" y="743" on="0"/>
        <pt x="1217" y="1462" on="1"/>
        <pt x="1333" y="1462" on="1"/>
        <pt x="610" y="322" on="1"/>
        <pt x="498" y="142" on="0"/>
        <pt x="275" y="-20" on="0"/>
      </contour>
    </TTGlyph>
    <TTGlyph name="afii10038" xMin="156" yMin="-20" xMax="1393" yMax="1483">
      <component glyphName="Phi" x="0" y="0" flags="0x204"/>
    </TTGlyph>
    <TTGlyph name="afii10039" xMin="-135" yMin="0" xMax="1149" yMax="1462">
      <component glyphName="X" x="0" y="0" flags="0x204"/>
    </TTGlyph>
    <TTGlyph name="afii10040" xMin="102" yMin="-356" xMax="1372" yMax="1462">
      <contour>
        <pt x="1272" y="1462" on="1"/>
        <pt x="1372" y="1462" on="1"/>
        <pt x="1083" y="94" on="1"/>
        <pt x="1251" y="94" on="1"/>
        <pt x="1153" y="-356" on="1"/>
        <pt x="1049" y="-356" on="1"/>
        <pt x="1128" y="0" on="1"/>
        <pt x="102" y="0" on="1"/>
        <pt x="412" y="1462" on="1"/>
        <pt x="512" y="1462" on="1"/>
        <pt x="223" y="94" on="1"/>
        <pt x="981" y="94" on="1"/>
      </contour>
    </TTGlyph>
    <TTGlyph name="afii10041" xMin="205" yMin="0" xMax="1198" yMax="1462">
      <contour>
        <pt x="788" y="0" on="1"/>
        <pt x="920" y="621" on="1"/>
        <pt x="701" y="530" on="0"/>
        <pt x="512" y="530" on="1"/>
        <pt x="366" y="530" on="0"/>
        <pt x="205" y="669" on="0"/>
        <pt x="205" y="801" on="1"/>
        <pt x="205" y="865" on="0"/>
        <pt x="227" y="965" on="1"/>
        <pt x="332" y="1462" on="1"/>
        <pt x="434" y="1462" on="1"/>
        <pt x="332" y="979" on="1"/>
        <pt x="307" y="863" on="0"/>
        <pt x="307" y="807" on="1"/>
        <pt x="307" y="715" on="0"/>
        <pt x="421" y="621" on="0"/>
        <pt x="526" y="621" on="1"/>
        <pt x="721" y="621" on="0"/>
        <pt x="938" y="711" on="1"/>
        <pt x="1098" y="1462" on="1"/>
        <pt x="1198" y="1462" on="1"/>
        <pt x="889" y="0" on="1"/>
      </contour>
    </TTGlyph>
    <TTGlyph name="afii10042" xMin="102" yMin="0" xMax="1919" yMax="1462">
      <contour>
        <pt x="102" y="0" on="1"/>
        <pt x="412" y="1462" on="1"/>
        <pt x="512" y="1462" on="1"/>
        <pt x="223" y="94" on="1"/>
        <pt x="823" y="94" on="1"/>
        <pt x="1114" y="1462" on="1"/>
        <pt x="1214" y="1462" on="1"/>
        <pt x="926" y="94" on="1"/>
        <pt x="1528" y="94" on="1"/>
        <pt x="1819" y="1462" on="1"/>
        <pt x="1919" y="1462" on="1"/>
        <pt x="1610" y="0" on="1"/>
      </contour>
    </TTGlyph>
    <TTGlyph name="afii10043" xMin="102" yMin="-356" xMax="1919" yMax="1462">
      <contour>
        <pt x="1798" y="94" on="1"/>
        <pt x="1700" y="-356" on="1"/>
        <pt x="1595" y="-356" on="1"/>
        <pt x="1675" y="0" on="1"/>
        <pt x="102" y="0" on="1"/>
        <pt x="412" y="1462" on="1"/>
        <pt x="512" y="1462" on="1"/>
        <pt x="223" y="94" on="1"/>
        <pt x="823" y="94" on="1"/>
        <pt x="1114" y="1462" on="1"/>
        <pt x="1214" y="1462" on="1"/>
        <pt x="926" y="94" on="1"/>
        <pt x="1528" y="94" on="1"/>
        <pt x="1819" y="1462" on="1"/>
        <pt x="1919" y="1462" on="1"/>
        <pt x="1630" y="94" on="1"/>
      </contour>
    </TTGlyph>
    <TTGlyph name="afii10044" xMin="193" yMin="0" xMax="1139" yMax="1462">
      <contour>
        <pt x="1139" y="465" on="1"/>
        <pt x="1139" y="242" on="0"/>
        <pt x="859" y="0" on="0"/>
        <pt x="608" y="0" on="1"/>
        <pt x="246" y="0" on="1"/>
        <pt x="535" y="1368" on="1"/>
        <pt x="193" y="1368" on="1"/>
        <pt x="213" y="1462" on="1"/>
        <pt x="659" y="1462" on="1"/>
        <pt x="520" y="811" on="1"/>
        <pt x="752" y="811" on="1"/>
        <pt x="939" y="811" on="0"/>
        <pt x="1139" y="632" on="0"/>
      </contour>
      <contour>
        <pt x="502" y="721" on="1"/>
        <pt x="367" y="90" on="1"/>
        <pt x="606" y="90" on="1"/>
        <pt x="811" y="90" on="0"/>
        <pt x="1032" y="274" on="0"/>
        <pt x="1032" y="459" on="1"/>
        <pt x="1032" y="593" on="0"/>
        <pt x="883" y="721" on="0"/>
        <pt x="733" y="721" on="1"/>
      </contour>
    </TTGlyph>
    <TTGlyph name="afii10045" xMin="102" yMin="0" xMax="1552" yMax="1462">
      <contour>
        <pt x="995" y="465" on="1"/>
        <pt x="995" y="243" on="0"/>
        <pt x="717" y="0" on="0"/>
        <pt x="465" y="0" on="1"/>
        <pt x="102" y="0" on="1"/>
        <pt x="412" y="1462" on="1"/>
        <pt x="516" y="1462" on="1"/>
        <pt x="377" y="811" on="1"/>
        <pt x="608" y="811" on="1"/>
        <pt x="795" y="811" on="0"/>
        <pt x="995" y="632" on="0"/>
      </contour>
      <contour>
        <pt x="358" y="721" on="1"/>
        <pt x="223" y="90" on="1"/>
        <pt x="463" y="90" on="1"/>
        <pt x="667" y="90" on="0"/>
        <pt x="889" y="274" on="0"/>
        <pt x="889" y="459" on="1"/>
        <pt x="889" y="593" on="0"/>
        <pt x="740" y="721" on="0"/>
        <pt x="590" y="721" on="1"/>
      </contour>
      <contour>
        <pt x="1243" y="0" on="1"/>
        <pt x="1141" y="0" on="1"/>
        <pt x="1450" y="1462" on="1"/>
        <pt x="1552" y="1462" on="1"/>
      </contour>
    </TTGlyph>
    <TTGlyph name="afii10046" xMin="102" yMin="0" xMax="995" yMax="1462">
      <contour>
        <pt x="995" y="465" on="1"/>
        <pt x="995" y="243" on="0"/>
        <pt x="717" y="0" on="0"/>
        <pt x="465" y="0" on="1"/>
        <pt x="102" y="0" on="1"/>
        <pt x="412" y="1462" on="1"/>
        <pt x="516" y="1462" on="1"/>
        <pt x="377" y="811" on="1"/>
        <pt x="608" y="811" on="1"/>
        <pt x="795" y="811" on="0"/>
        <pt x="995" y="632" on="0"/>
      </contour>
      <contour>
        <pt x="358" y="721" on="1"/>
        <pt x="223" y="90" on="1"/>
        <pt x="463" y="90" on="1"/>
        <pt x="667" y="90" on="0"/>
        <pt x="889" y="274" on="0"/>
        <pt x="889" y="459" on="1"/>
        <pt x="889" y="593" on="0"/>
        <pt x="740" y="721" on="0"/>
        <pt x="590" y="721" on="1"/>
      </contour>
    </TTGlyph>
    <TTGlyph name="afii10047" xMin="14" yMin="-20" xMax="1102" yMax="1483">
      <contour>
        <pt x="365" y="72" on="1"/>
        <pt x="619" y="72" on="0"/>
        <pt x="932" y="408" on="0"/>
        <pt x="981" y="733" on="1"/>
        <pt x="315" y="733" on="1"/>
        <pt x="332" y="829" on="1"/>
        <pt x="991" y="829" on="1"/>
        <pt x="993" y="901" on="1"/>
        <pt x="993" y="1140" on="0"/>
        <pt x="782" y="1389" on="0"/>
        <pt x="578" y="1389" on="1"/>
        <pt x="450" y="1389" on="0"/>
        <pt x="272" y="1325" on="1"/>
        <pt x="246" y="1419" on="1"/>
        <pt x="360" y="1457" on="0"/>
        <pt x="523" y="1483" on="0"/>
        <pt x="592" y="1483" on="1"/>
        <pt x="842" y="1483" on="0"/>
        <pt x="1102" y="1186" on="0"/>
        <pt x="1102" y="911" on="1"/>
        <pt x="1102" y="639" on="0"/>
        <pt x="911" y="199" on="0"/>
        <pt x="583" y="-20" on="0"/>
        <pt x="365" y="-20" on="1"/>
        <pt x="159" y="-20" on="0"/>
        <pt x="14" y="55" on="1"/>
        <pt x="14" y="164" on="1"/>
        <pt x="198" y="72" on="0"/>
      </contour>
    </TTGlyph>
    <TTGlyph name="afii10048" xMin="102" yMin="-20" xMax="1964" yMax="1483">
      <contour>
        <pt x="1964" y="911" on="1"/>
        <pt x="1964" y="666" on="0"/>
        <pt x="1788" y="217" on="0"/>
        <pt x="1468" y="-20" on="0"/>
        <pt x="1253" y="-20" on="1"/>
        <pt x="1003" y="-20" on="0"/>
        <pt x="733" y="278" on="0"/>
        <pt x="733" y="559" on="1"/>
        <pt x="733" y="655" on="0"/>
        <pt x="741" y="719" on="1"/>
        <pt x="354" y="719" on="1"/>
        <pt x="205" y="0" on="1"/>
        <pt x="102" y="0" on="1"/>
        <pt x="412" y="1462" on="1"/>
        <pt x="514" y="1462" on="1"/>
        <pt x="375" y="813" on="1"/>
        <pt x="758" y="813" on="1"/>
        <pt x="798" y="1016" on="0"/>
        <pt x="991" y="1319" on="0"/>
        <pt x="1279" y="1483" on="0"/>
        <pt x="1454" y="1483" on="1"/>
        <pt x="1701" y="1483" on="0"/>
        <pt x="1964" y="1186" on="0"/>
      </contour>
      <contour>
        <pt x="1440" y="1389" on="1"/>
        <pt x="1267" y="1389" on="0"/>
        <pt x="998" y="1188" on="0"/>
        <pt x="838" y="791" on="0"/>
        <pt x="838" y="573" on="1"/>
        <pt x="838" y="328" on="0"/>
        <pt x="1057" y="72" on="0"/>
        <pt x="1266" y="72" on="1"/>
        <pt x="1435" y="72" on="0"/>
        <pt x="1697" y="269" on="0"/>
        <pt x="1855" y="672" on="0"/>
        <pt x="1855" y="901" on="1"/>
        <pt x="1855" y="1141" on="0"/>
        <pt x="1646" y="1389" on="0"/>
      </contour>
    </TTGlyph>
    <TTGlyph name="afii10049" xMin="-51" yMin="0" xMax="1133" yMax="1462">
      <contour>
        <pt x="588" y="635" on="1"/>
        <pt x="74" y="0" on="1"/>
        <pt x="-51" y="0" on="1"/>
        <pt x="481" y="662" on="1"/>
        <pt x="376" y="702" on="0"/>
        <pt x="256" y="887" on="0"/>
        <pt x="256" y="1006" on="1"/>
        <pt x="256" y="1225" on="0"/>
        <pt x="542" y="1462" on="0"/>
        <pt x="801" y="1462" on="1"/>
        <pt x="1133" y="1462" on="1"/>
        <pt x="823" y="0" on="1"/>
        <pt x="721" y="0" on="1"/>
        <pt x="854" y="635" on="1"/>
      </contour>
      <contour>
        <pt x="1012" y="1370" on="1"/>
        <pt x="815" y="1370" on="1"/>
        <pt x="586" y="1370" on="0"/>
        <pt x="358" y="1187" on="0"/>
        <pt x="358" y="1012" on="1"/>
        <pt x="358" y="879" on="0"/>
        <pt x="522" y="725" on="0"/>
        <pt x="670" y="725" on="1"/>
        <pt x="874" y="725" on="1"/>
      </contour>
    </TTGlyph>
    <TTGlyph name="afii10050" xMin="102" yMin="0" xMax="1184" yMax="1755">
      <contour>
        <pt x="1014" y="1462" on="1"/>
        <pt x="1079" y="1755" on="1"/>
        <pt x="1184" y="1755" on="1"/>
        <pt x="1098" y="1368" on="1"/>
        <pt x="496" y="1368" on="1"/>
        <pt x="205" y="0" on="1"/>
        <pt x="102" y="0" on="1"/>
        <pt x="412" y="1462" on="1"/>
      </contour>
    </TTGlyph>
    <TTGlyph name="afii10051" xMin="197" yMin="-14" xMax="1135" yMax="1462">
      <contour>
        <pt x="731" y="-14" on="1"/>
        <pt x="672" y="-14" on="0"/>
        <pt x="602" y="0" on="1"/>
        <pt x="602" y="98" on="1"/>
        <pt x="616" y="95" on="0"/>
        <pt x="685" y="80" on="0"/>
        <pt x="731" y="80" on="1"/>
        <pt x="852" y="80" on="0"/>
        <pt x="977" y="200" on="0"/>
        <pt x="1004" y="350" on="1"/>
        <pt x="1020" y="440" on="1"/>
        <pt x="1032" y="504" on="0"/>
        <pt x="1032" y="573" on="1"/>
        <pt x="1032" y="682" on="0"/>
        <pt x="913" y="782" on="0"/>
        <pt x="782" y="782" on="1"/>
        <pt x="481" y="782" on="1"/>
        <pt x="317" y="0" on="1"/>
        <pt x="215" y="0" on="1"/>
        <pt x="504" y="1368" on="1"/>
        <pt x="197" y="1368" on="1"/>
        <pt x="217" y="1462" on="1"/>
        <pt x="1067" y="1462" on="1"/>
        <pt x="1049" y="1368" on="1"/>
        <pt x="606" y="1368" on="1"/>
        <pt x="500" y="872" on="1"/>
        <pt x="805" y="872" on="1"/>
        <pt x="972" y="872" on="0"/>
        <pt x="1135" y="719" on="0"/>
        <pt x="1135" y="584" on="1"/>
        <pt x="1135" y="509" on="0"/>
        <pt x="1120" y="436" on="1"/>
        <pt x="1096" y="307" on="1"/>
        <pt x="1064" y="143" on="0"/>
        <pt x="888" y="-14" on="0"/>
      </contour>
    </TTGlyph>
    <TTGlyph name="afii10052" xMin="102" yMin="0" xMax="1120" yMax="1907">
      <component glyphName="Gamma" x="0" y="0" flags="0x204"/>
      <component glyphName="acute" x="84" y="338" flags="0x4"/>
    </TTGlyph>
    <TTGlyph name="afii10053" xMin="170" yMin="-20" xMax="1268" yMax="1483">
      <contour>
        <pt x="961" y="1389" on="1"/>
        <pt x="720" y="1389" on="0"/>
        <pt x="380" y="1087" on="0"/>
        <pt x="311" y="823" on="1"/>
        <pt x="987" y="823" on="1"/>
        <pt x="969" y="729" on="1"/>
        <pt x="291" y="729" on="1"/>
        <pt x="274" y="644" on="0"/>
        <pt x="274" y="539" on="1"/>
        <pt x="274" y="313" on="0"/>
        <pt x="497" y="72" on="0"/>
        <pt x="702" y="72" on="1"/>
        <pt x="842" y="72" on="0"/>
        <pt x="1006" y="123" on="1"/>
        <pt x="1006" y="29" on="1"/>
        <pt x="850" y="-20" on="0"/>
        <pt x="690" y="-20" on="1"/>
        <pt x="438" y="-20" on="0"/>
        <pt x="170" y="266" on="0"/>
        <pt x="170" y="535" on="1"/>
        <pt x="170" y="793" on="0"/>
        <pt x="372" y="1235" on="0"/>
        <pt x="731" y="1483" on="0"/>
        <pt x="961" y="1483" on="1"/>
        <pt x="1138" y="1483" on="0"/>
        <pt x="1268" y="1415" on="1"/>
        <pt x="1223" y="1325" on="1"/>
        <pt x="1110" y="1389" on="0"/>
      </contour>
    </TTGlyph>
    <TTGlyph name="afii10054" xMin="37" yMin="-20" xMax="1036" yMax="1483">
      <component glyphName="S" x="0" y="0" flags="0x204"/>
    </TTGlyph>
    <TTGlyph name="afii10055" xMin="102" yMin="0" xMax="510" yMax="1462">
      <component glyphName="I" x="0" y="0" flags="0x204"/>
    </TTGlyph>
    <TTGlyph name="afii10055.alt" xMin="-37" yMin="0" xMax="690" yMax="1462">
      <component glyphName="I.alt" x="0" y="0" flags="0x204"/>
    </TTGlyph>
    <TTGlyph name="afii10056" xMin="102" yMin="0" xMax="735" yMax="1811">
      <component glyphName="I" x="0" y="0" flags="0x204"/>
      <component glyphName="dieresis" x="-232" y="338" flags="0x4"/>
    </TTGlyph>
    <TTGlyph name="afii10056.alt" xMin="-37" yMin="0" xMax="765" yMax="1811">
      <component glyphName="I.alt" x="0" y="0" flags="0x204"/>
      <component glyphName="dieresis" x="-202" y="338" flags="0x4"/>
    </TTGlyph>
    <TTGlyph name="afii10057" xMin="-324" yMin="-360" xMax="500" yMax="1462">
      <component glyphName="J" x="0" y="0" flags="0x204"/>
    </TTGlyph>
    <TTGlyph name="afii10058" xMin="-84" yMin="-23" xMax="1694" yMax="1462">
      <contour>
        <pt x="1694" y="465" on="1"/>
        <pt x="1694" y="242" on="0"/>
        <pt x="1414" y="0" on="0"/>
        <pt x="1163" y="0" on="1"/>
        <pt x="801" y="0" on="1"/>
        <pt x="1090" y="1368" on="1"/>
        <pt x="719" y="1368" on="1"/>
        <pt x="679" y="1231" on="1"/>
        <pt x="547" y="779" on="0"/>
        <pt x="377" y="271" on="0"/>
        <pt x="263" y="70" on="0"/>
        <pt x="119" y="-23" on="0"/>
        <pt x="18" y="-23" on="1"/>
        <pt x="-36" y="-23" on="0"/>
        <pt x="-84" y="-6" on="1"/>
        <pt x="-84" y="90" on="1"/>
        <pt x="-39" y="74" on="0"/>
        <pt x="18" y="74" on="1"/>
        <pt x="96" y="74" on="0"/>
        <pt x="205" y="162" on="0"/>
        <pt x="304" y="361" on="0"/>
        <pt x="487" y="928" on="0"/>
        <pt x="641" y="1462" on="1"/>
        <pt x="1214" y="1462" on="1"/>
        <pt x="1075" y="811" on="1"/>
        <pt x="1307" y="811" on="1"/>
        <pt x="1494" y="811" on="0"/>
        <pt x="1694" y="632" on="0"/>
      </contour>
      <contour>
        <pt x="1057" y="721" on="1"/>
        <pt x="922" y="90" on="1"/>
        <pt x="1161" y="90" on="1"/>
        <pt x="1366" y="90" on="0"/>
        <pt x="1587" y="274" on="0"/>
        <pt x="1587" y="459" on="1"/>
        <pt x="1587" y="593" on="0"/>
        <pt x="1438" y="721" on="0"/>
        <pt x="1288" y="721" on="1"/>
      </contour>
    </TTGlyph>
    <TTGlyph name="afii10059" xMin="102" yMin="0" xMax="1772" yMax="1462">
      <contour>
        <pt x="1772" y="465" on="1"/>
        <pt x="1772" y="242" on="0"/>
        <pt x="1492" y="0" on="0"/>
        <pt x="1241" y="0" on="1"/>
        <pt x="879" y="0" on="1"/>
        <pt x="1030" y="719" on="1"/>
        <pt x="354" y="719" on="1"/>
        <pt x="205" y="0" on="1"/>
        <pt x="102" y="0" on="1"/>
        <pt x="412" y="1462" on="1"/>
        <pt x="514" y="1462" on="1"/>
        <pt x="375" y="813" on="1"/>
        <pt x="1051" y="813" on="1"/>
        <pt x="1188" y="1462" on="1"/>
        <pt x="1292" y="1462" on="1"/>
        <pt x="1153" y="813" on="1"/>
        <pt x="1384" y="813" on="1"/>
        <pt x="1570" y="813" on="0"/>
        <pt x="1772" y="632" on="0"/>
      </contour>
      <contour>
        <pt x="1135" y="719" on="1"/>
        <pt x="999" y="90" on="1"/>
        <pt x="1239" y="90" on="1"/>
        <pt x="1443" y="90" on="0"/>
        <pt x="1665" y="274" on="0"/>
        <pt x="1665" y="459" on="1"/>
        <pt x="1665" y="591" on="0"/>
        <pt x="1518" y="719" on="0"/>
        <pt x="1366" y="719" on="1"/>
      </contour>
    </TTGlyph>
    <TTGlyph name="afii10060" xMin="197" yMin="0" xMax="1137" yMax="1462">
      <contour>
        <pt x="924" y="0" on="1"/>
        <pt x="1008" y="379" on="1"/>
        <pt x="1036" y="496" on="0"/>
        <pt x="1036" y="563" on="1"/>
        <pt x="1036" y="678" on="0"/>
        <pt x="917" y="782" on="0"/>
        <pt x="782" y="782" on="1"/>
        <pt x="481" y="782" on="1"/>
        <pt x="317" y="0" on="1"/>
        <pt x="215" y="0" on="1"/>
        <pt x="504" y="1368" on="1"/>
        <pt x="197" y="1368" on="1"/>
        <pt x="217" y="1462" on="1"/>
        <pt x="1067" y="1462" on="1"/>
        <pt x="1049" y="1368" on="1"/>
        <pt x="606" y="1368" on="1"/>
        <pt x="500" y="872" on="1"/>
        <pt x="805" y="872" on="1"/>
        <pt x="1137" y="872" on="0"/>
        <pt x="1137" y="578" on="1"/>
        <pt x="1137" y="537" on="0"/>
        <pt x="1124" y="454" on="0"/>
        <pt x="1022" y="0" on="1"/>
      </contour>
    </TTGlyph>
    <TTGlyph name="afii10061" xMin="102" yMin="0" xMax="1286" yMax="1907">
      <component glyphName="afii10028" x="0" y="0" flags="0x204"/>
      <component glyphName="acute" x="141" y="338" flags="0x4"/>
    </TTGlyph>
    <TTGlyph name="afii10062" xMin="-23" yMin="-20" xMax="1333" yMax="1866">
      <component glyphName="afii10037" x="0" y="0" flags="0x204"/>
      <component glyphName="cyrillicbreve" x="141" y="338" flags="0x4"/>
    </TTGlyph>
    <TTGlyph name="afii10065" xMin="102" yMin="-20" xMax="1079" yMax="1104">
      <component glyphName="a" x="0" y="0" flags="0x204"/>
    </TTGlyph>
    <TTGlyph name="afii10066" xMin="98" yMin="-20" xMax="1108" yMax="1554">
      <contour>
        <pt x="98" y="434" on="1"/>
        <pt x="98" y="674" on="0"/>
        <pt x="233" y="1125" on="0"/>
        <pt x="455" y="1400" on="0"/>
        <pt x="596" y="1446" on="1"/>
        <pt x="689" y="1476" on="0"/>
        <pt x="1021" y="1543" on="0"/>
        <pt x="1096" y="1554" on="1"/>
        <pt x="1108" y="1468" on="1"/>
        <pt x="1045" y="1456" on="1"/>
        <pt x="739" y="1399" on="0"/>
        <pt x="616" y="1358" on="1"/>
        <pt x="483" y="1311" on="0"/>
        <pt x="286" y="1022" on="0"/>
        <pt x="231" y="788" on="1"/>
        <pt x="236" y="788" on="1"/>
        <pt x="414" y="1006" on="0"/>
        <pt x="633" y="1006" on="1"/>
        <pt x="783" y="1006" on="0"/>
        <pt x="950" y="808" on="0"/>
        <pt x="950" y="621" on="1"/>
        <pt x="950" y="433" on="0"/>
        <pt x="823" y="129" on="0"/>
        <pt x="603" y="-20" on="0"/>
        <pt x="455" y="-20" on="1"/>
        <pt x="283" y="-20" on="0"/>
        <pt x="98" y="214" on="0"/>
      </contour>
      <contour>
        <pt x="469" y="66" on="1"/>
        <pt x="585" y="66" on="0"/>
        <pt x="757" y="204" on="0"/>
        <pt x="848" y="450" on="0"/>
        <pt x="848" y="608" on="1"/>
        <pt x="848" y="766" on="0"/>
        <pt x="723" y="918" on="0"/>
        <pt x="614" y="918" on="1"/>
        <pt x="513" y="918" on="0"/>
        <pt x="322" y="802" on="0"/>
        <pt x="217" y="668" on="1"/>
        <pt x="211" y="633" on="0"/>
        <pt x="199" y="489" on="0"/>
        <pt x="199" y="442" on="1"/>
        <pt x="199" y="250" on="0"/>
        <pt x="330" y="66" on="0"/>
      </contour>
    </TTGlyph>
    <TTGlyph name="afii10067" xMin="104" yMin="-20" xMax="985" yMax="1104">
      <contour>
        <pt x="674" y="1104" on="1"/>
        <pt x="822" y="1104" on="0"/>
        <pt x="985" y="963" on="0"/>
        <pt x="985" y="838" on="1"/>
        <pt x="985" y="719" on="0"/>
        <pt x="839" y="570" on="0"/>
        <pt x="705" y="541" on="1"/>
        <pt x="705" y="537" on="1"/>
        <pt x="809" y="520" on="0"/>
        <pt x="926" y="401" on="0"/>
        <pt x="926" y="309" on="1"/>
        <pt x="926" y="215" on="0"/>
        <pt x="825" y="65" on="0"/>
        <pt x="634" y="-20" on="0"/>
        <pt x="502" y="-20" on="1"/>
        <pt x="308" y="-20" on="0"/>
        <pt x="104" y="209" on="0"/>
        <pt x="104" y="422" on="1"/>
        <pt x="104" y="607" on="0"/>
        <pt x="250" y="924" on="0"/>
        <pt x="511" y="1104" on="0"/>
      </contour>
      <contour>
        <pt x="205" y="487" on="1"/>
        <pt x="203" y="414" on="1"/>
        <pt x="203" y="245" on="0"/>
        <pt x="364" y="70" on="0"/>
        <pt x="518" y="70" on="1"/>
        <pt x="662" y="70" on="0"/>
        <pt x="823" y="194" on="0"/>
        <pt x="823" y="301" on="1"/>
        <pt x="823" y="487" on="0"/>
        <pt x="553" y="487" on="1"/>
      </contour>
      <contour>
        <pt x="666" y="1018" on="1"/>
        <pt x="500" y="1018" on="0"/>
        <pt x="252" y="775" on="0"/>
        <pt x="213" y="575" on="1"/>
        <pt x="453" y="575" on="1"/>
        <pt x="666" y="575" on="0"/>
        <pt x="883" y="705" on="0"/>
        <pt x="883" y="827" on="1"/>
        <pt x="883" y="915" on="0"/>
        <pt x="771" y="1018" on="0"/>
      </contour>
    </TTGlyph>
    <TTGlyph name="afii10068" xMin="78" yMin="-20" xMax="860" yMax="1104">
      <contour>
        <pt x="231" y="1030" on="1"/>
        <pt x="352" y="1072" on="0"/>
        <pt x="452" y="1094" on="0"/>
        <pt x="541" y="1104" on="0"/>
        <pt x="582" y="1104" on="1"/>
        <pt x="718" y="1104" on="0"/>
        <pt x="860" y="987" on="0"/>
        <pt x="860" y="879" on="1"/>
        <pt x="860" y="768" on="0"/>
        <pt x="707" y="612" on="0"/>
        <pt x="516" y="543" on="1"/>
        <pt x="364" y="487" on="0"/>
        <pt x="239" y="409" on="0"/>
        <pt x="180" y="313" on="0"/>
        <pt x="180" y="246" on="1"/>
        <pt x="180" y="159" on="0"/>
        <pt x="290" y="66" on="0"/>
        <pt x="397" y="66" on="1"/>
        <pt x="561" y="66" on="0"/>
        <pt x="725" y="139" on="1"/>
        <pt x="725" y="49" on="1"/>
        <pt x="659" y="23" on="0"/>
        <pt x="493" y="-20" on="0"/>
        <pt x="385" y="-20" on="1"/>
        <pt x="239" y="-20" on="0"/>
        <pt x="78" y="117" on="0"/>
        <pt x="78" y="242" on="1"/>
        <pt x="78" y="324" on="0"/>
        <pt x="149" y="449" on="0"/>
        <pt x="295" y="550" on="0"/>
        <pt x="449" y="610" on="1"/>
        <pt x="597" y="669" on="0"/>
        <pt x="707" y="737" on="0"/>
        <pt x="758" y="815" on="0"/>
        <pt x="758" y="866" on="1"/>
        <pt x="758" y="941" on="0"/>
        <pt x="660" y="1016" on="0"/>
        <pt x="569" y="1016" on="1"/>
        <pt x="511" y="1016" on="0"/>
        <pt x="345" y="977" on="0"/>
        <pt x="260" y="944" on="1"/>
      </contour>
    </TTGlyph>
    <TTGlyph name="afii10069" xMin="102" yMin="-20" xMax="1032" yMax="1577">
      <contour>
        <pt x="1032" y="975" on="1"/>
        <pt x="1032" y="794" on="0"/>
        <pt x="930" y="404" on="0"/>
        <pt x="757" y="120" on="0"/>
        <pt x="537" y="-20" on="0"/>
        <pt x="410" y="-20" on="1"/>
        <pt x="263" y="-20" on="0"/>
        <pt x="102" y="180" on="0"/>
        <pt x="102" y="354" on="1"/>
        <pt x="102" y="538" on="0"/>
        <pt x="250" y="880" on="0"/>
        <pt x="494" y="1069" on="0"/>
        <pt x="641" y="1069" on="1"/>
        <pt x="858" y="1069" on="0"/>
        <pt x="924" y="860" on="1"/>
        <pt x="930" y="860" on="1"/>
        <pt x="934" y="888" on="0"/>
        <pt x="934" y="963" on="1"/>
        <pt x="934" y="1229" on="0"/>
        <pt x="789" y="1487" on="0"/>
        <pt x="643" y="1487" on="1"/>
        <pt x="590" y="1487" on="0"/>
        <pt x="465" y="1448" on="0"/>
        <pt x="428" y="1425" on="1"/>
        <pt x="389" y="1507" on="1"/>
        <pt x="441" y="1537" on="0"/>
        <pt x="585" y="1577" on="0"/>
        <pt x="653" y="1577" on="1"/>
        <pt x="847" y="1577" on="0"/>
        <pt x="1032" y="1281" on="0"/>
      </contour>
      <contour>
        <pt x="426" y="70" on="1"/>
        <pt x="587" y="70" on="0"/>
        <pt x="846" y="418" on="0"/>
        <pt x="905" y="717" on="1"/>
        <pt x="835" y="983" on="0"/>
        <pt x="637" y="983" on="1"/>
        <pt x="521" y="983" on="0"/>
        <pt x="320" y="808" on="0"/>
        <pt x="205" y="521" on="0"/>
        <pt x="205" y="365" on="1"/>
        <pt x="205" y="70" on="0"/>
      </contour>
    </TTGlyph>
    <TTGlyph name="afii10070" xMin="102" yMin="-20" xMax="893" yMax="1104">
      <component glyphName="e" x="0" y="0" flags="0x204"/>
    </TTGlyph>
    <TTGlyph name="afii10071" xMin="102" yMin="-20" xMax="923" yMax="1473">
      <component glyphName="e" x="0" y="0" flags="0x204"/>
      <component glyphName="dieresis" x="-44" y="0" flags="0x4"/>
    </TTGlyph>
    <TTGlyph name="afii10072" xMin="-51" yMin="-20" xMax="1659" yMax="1104">
      <contour>
        <pt x="862" y="602" on="1"/>
        <pt x="1024" y="602" on="1"/>
        <pt x="1052" y="751" on="0"/>
        <pt x="1189" y="977" on="0"/>
        <pt x="1393" y="1104" on="0"/>
        <pt x="1524" y="1104" on="1"/>
        <pt x="1601" y="1104" on="0"/>
        <pt x="1659" y="1087" on="1"/>
        <pt x="1640" y="995" on="1"/>
        <pt x="1583" y="1014" on="0"/>
        <pt x="1513" y="1014" on="1"/>
        <pt x="1400" y="1014" on="0"/>
        <pt x="1213" y="862" on="0"/>
        <pt x="1100" y="577" on="0"/>
        <pt x="1100" y="418" on="1"/>
        <pt x="1100" y="241" on="0"/>
        <pt x="1218" y="70" on="0"/>
        <pt x="1343" y="70" on="1"/>
        <pt x="1396" y="70" on="0"/>
        <pt x="1456" y="80" on="1"/>
        <pt x="1456" y="-8" on="1"/>
        <pt x="1384" y="-20" on="0"/>
        <pt x="1335" y="-20" on="1"/>
        <pt x="1001" y="-20" on="0"/>
        <pt x="1001" y="399" on="1"/>
        <pt x="1001" y="445" on="0"/>
        <pt x="1010" y="514" on="1"/>
        <pt x="844" y="514" on="1"/>
        <pt x="735" y="0" on="1"/>
        <pt x="639" y="0" on="1"/>
        <pt x="748" y="514" on="1"/>
        <pt x="590" y="514" on="1"/>
        <pt x="560" y="354" on="0"/>
        <pt x="420" y="113" on="0"/>
        <pt x="214" y="-20" on="0"/>
        <pt x="84" y="-20" on="1"/>
        <pt x="9" y="-20" on="0"/>
        <pt x="-51" y="-4" on="1"/>
        <pt x="-33" y="88" on="1"/>
        <pt x="23" y="70" on="0"/>
        <pt x="94" y="70" on="1"/>
        <pt x="210" y="70" on="0"/>
        <pt x="398" y="228" on="0"/>
        <pt x="508" y="509" on="0"/>
        <pt x="508" y="666" on="1"/>
        <pt x="508" y="843" on="0"/>
        <pt x="390" y="1014" on="0"/>
        <pt x="264" y="1014" on="1"/>
        <pt x="212" y="1014" on="0"/>
        <pt x="152" y="1004" on="1"/>
        <pt x="152" y="1092" on="1"/>
        <pt x="224" y="1104" on="0"/>
        <pt x="272" y="1104" on="1"/>
        <pt x="606" y="1104" on="0"/>
        <pt x="606" y="684" on="1"/>
        <pt x="606" y="634" on="0"/>
        <pt x="602" y="602" on="1"/>
        <pt x="766" y="602" on="1"/>
        <pt x="870" y="1087" on="1"/>
        <pt x="965" y="1087" on="1"/>
      </contour>
    </TTGlyph>
    <TTGlyph name="afii10073" xMin="-18" yMin="-20" xMax="745" yMax="1104">
      <contour>
        <pt x="336" y="616" on="1"/>
        <pt x="482" y="616" on="0"/>
        <pt x="643" y="735" on="0"/>
        <pt x="643" y="846" on="1"/>
        <pt x="643" y="924" on="0"/>
        <pt x="539" y="1018" on="0"/>
        <pt x="451" y="1018" on="1"/>
        <pt x="390" y="1018" on="0"/>
        <pt x="277" y="984" on="0"/>
        <pt x="203" y="938" on="1"/>
        <pt x="162" y="1018" on="1"/>
        <pt x="245" y="1068" on="0"/>
        <pt x="385" y="1104" on="0"/>
        <pt x="471" y="1104" on="1"/>
        <pt x="601" y="1104" on="0"/>
        <pt x="745" y="974" on="0"/>
        <pt x="745" y="858" on="1"/>
        <pt x="745" y="745" on="0"/>
        <pt x="613" y="597" on="0"/>
        <pt x="492" y="573" on="1"/>
        <pt x="492" y="569" on="1"/>
        <pt x="586" y="549" on="0"/>
        <pt x="682" y="424" on="0"/>
        <pt x="682" y="328" on="1"/>
        <pt x="682" y="226" on="0"/>
        <pt x="580" y="67" on="0"/>
        <pt x="392" y="-20" on="0"/>
        <pt x="264" y="-20" on="1"/>
        <pt x="178" y="-20" on="0"/>
        <pt x="30" y="17" on="0"/>
        <pt x="-18" y="45" on="1"/>
        <pt x="-18" y="154" on="1"/>
        <pt x="121" y="68" on="0"/>
        <pt x="272" y="68" on="1"/>
        <pt x="415" y="68" on="0"/>
        <pt x="580" y="205" on="0"/>
        <pt x="580" y="322" on="1"/>
        <pt x="580" y="429" on="0"/>
        <pt x="451" y="524" on="0"/>
        <pt x="309" y="524" on="1"/>
        <pt x="225" y="524" on="1"/>
        <pt x="246" y="616" on="1"/>
      </contour>
    </TTGlyph>
    <TTGlyph name="afii10074" xMin="109" yMin="-16" xMax="1067" yMax="1087">
      <component glyphName="u" x="0" y="0" flags="0x204"/>
    </TTGlyph>
    <TTGlyph name="afii10075" xMin="109" yMin="-16" xMax="1067" yMax="1528">
      <component glyphName="u" x="0" y="0" flags="0x204"/>
      <component glyphName="cyrillicbreve" x="72" y="0" flags="0x4"/>
    </TTGlyph>
    <TTGlyph name="afii10076" xMin="72" yMin="0" xMax="1004" yMax="1087">
      <contour>
        <pt x="858" y="1087" on="1"/>
        <pt x="1004" y="1087" on="1"/>
        <pt x="397" y="553" on="1"/>
        <pt x="801" y="0" on="1"/>
        <pt x="674" y="0" on="1"/>
        <pt x="283" y="549" on="1"/>
        <pt x="170" y="0" on="1"/>
        <pt x="72" y="0" on="1"/>
        <pt x="297" y="1087" on="1"/>
        <pt x="395" y="1087" on="1"/>
        <pt x="285" y="563" on="1"/>
      </contour>
    </TTGlyph>
    <TTGlyph name="afii10077" xMin="-102" yMin="-10" xMax="956" yMax="1096">
      <contour>
        <pt x="725" y="0" on="1"/>
        <pt x="629" y="0" on="1"/>
        <pt x="844" y="1006" on="1"/>
        <pt x="806" y="1012" on="0"/>
        <pt x="770" y="1012" on="1"/>
        <pt x="678" y="1012" on="0"/>
        <pt x="558" y="933" on="0"/>
        <pt x="454" y="744" on="0"/>
        <pt x="383" y="532" on="1"/>
        <pt x="297" y="277" on="0"/>
        <pt x="187" y="79" on="0"/>
        <pt x="55" y="-10" on="0"/>
        <pt x="-41" y="-10" on="1"/>
        <pt x="-78" y="-10" on="0"/>
        <pt x="-102" y="-2" on="1"/>
        <pt x="-102" y="88" on="1"/>
        <pt x="-73" y="80" on="0"/>
        <pt x="-43" y="80" on="1"/>
        <pt x="31" y="80" on="0"/>
        <pt x="127" y="156" on="0"/>
        <pt x="220" y="342" on="0"/>
        <pt x="295" y="561" on="1"/>
        <pt x="379" y="810" on="0"/>
        <pt x="503" y="1009" on="0"/>
        <pt x="665" y="1096" on="0"/>
        <pt x="784" y="1096" on="1"/>
        <pt x="865" y="1096" on="0"/>
        <pt x="956" y="1079" on="1"/>
      </contour>
    </TTGlyph>
    <TTGlyph name="afii10078" xMin="45" yMin="0" xMax="1266" yMax="1087">
      <contour>
        <pt x="944" y="0" on="1"/>
        <pt x="1141" y="930" on="1"/>
        <pt x="1124" y="898" on="0"/>
        <pt x="1080" y="822" on="0"/>
        <pt x="571" y="0" on="1"/>
        <pt x="504" y="0" on="1"/>
        <pt x="358" y="723" on="1"/>
        <pt x="352" y="752" on="0"/>
        <pt x="329" y="892" on="0"/>
        <pt x="328" y="924" on="1"/>
        <pt x="135" y="0" on="1"/>
        <pt x="45" y="0" on="1"/>
        <pt x="276" y="1087" on="1"/>
        <pt x="377" y="1087" on="1"/>
        <pt x="530" y="289" on="1"/>
        <pt x="557" y="131" on="0"/>
        <pt x="557" y="119" on="1"/>
        <pt x="583" y="174" on="0"/>
        <pt x="656" y="298" on="0"/>
        <pt x="1149" y="1087" on="1"/>
        <pt x="1266" y="1087" on="1"/>
        <pt x="1032" y="0" on="1"/>
      </contour>
    </TTGlyph>
    <TTGlyph name="afii10079" xMin="74" yMin="0" xMax="1133" yMax="1087">
      <contour>
        <pt x="403" y="1087" on="1"/>
        <pt x="303" y="608" on="1"/>
        <pt x="928" y="608" on="1"/>
        <pt x="1032" y="1087" on="1"/>
        <pt x="1133" y="1087" on="1"/>
        <pt x="901" y="0" on="1"/>
        <pt x="799" y="0" on="1"/>
        <pt x="909" y="516" on="1"/>
        <pt x="285" y="516" on="1"/>
        <pt x="174" y="0" on="1"/>
        <pt x="74" y="0" on="1"/>
        <pt x="307" y="1087" on="1"/>
      </contour>
    </TTGlyph>
    <TTGlyph name="afii10080" xMin="98" yMin="-20" xMax="1026" yMax="1108">
      <component glyphName="o" x="0" y="0" flags="0x204"/>
    </TTGlyph>
    <TTGlyph name="afii10081" xMin="76" yMin="0" xMax="1034" yMax="1104">
      <component glyphName="n" x="0" y="0" flags="0x204"/>
    </TTGlyph>
    <TTGlyph name="afii10082" xMin="-33" yMin="-492" xMax="1051" yMax="1108">
      <component glyphName="p" x="0" y="0" flags="0x4"/>
    </TTGlyph>
    <TTGlyph name="afii10083" xMin="102" yMin="-20" xMax="905" yMax="1104">
      <component glyphName="c" x="0" y="0" flags="0x204"/>
    </TTGlyph>
    <TTGlyph name="afii10084" xMin="72" yMin="0" xMax="1630" yMax="1104">
      <component glyphName="m" x="0" y="0" flags="0x204"/>
    </TTGlyph>
    <TTGlyph name="afii10085" xMin="-217" yMin="-492" xMax="1008" yMax="1087">
      <component glyphName="y" x="0" y="0" flags="0x204"/>
    </TTGlyph>
    <TTGlyph name="afii10086" xMin="98" yMin="-492" xMax="1157" yMax="1556">
      <contour>
        <pt x="786" y="1090" on="1"/>
        <pt x="1157" y="1051" on="0"/>
        <pt x="1157" y="653" on="1"/>
        <pt x="1157" y="468" on="0"/>
        <pt x="1003" y="160" on="0"/>
        <pt x="733" y="0" on="0"/>
        <pt x="553" y="0" on="1"/>
        <pt x="446" y="-492" on="1"/>
        <pt x="356" y="-492" on="1"/>
        <pt x="461" y="0" on="1"/>
        <pt x="292" y="14" on="0"/>
        <pt x="98" y="244" on="0"/>
        <pt x="98" y="438" on="1"/>
        <pt x="98" y="623" on="0"/>
        <pt x="243" y="919" on="0"/>
        <pt x="514" y="1086" on="0"/>
        <pt x="694" y="1087" on="1"/>
        <pt x="793" y="1556" on="1"/>
        <pt x="887" y="1556" on="1"/>
      </contour>
      <contour>
        <pt x="201" y="449" on="1"/>
        <pt x="201" y="285" on="0"/>
        <pt x="342" y="97" on="0"/>
        <pt x="479" y="86" on="1"/>
        <pt x="676" y="999" on="1"/>
        <pt x="533" y="996" on="0"/>
        <pt x="323" y="865" on="0"/>
        <pt x="201" y="603" on="0"/>
      </contour>
      <contour>
        <pt x="571" y="86" on="1"/>
        <pt x="713" y="86" on="0"/>
        <pt x="928" y="218" on="0"/>
        <pt x="1055" y="489" on="0"/>
        <pt x="1055" y="645" on="1"/>
        <pt x="1055" y="810" on="0"/>
        <pt x="909" y="992" on="0"/>
        <pt x="768" y="999" on="1"/>
      </contour>
    </TTGlyph>
    <TTGlyph name="afii10087" xMin="-72" yMin="0" xMax="954" yMax="1087">
      <component glyphName="x" x="0" y="0" flags="0x204"/>
    </TTGlyph>
    <TTGlyph name="afii10088" xMin="109" yMin="-365" xMax="1067" yMax="1087">
      <contour>
        <pt x="381" y="1087" on="1"/>
        <pt x="229" y="389" on="1"/>
        <pt x="207" y="286" on="0"/>
        <pt x="207" y="231" on="1"/>
        <pt x="207" y="157" on="0"/>
        <pt x="302" y="70" on="0"/>
        <pt x="393" y="70" on="1"/>
        <pt x="503" y="70" on="0"/>
        <pt x="698" y="201" on="0"/>
        <pt x="831" y="444" on="0"/>
        <pt x="864" y="602" on="1"/>
        <pt x="969" y="1087" on="1"/>
        <pt x="1067" y="1087" on="1"/>
        <pt x="903" y="322" on="1"/>
        <pt x="881" y="218" on="0"/>
        <pt x="881" y="152" on="1"/>
        <pt x="881" y="63" on="0"/>
        <pt x="965" y="63" on="1"/>
        <pt x="988" y="63" on="0"/>
        <pt x="1028" y="70" on="1"/>
        <pt x="928" y="-365" on="1"/>
        <pt x="827" y="-365" on="1"/>
        <pt x="907" y="-14" on="1"/>
        <pt x="840" y="-1" on="0"/>
        <pt x="786" y="82" on="0"/>
        <pt x="786" y="160" on="1"/>
        <pt x="788" y="211" on="1"/>
        <pt x="782" y="211" on="1"/>
        <pt x="698" y="98" on="0"/>
        <pt x="491" y="-16" on="0"/>
        <pt x="377" y="-16" on="1"/>
        <pt x="244" y="-16" on="0"/>
        <pt x="109" y="108" on="0"/>
        <pt x="109" y="227" on="1"/>
        <pt x="109" y="287" on="0"/>
        <pt x="131" y="397" on="1"/>
        <pt x="281" y="1087" on="1"/>
      </contour>
    </TTGlyph>
    <TTGlyph name="afii10089" xMin="156" yMin="0" xMax="1022" yMax="1087">
      <contour>
        <pt x="336" y="1087" on="1"/>
        <pt x="267" y="769" on="0"/>
        <pt x="254" y="681" on="0"/>
        <pt x="254" y="653" on="1"/>
        <pt x="254" y="579" on="0"/>
        <pt x="343" y="492" on="0"/>
        <pt x="440" y="492" on="1"/>
        <pt x="603" y="492" on="0"/>
        <pt x="857" y="763" on="0"/>
        <pt x="905" y="997" on="1"/>
        <pt x="924" y="1087" on="1"/>
        <pt x="1022" y="1087" on="1"/>
        <pt x="788" y="0" on="1"/>
        <pt x="686" y="0" on="1"/>
        <pt x="736" y="229" on="0"/>
        <pt x="786" y="462" on="0"/>
        <pt x="831" y="627" on="1"/>
        <pt x="823" y="627" on="1"/>
        <pt x="662" y="406" on="0"/>
        <pt x="422" y="406" on="1"/>
        <pt x="294" y="406" on="0"/>
        <pt x="156" y="526" on="0"/>
        <pt x="156" y="643" on="1"/>
        <pt x="156" y="717" on="0"/>
        <pt x="178" y="819" on="1"/>
        <pt x="236" y="1087" on="1"/>
      </contour>
    </TTGlyph>
    <TTGlyph name="afii10090" xMin="117" yMin="-16" xMax="1675" yMax="1087">
      <contour>
        <pt x="1036" y="1087" on="1"/>
        <pt x="889" y="414" on="1"/>
        <pt x="864" y="289" on="0"/>
        <pt x="864" y="252" on="1"/>
        <pt x="864" y="160" on="0"/>
        <pt x="940" y="70" on="0"/>
        <pt x="1018" y="70" on="1"/>
        <pt x="1123" y="70" on="0"/>
        <pt x="1311" y="205" on="0"/>
        <pt x="1441" y="446" on="0"/>
        <pt x="1477" y="612" on="1"/>
        <pt x="1579" y="1087" on="1"/>
        <pt x="1675" y="1087" on="1"/>
        <pt x="1444" y="0" on="1"/>
        <pt x="1364" y="0" on="1"/>
        <pt x="1397" y="211" on="1"/>
        <pt x="1391" y="211" on="1"/>
        <pt x="1230" y="-16" on="0"/>
        <pt x="1004" y="-16" on="1"/>
        <pt x="894" y="-16" on="0"/>
        <pt x="779" y="118" on="0"/>
        <pt x="776" y="246" on="1"/>
        <pt x="770" y="246" on="1"/>
        <pt x="696" y="120" on="0"/>
        <pt x="487" y="-16" on="0"/>
        <pt x="365" y="-16" on="1"/>
        <pt x="248" y="-16" on="0"/>
        <pt x="117" y="107" on="0"/>
        <pt x="117" y="221" on="1"/>
        <pt x="117" y="251" on="0"/>
        <pt x="122" y="306" on="0"/>
        <pt x="139" y="397" on="1"/>
        <pt x="291" y="1087" on="1"/>
        <pt x="391" y="1087" on="1"/>
        <pt x="242" y="408" on="1"/>
        <pt x="217" y="288" on="0"/>
        <pt x="217" y="231" on="1"/>
        <pt x="217" y="156" on="0"/>
        <pt x="302" y="70" on="0"/>
        <pt x="379" y="70" on="1"/>
        <pt x="535" y="70" on="0"/>
        <pt x="779" y="348" on="0"/>
        <pt x="825" y="573" on="1"/>
        <pt x="934" y="1087" on="1"/>
      </contour>
    </TTGlyph>
    <TTGlyph name="afii10091" xMin="117" yMin="-365" xMax="1675" yMax="1087">
      <contour>
        <pt x="1489" y="152" on="1"/>
        <pt x="1489" y="63" on="0"/>
        <pt x="1573" y="63" on="1"/>
        <pt x="1596" y="63" on="0"/>
        <pt x="1636" y="70" on="1"/>
        <pt x="1536" y="-365" on="1"/>
        <pt x="1436" y="-365" on="1"/>
        <pt x="1516" y="-14" on="1"/>
        <pt x="1448" y="-1" on="0"/>
        <pt x="1394" y="80" on="0"/>
        <pt x="1394" y="155" on="1"/>
        <pt x="1397" y="211" on="1"/>
        <pt x="1391" y="211" on="1"/>
        <pt x="1230" y="-16" on="0"/>
        <pt x="1004" y="-16" on="1"/>
        <pt x="894" y="-16" on="0"/>
        <pt x="779" y="118" on="0"/>
        <pt x="776" y="246" on="1"/>
        <pt x="770" y="246" on="1"/>
        <pt x="696" y="120" on="0"/>
        <pt x="487" y="-16" on="0"/>
        <pt x="365" y="-16" on="1"/>
        <pt x="248" y="-16" on="0"/>
        <pt x="117" y="107" on="0"/>
        <pt x="117" y="221" on="1"/>
        <pt x="117" y="251" on="0"/>
        <pt x="122" y="306" on="0"/>
        <pt x="139" y="397" on="1"/>
        <pt x="291" y="1087" on="1"/>
        <pt x="391" y="1087" on="1"/>
        <pt x="242" y="408" on="1"/>
        <pt x="217" y="288" on="0"/>
        <pt x="217" y="231" on="1"/>
        <pt x="217" y="156" on="0"/>
        <pt x="302" y="70" on="0"/>
        <pt x="379" y="70" on="1"/>
        <pt x="535" y="70" on="0"/>
        <pt x="779" y="348" on="0"/>
        <pt x="825" y="573" on="1"/>
        <pt x="934" y="1087" on="1"/>
        <pt x="1036" y="1087" on="1"/>
        <pt x="889" y="414" on="1"/>
        <pt x="864" y="289" on="0"/>
        <pt x="864" y="252" on="1"/>
        <pt x="864" y="160" on="0"/>
        <pt x="940" y="70" on="0"/>
        <pt x="1018" y="70" on="1"/>
        <pt x="1123" y="70" on="0"/>
        <pt x="1311" y="205" on="0"/>
        <pt x="1441" y="446" on="0"/>
        <pt x="1477" y="612" on="1"/>
        <pt x="1579" y="1087" on="1"/>
        <pt x="1675" y="1087" on="1"/>
        <pt x="1511" y="322" on="1"/>
        <pt x="1489" y="218" on="0"/>
      </contour>
    </TTGlyph>
    <TTGlyph name="afii10092" xMin="82" yMin="-20" xMax="1036" yMax="1087">
      <contour>
        <pt x="426" y="588" on="1"/>
        <pt x="482" y="598" on="1"/>
        <pt x="599" y="618" on="0"/>
        <pt x="696" y="618" on="1"/>
        <pt x="1036" y="618" on="0"/>
        <pt x="1036" y="338" on="1"/>
        <pt x="1036" y="176" on="0"/>
        <pt x="813" y="-20" on="0"/>
        <pt x="621" y="-20" on="1"/>
        <pt x="458" y="-20" on="0"/>
        <pt x="285" y="138" on="0"/>
        <pt x="285" y="291" on="1"/>
        <pt x="285" y="389" on="0"/>
        <pt x="315" y="539" on="1"/>
        <pt x="416" y="1006" on="1"/>
        <pt x="82" y="1006" on="1"/>
        <pt x="102" y="1087" on="1"/>
        <pt x="535" y="1087" on="1"/>
      </contour>
      <contour>
        <pt x="678" y="532" on="1"/>
        <pt x="600" y="532" on="0"/>
        <pt x="462" y="511" on="0"/>
        <pt x="408" y="502" on="1"/>
        <pt x="383" y="384" on="0"/>
        <pt x="383" y="307" on="1"/>
        <pt x="383" y="185" on="0"/>
        <pt x="497" y="70" on="0"/>
        <pt x="629" y="70" on="1"/>
        <pt x="771" y="70" on="0"/>
        <pt x="934" y="208" on="0"/>
        <pt x="934" y="330" on="1"/>
        <pt x="934" y="433" on="0"/>
        <pt x="806" y="532" on="0"/>
      </contour>
    </TTGlyph>
    <TTGlyph name="afii10093" xMin="141" yMin="-20" xMax="1313" yMax="1087">
      <contour>
        <pt x="1081" y="0" on="1"/>
        <pt x="983" y="0" on="1"/>
        <pt x="1217" y="1087" on="1"/>
        <pt x="1313" y="1087" on="1"/>
      </contour>
      <contour>
        <pt x="283" y="588" on="1"/>
        <pt x="339" y="598" on="1"/>
        <pt x="456" y="618" on="0"/>
        <pt x="553" y="618" on="1"/>
        <pt x="893" y="618" on="0"/>
        <pt x="893" y="338" on="1"/>
        <pt x="893" y="176" on="0"/>
        <pt x="670" y="-20" on="0"/>
        <pt x="477" y="-20" on="1"/>
        <pt x="314" y="-20" on="0"/>
        <pt x="141" y="138" on="0"/>
        <pt x="141" y="291" on="1"/>
        <pt x="141" y="384" on="0"/>
        <pt x="172" y="539" on="1"/>
        <pt x="291" y="1087" on="1"/>
        <pt x="391" y="1087" on="1"/>
      </contour>
      <contour>
        <pt x="535" y="532" on="1"/>
        <pt x="457" y="532" on="0"/>
        <pt x="318" y="511" on="0"/>
        <pt x="264" y="502" on="1"/>
        <pt x="240" y="382" on="0"/>
        <pt x="240" y="307" on="1"/>
        <pt x="240" y="185" on="0"/>
        <pt x="353" y="70" on="0"/>
        <pt x="485" y="70" on="1"/>
        <pt x="628" y="70" on="0"/>
        <pt x="791" y="208" on="0"/>
        <pt x="791" y="330" on="1"/>
        <pt x="791" y="434" on="0"/>
        <pt x="662" y="532" on="0"/>
      </contour>
    </TTGlyph>
    <TTGlyph name="afii10094" xMin="141" yMin="-20" xMax="893" yMax="1087">
      <contour>
        <pt x="283" y="588" on="1"/>
        <pt x="339" y="598" on="1"/>
        <pt x="456" y="618" on="0"/>
        <pt x="553" y="618" on="1"/>
        <pt x="893" y="618" on="0"/>
        <pt x="893" y="338" on="1"/>
        <pt x="893" y="176" on="0"/>
        <pt x="670" y="-20" on="0"/>
        <pt x="477" y="-20" on="1"/>
        <pt x="314" y="-20" on="0"/>
        <pt x="141" y="138" on="0"/>
        <pt x="141" y="291" on="1"/>
        <pt x="141" y="384" on="0"/>
        <pt x="172" y="539" on="1"/>
        <pt x="291" y="1087" on="1"/>
        <pt x="391" y="1087" on="1"/>
      </contour>
      <contour>
        <pt x="535" y="532" on="1"/>
        <pt x="457" y="532" on="0"/>
        <pt x="318" y="511" on="0"/>
        <pt x="264" y="502" on="1"/>
        <pt x="240" y="382" on="0"/>
        <pt x="240" y="307" on="1"/>
        <pt x="240" y="185" on="0"/>
        <pt x="353" y="70" on="0"/>
        <pt x="485" y="70" on="1"/>
        <pt x="628" y="70" on="0"/>
        <pt x="791" y="208" on="0"/>
        <pt x="791" y="330" on="1"/>
        <pt x="791" y="434" on="0"/>
        <pt x="662" y="532" on="0"/>
      </contour>
    </TTGlyph>
    <TTGlyph name="afii10095" xMin="10" yMin="-20" xMax="807" yMax="1108">
      <contour>
        <pt x="440" y="1108" on="1"/>
        <pt x="618" y="1108" on="0"/>
        <pt x="807" y="897" on="0"/>
        <pt x="807" y="700" on="1"/>
        <pt x="807" y="492" on="0"/>
        <pt x="664" y="153" on="0"/>
        <pt x="411" y="-20" on="0"/>
        <pt x="242" y="-20" on="1"/>
        <pt x="186" y="-20" on="0"/>
        <pt x="58" y="4" on="0"/>
        <pt x="10" y="25" on="1"/>
        <pt x="10" y="127" on="1"/>
        <pt x="63" y="100" on="0"/>
        <pt x="193" y="70" on="0"/>
        <pt x="250" y="70" on="1"/>
        <pt x="426" y="70" on="0"/>
        <pt x="649" y="300" on="0"/>
        <pt x="690" y="526" on="1"/>
        <pt x="166" y="526" on="1"/>
        <pt x="184" y="614" on="1"/>
        <pt x="700" y="614" on="1"/>
        <pt x="705" y="647" on="0"/>
        <pt x="705" y="684" on="1"/>
        <pt x="705" y="856" on="0"/>
        <pt x="569" y="1022" on="0"/>
        <pt x="430" y="1022" on="1"/>
        <pt x="382" y="1022" on="0"/>
        <pt x="282" y="1000" on="0"/>
        <pt x="174" y="958" on="1"/>
        <pt x="147" y="1042" on="1"/>
        <pt x="235" y="1077" on="0"/>
        <pt x="310" y="1098" on="0"/>
        <pt x="395" y="1108" on="0"/>
      </contour>
    </TTGlyph>
    <TTGlyph name="afii10096" xMin="74" yMin="-20" xMax="1462" yMax="1108">
      <contour>
        <pt x="1096" y="1108" on="1"/>
        <pt x="1270" y="1108" on="0"/>
        <pt x="1462" y="897" on="0"/>
        <pt x="1462" y="700" on="1"/>
        <pt x="1462" y="497" on="0"/>
        <pt x="1321" y="155" on="0"/>
        <pt x="1081" y="-20" on="0"/>
        <pt x="920" y="-20" on="1"/>
        <pt x="738" y="-20" on="0"/>
        <pt x="555" y="196" on="0"/>
        <pt x="555" y="403" on="1"/>
        <pt x="555" y="457" on="0"/>
        <pt x="561" y="516" on="1"/>
        <pt x="285" y="516" on="1"/>
        <pt x="174" y="0" on="1"/>
        <pt x="74" y="0" on="1"/>
        <pt x="307" y="1087" on="1"/>
        <pt x="403" y="1087" on="1"/>
        <pt x="303" y="608" on="1"/>
        <pt x="578" y="608" on="1"/>
        <pt x="629" y="839" on="0"/>
        <pt x="902" y="1108" on="0"/>
      </contour>
      <contour>
        <pt x="1087" y="1022" on="1"/>
        <pt x="965" y="1022" on="0"/>
        <pt x="772" y="868" on="0"/>
        <pt x="657" y="574" on="0"/>
        <pt x="657" y="408" on="1"/>
        <pt x="657" y="229" on="0"/>
        <pt x="793" y="66" on="0"/>
        <pt x="930" y="66" on="1"/>
        <pt x="1055" y="66" on="0"/>
        <pt x="1248" y="219" on="0"/>
        <pt x="1360" y="525" on="0"/>
        <pt x="1360" y="702" on="1"/>
        <pt x="1360" y="860" on="0"/>
        <pt x="1221" y="1022" on="0"/>
      </contour>
    </TTGlyph>
    <TTGlyph name="afii10097" xMin="-37" yMin="-8" xMax="963" yMax="1087">
      <contour>
        <pt x="594" y="481" on="1"/>
        <pt x="511" y="481" on="0"/>
        <pt x="406" y="442" on="0"/>
        <pt x="330" y="354" on="0"/>
        <pt x="274" y="229" on="1"/>
        <pt x="223" y="115" on="0"/>
        <pt x="158" y="34" on="0"/>
        <pt x="76" y="-8" on="0"/>
        <pt x="14" y="-8" on="1"/>
        <pt x="-19" y="-8" on="0"/>
        <pt x="-37" y="-2" on="1"/>
        <pt x="-37" y="82" on="1"/>
        <pt x="-25" y="78" on="0"/>
        <pt x="2" y="78" on="1"/>
        <pt x="62" y="78" on="0"/>
        <pt x="135" y="147" on="0"/>
        <pt x="186" y="264" on="1"/>
        <pt x="233" y="375" on="0"/>
        <pt x="326" y="482" on="0"/>
        <pt x="391" y="506" on="1"/>
        <pt x="287" y="526" on="0"/>
        <pt x="174" y="650" on="0"/>
        <pt x="174" y="750" on="1"/>
        <pt x="174" y="855" on="0"/>
        <pt x="270" y="1005" on="0"/>
        <pt x="438" y="1087" on="0"/>
        <pt x="543" y="1087" on="1"/>
        <pt x="963" y="1087" on="1"/>
        <pt x="731" y="0" on="1"/>
        <pt x="633" y="0" on="1"/>
        <pt x="737" y="481" on="1"/>
      </contour>
      <contour>
        <pt x="555" y="1006" on="1"/>
        <pt x="425" y="1006" on="0"/>
        <pt x="276" y="871" on="0"/>
        <pt x="276" y="754" on="1"/>
        <pt x="276" y="559" on="0"/>
        <pt x="553" y="559" on="1"/>
        <pt x="754" y="559" on="1"/>
        <pt x="848" y="1006" on="1"/>
      </contour>
    </TTGlyph>
    <TTGlyph name="afii10098" xMin="72" yMin="0" xMax="872" yMax="1413">
      <contour>
        <pt x="784" y="1006" on="1"/>
        <pt x="381" y="1006" on="1"/>
        <pt x="170" y="0" on="1"/>
        <pt x="72" y="0" on="1"/>
        <pt x="299" y="1087" on="1"/>
        <pt x="707" y="1087" on="1"/>
        <pt x="776" y="1413" on="1"/>
        <pt x="872" y="1413" on="1"/>
      </contour>
    </TTGlyph>
    <TTGlyph name="afii10099" xMin="76" yMin="-492" xMax="1034" yMax="1556">
      <contour>
        <pt x="348" y="1278" on="1"/>
        <pt x="203" y="1278" on="1"/>
        <pt x="221" y="1360" on="1"/>
        <pt x="367" y="1360" on="1"/>
        <pt x="406" y="1556" on="1"/>
        <pt x="504" y="1556" on="1"/>
        <pt x="463" y="1360" on="1"/>
        <pt x="836" y="1360" on="1"/>
        <pt x="817" y="1278" on="1"/>
        <pt x="446" y="1278" on="1"/>
        <pt x="395" y="1033" on="0"/>
        <pt x="363" y="905" on="0"/>
        <pt x="352" y="866" on="1"/>
        <pt x="358" y="866" on="1"/>
        <pt x="529" y="1104" on="0"/>
        <pt x="774" y="1104" on="1"/>
        <pt x="898" y="1104" on="0"/>
        <pt x="1034" y="977" on="0"/>
        <pt x="1034" y="856" on="1"/>
        <pt x="1034" y="786" on="0"/>
        <pt x="1010" y="674" on="1"/>
        <pt x="823" y="-184" on="1"/>
        <pt x="788" y="-346" on="0"/>
        <pt x="648" y="-492" on="0"/>
        <pt x="528" y="-492" on="1"/>
        <pt x="463" y="-492" on="0"/>
        <pt x="416" y="-473" on="1"/>
        <pt x="416" y="-381" on="1"/>
        <pt x="474" y="-403" on="0"/>
        <pt x="528" y="-403" on="1"/>
        <pt x="615" y="-403" on="0"/>
        <pt x="704" y="-295" on="0"/>
        <pt x="729" y="-174" on="1"/>
        <pt x="913" y="692" on="1"/>
        <pt x="934" y="784" on="0"/>
        <pt x="934" y="848" on="1"/>
        <pt x="934" y="1018" on="0"/>
        <pt x="756" y="1018" on="1"/>
        <pt x="646" y="1018" on="0"/>
        <pt x="448" y="884" on="0"/>
        <pt x="313" y="647" on="0"/>
        <pt x="276" y="477" on="1"/>
        <pt x="174" y="0" on="1"/>
        <pt x="76" y="0" on="1"/>
      </contour>
    </TTGlyph>
    <TTGlyph name="afii10100" xMin="78" yMin="-20" xMax="910" yMax="1569">
      <component glyphName="afii10068" x="0" y="0" flags="0x204"/>
      <component glyphName="acute" x="-87" y="0" flags="0x4"/>
    </TTGlyph>
    <TTGlyph name="afii10101" xMin="98" yMin="-20" xMax="901" yMax="1104">
      <contour>
        <pt x="475" y="-20" on="1"/>
        <pt x="295" y="-20" on="0"/>
        <pt x="98" y="202" on="0"/>
        <pt x="98" y="397" on="1"/>
        <pt x="98" y="593" on="0"/>
        <pt x="248" y="932" on="0"/>
        <pt x="498" y="1104" on="0"/>
        <pt x="659" y="1104" on="1"/>
        <pt x="794" y="1104" on="0"/>
        <pt x="901" y="1061" on="1"/>
        <pt x="872" y="971" on="1"/>
        <pt x="765" y="1018" on="0"/>
        <pt x="655" y="1018" on="1"/>
        <pt x="502" y="1018" on="0"/>
        <pt x="272" y="805" on="0"/>
        <pt x="223" y="606" on="1"/>
        <pt x="758" y="606" on="1"/>
        <pt x="737" y="522" on="1"/>
        <pt x="209" y="522" on="1"/>
        <pt x="201" y="468" on="0"/>
        <pt x="201" y="399" on="1"/>
        <pt x="201" y="239" on="0"/>
        <pt x="346" y="70" on="0"/>
        <pt x="483" y="70" on="1"/>
        <pt x="552" y="70" on="0"/>
        <pt x="673" y="96" on="0"/>
        <pt x="745" y="129" on="1"/>
        <pt x="745" y="37" on="1"/>
        <pt x="622" y="-20" on="0"/>
      </contour>
    </TTGlyph>
    <TTGlyph name="afii10102" xMin="25" yMin="-20" xMax="817" yMax="1104">
      <component glyphName="s" x="0" y="0" flags="0x204"/>
    </TTGlyph>
    <TTGlyph name="afii10103" xMin="76" yMin="0" xMax="489" yMax="1487">
      <component glyphName="i" x="0" y="0" flags="0x204"/>
    </TTGlyph>
    <TTGlyph name="afii10104" xMin="76" yMin="0" xMax="671" yMax="1473">
      <component glyphName="dotlessi" x="0" y="0" flags="0x204"/>
      <component glyphName="dieresis" x="-296" y="0" flags="0x4"/>
    </TTGlyph>
    <TTGlyph name="afii10105" xMin="-279" yMin="-492" xMax="489" yMax="1487">
      <component glyphName="j" x="0" y="0" flags="0x204"/>
    </TTGlyph>
    <TTGlyph name="afii10106" xMin="-102" yMin="-20" xMax="1391" yMax="1096">
      <contour>
        <pt x="821" y="596" on="1"/>
        <pt x="970" y="618" on="0"/>
        <pt x="1059" y="618" on="1"/>
        <pt x="1226" y="618" on="0"/>
        <pt x="1391" y="481" on="0"/>
        <pt x="1391" y="338" on="1"/>
        <pt x="1391" y="178" on="0"/>
        <pt x="1174" y="-20" on="0"/>
        <pt x="995" y="-20" on="1"/>
        <pt x="839" y="-20" on="0"/>
        <pt x="676" y="141" on="0"/>
        <pt x="676" y="289" on="1"/>
        <pt x="676" y="315" on="0"/>
        <pt x="683" y="391" on="0"/>
        <pt x="695" y="470" on="0"/>
        <pt x="801" y="1008" on="1"/>
        <pt x="780" y="1012" on="0"/>
        <pt x="750" y="1012" on="1"/>
        <pt x="631" y="1012" on="0"/>
        <pt x="473" y="804" on="0"/>
        <pt x="383" y="532" on="1"/>
        <pt x="299" y="278" on="0"/>
        <pt x="189" y="78" on="0"/>
        <pt x="55" y="-10" on="0"/>
        <pt x="-41" y="-10" on="1"/>
        <pt x="-73" y="-10" on="0"/>
        <pt x="-102" y="-2" on="1"/>
        <pt x="-102" y="88" on="1"/>
        <pt x="-70" y="80" on="0"/>
        <pt x="-43" y="80" on="1"/>
        <pt x="32" y="80" on="0"/>
        <pt x="129" y="157" on="0"/>
        <pt x="222" y="346" on="0"/>
        <pt x="295" y="561" on="1"/>
        <pt x="337" y="683" on="0"/>
        <pt x="417" y="881" on="0"/>
        <pt x="522" y="1020" on="0"/>
        <pt x="667" y="1096" on="0"/>
        <pt x="774" y="1096" on="1"/>
        <pt x="839" y="1096" on="0"/>
        <pt x="918" y="1079" on="1"/>
      </contour>
      <contour>
        <pt x="1040" y="532" on="1"/>
        <pt x="925" y="532" on="0"/>
        <pt x="805" y="510" on="1"/>
        <pt x="776" y="378" on="0"/>
        <pt x="776" y="303" on="1"/>
        <pt x="776" y="70" on="0"/>
        <pt x="999" y="70" on="1"/>
        <pt x="1133" y="70" on="0"/>
        <pt x="1288" y="211" on="0"/>
        <pt x="1288" y="330" on="1"/>
        <pt x="1288" y="431" on="0"/>
        <pt x="1169" y="532" on="0"/>
      </contour>
    </TTGlyph>
    <TTGlyph name="afii10107" xMin="74" yMin="-20" xMax="1493" yMax="1087">
      <contour>
        <pt x="883" y="588" on="1"/>
        <pt x="939" y="598" on="1"/>
        <pt x="1056" y="618" on="0"/>
        <pt x="1153" y="618" on="1"/>
        <pt x="1493" y="618" on="0"/>
        <pt x="1493" y="338" on="1"/>
        <pt x="1493" y="176" on="0"/>
        <pt x="1270" y="-20" on="0"/>
        <pt x="1077" y="-20" on="1"/>
        <pt x="914" y="-20" on="0"/>
        <pt x="741" y="138" on="0"/>
        <pt x="741" y="291" on="1"/>
        <pt x="741" y="389" on="0"/>
        <pt x="766" y="516" on="1"/>
        <pt x="285" y="516" on="1"/>
        <pt x="174" y="0" on="1"/>
        <pt x="74" y="0" on="1"/>
        <pt x="307" y="1087" on="1"/>
        <pt x="403" y="1087" on="1"/>
        <pt x="303" y="608" on="1"/>
        <pt x="786" y="608" on="1"/>
        <pt x="891" y="1087" on="1"/>
        <pt x="991" y="1087" on="1"/>
      </contour>
      <contour>
        <pt x="1135" y="532" on="1"/>
        <pt x="1057" y="532" on="0"/>
        <pt x="918" y="511" on="0"/>
        <pt x="864" y="502" on="1"/>
        <pt x="840" y="382" on="0"/>
        <pt x="840" y="307" on="1"/>
        <pt x="840" y="185" on="0"/>
        <pt x="953" y="70" on="0"/>
        <pt x="1085" y="70" on="1"/>
        <pt x="1228" y="70" on="0"/>
        <pt x="1391" y="208" on="0"/>
        <pt x="1391" y="330" on="1"/>
        <pt x="1391" y="434" on="0"/>
        <pt x="1262" y="532" on="0"/>
      </contour>
    </TTGlyph>
    <TTGlyph name="afii10108" xMin="76" yMin="0" xMax="1034" yMax="1556">
      <component glyphName="hbar" x="0" y="0" flags="0x204"/>
    </TTGlyph>
    <TTGlyph name="afii10109" xMin="72" yMin="0" xMax="1009" yMax="1569">
      <component glyphName="afii10076" x="0" y="0" flags="0x204"/>
      <component glyphName="acute" x="12" y="0" flags="0x4"/>
    </TTGlyph>
    <TTGlyph name="afii10110" xMin="-217" yMin="-492" xMax="1008" yMax="1528">
      <component glyphName="y" x="0" y="0" flags="0x204"/>
      <component glyphName="cyrillicbreve" x="-54" y="0" flags="0x4"/>
    </TTGlyph>
    <TTGlyph name="afii10145" xMin="102" yMin="-356" xMax="1372" yMax="1462">
      <contour>
        <pt x="412" y="1462" on="1"/>
        <pt x="512" y="1462" on="1"/>
        <pt x="223" y="96" on="1"/>
        <pt x="981" y="96" on="1"/>
        <pt x="1270" y="1462" on="1"/>
        <pt x="1372" y="1462" on="1"/>
        <pt x="1063" y="0" on="1"/>
        <pt x="639" y="0" on="1"/>
        <pt x="563" y="-356" on="1"/>
        <pt x="463" y="-356" on="1"/>
        <pt x="541" y="0" on="1"/>
        <pt x="102" y="0" on="1"/>
      </contour>
    </TTGlyph>
    <TTGlyph name="afii10193" xMin="109" yMin="-492" xMax="1067" yMax="1087">
      <contour>
        <pt x="500" y="-86" on="1"/>
        <pt x="532" y="-86" on="1"/>
        <pt x="442" y="-492" on="1"/>
        <pt x="352" y="-492" on="1"/>
        <pt x="440" y="-102" on="1"/>
      </contour>
      <contour>
        <pt x="381" y="1087" on="1"/>
        <pt x="229" y="389" on="1"/>
        <pt x="207" y="283" on="0"/>
        <pt x="207" y="231" on="1"/>
        <pt x="207" y="157" on="0"/>
        <pt x="302" y="70" on="0"/>
        <pt x="393" y="70" on="1"/>
        <pt x="503" y="70" on="0"/>
        <pt x="698" y="201" on="0"/>
        <pt x="831" y="444" on="0"/>
        <pt x="864" y="602" on="1"/>
        <pt x="969" y="1087" on="1"/>
        <pt x="1067" y="1087" on="1"/>
        <pt x="836" y="0" on="1"/>
        <pt x="756" y="0" on="1"/>
        <pt x="784" y="205" on="1"/>
        <pt x="778" y="205" on="1"/>
        <pt x="611" y="-16" on="0"/>
        <pt x="375" y="-16" on="1"/>
        <pt x="244" y="-16" on="0"/>
        <pt x="109" y="108" on="0"/>
        <pt x="109" y="227" on="1"/>
        <pt x="109" y="287" on="0"/>
        <pt x="131" y="397" on="1"/>
        <pt x="281" y="1087" on="1"/>
      </contour>
    </TTGlyph>
    <TTGlyph name="afii61248" xMin="250" yMin="0" xMax="1452" yMax="1466">
      <contour>
        <pt x="1452" y="1462" on="1"/>
        <pt x="356" y="0" on="1"/>
        <pt x="250" y="0" on="1"/>
        <pt x="1346" y="1462" on="1"/>
      </contour>
      <contour>
        <pt x="573" y="811" on="1"/>
        <pt x="460" y="811" on="0"/>
        <pt x="332" y="933" on="0"/>
        <pt x="332" y="1059" on="1"/>
        <pt x="332" y="1169" on="0"/>
        <pt x="421" y="1358" on="0"/>
        <pt x="577" y="1466" on="0"/>
        <pt x="670" y="1466" on="1"/>
        <pt x="752" y="1466" on="0"/>
        <pt x="831" y="1438" on="1"/>
        <pt x="805" y="1358" on="1"/>
        <pt x="733" y="1386" on="0"/>
        <pt x="666" y="1386" on="1"/>
        <pt x="563" y="1386" on="0"/>
        <pt x="424" y="1198" on="0"/>
        <pt x="424" y="1063" on="1"/>
        <pt x="424" y="891" on="0"/>
        <pt x="575" y="891" on="1"/>
        <pt x="656" y="891" on="0"/>
        <pt x="741" y="930" on="1"/>
        <pt x="741" y="848" on="1"/>
        <pt x="667" y="811" on="0"/>
      </contour>
      <contour>
        <pt x="1157" y="653" on="1"/>
        <pt x="1276" y="653" on="0"/>
        <pt x="1399" y="521" on="0"/>
        <pt x="1399" y="403" on="1"/>
        <pt x="1399" y="291" on="0"/>
        <pt x="1321" y="105" on="0"/>
        <pt x="1176" y="0" on="0"/>
        <pt x="1079" y="0" on="1"/>
        <pt x="962" y="0" on="0"/>
        <pt x="838" y="133" on="0"/>
        <pt x="838" y="252" on="1"/>
        <pt x="838" y="362" on="0"/>
        <pt x="920" y="549" on="0"/>
        <pt x="1065" y="653" on="0"/>
      </contour>
      <contour>
        <pt x="1307" y="410" on="1"/>
        <pt x="1307" y="491" on="0"/>
        <pt x="1228" y="575" on="0"/>
        <pt x="1157" y="575" on="1"/>
        <pt x="1087" y="575" on="0"/>
        <pt x="985" y="489" on="0"/>
        <pt x="930" y="338" on="0"/>
        <pt x="930" y="250" on="1"/>
        <pt x="930" y="76" on="0"/>
        <pt x="1085" y="76" on="1"/>
        <pt x="1186" y="76" on="0"/>
        <pt x="1307" y="260" on="0"/>
      </contour>
    </TTGlyph>
    <TTGlyph name="afii61289" xMin="115" yMin="-18" xMax="877" yMax="1483">
      <contour>
        <pt x="602" y="72" on="1"/>
        <pt x="773" y="72" on="0"/>
        <pt x="799" y="301" on="1"/>
        <pt x="877" y="301" on="1"/>
        <pt x="872" y="155" on="0"/>
        <pt x="717" y="-18" on="0"/>
        <pt x="590" y="-18" on="1"/>
        <pt x="447" y="-18" on="0"/>
        <pt x="313" y="147" on="0"/>
        <pt x="313" y="311" on="1"/>
        <pt x="313" y="596" on="1"/>
        <pt x="209" y="553" on="0"/>
        <pt x="115" y="532" on="1"/>
        <pt x="115" y="616" on="1"/>
        <pt x="221" y="644" on="0"/>
        <pt x="313" y="682" on="1"/>
        <pt x="313" y="1188" on="1"/>
        <pt x="313" y="1332" on="0"/>
        <pt x="438" y="1483" on="0"/>
        <pt x="553" y="1483" on="1"/>
        <pt x="669" y="1483" on="0"/>
        <pt x="799" y="1330" on="0"/>
        <pt x="799" y="1190" on="1"/>
        <pt x="799" y="1002" on="0"/>
        <pt x="601" y="717" on="0"/>
        <pt x="412" y="631" on="1"/>
        <pt x="412" y="330" on="1"/>
        <pt x="412" y="196" on="0"/>
        <pt x="500" y="72" on="0"/>
      </contour>
      <contour>
        <pt x="705" y="1188" on="1"/>
        <pt x="705" y="1293" on="0"/>
        <pt x="624" y="1399" on="0"/>
        <pt x="553" y="1399" on="1"/>
        <pt x="480" y="1399" on="0"/>
        <pt x="412" y="1303" on="0"/>
        <pt x="412" y="1188" on="1"/>
        <pt x="412" y="725" on="1"/>
        <pt x="564" y="802" on="0"/>
        <pt x="705" y="1028" on="0"/>
      </contour>
    </TTGlyph>
    <TTGlyph name="afii61352" xMin="78" yMin="0" xMax="1860" yMax="1462">
      <contour>
        <pt x="991" y="0" on="1"/>
        <pt x="889" y="0" on="1"/>
        <pt x="451" y="1343" on="1"/>
        <pt x="410" y="1122" on="1"/>
        <pt x="367" y="909" on="1"/>
        <pt x="174" y="0" on="1"/>
        <pt x="78" y="0" on="1"/>
        <pt x="387" y="1462" on="1"/>
        <pt x="510" y="1462" on="1"/>
        <pt x="934" y="166" on="1"/>
        <pt x="1208" y="1462" on="1"/>
        <pt x="1300" y="1462" on="1"/>
      </contour>
      <contour>
        <pt x="1235" y="0" on="1"/>
        <pt x="1253" y="86" on="1"/>
        <pt x="1659" y="86" on="1"/>
        <pt x="1642" y="0" on="1"/>
      </contour>
      <contour>
        <pt x="1602" y="950" on="1"/>
        <pt x="1724" y="950" on="0"/>
        <pt x="1860" y="804" on="0"/>
        <pt x="1860" y="678" on="1"/>
        <pt x="1860" y="564" on="0"/>
        <pt x="1770" y="371" on="0"/>
        <pt x="1618" y="274" on="0"/>
        <pt x="1520" y="274" on="1"/>
        <pt x="1402" y="274" on="0"/>
        <pt x="1268" y="419" on="0"/>
        <pt x="1268" y="549" on="1"/>
        <pt x="1268" y="723" on="0"/>
        <pt x="1454" y="950" on="0"/>
      </contour>
      <contour>
        <pt x="1761" y="676" on="1"/>
        <pt x="1761" y="765" on="0"/>
        <pt x="1676" y="868" on="0"/>
        <pt x="1602" y="868" on="1"/>
        <pt x="1494" y="868" on="0"/>
        <pt x="1364" y="696" on="0"/>
        <pt x="1364" y="555" on="1"/>
        <pt x="1364" y="455" on="0"/>
        <pt x="1454" y="356" on="0"/>
        <pt x="1526" y="356" on="1"/>
        <pt x="1634" y="356" on="0"/>
        <pt x="1761" y="533" on="0"/>
      </contour>
    </TTGlyph>
    <TTGlyph name="agrave" xMin="102" yMin="-20" xMax="1079" yMax="1569">
      <component glyphName="a" x="0" y="0" flags="0x204"/>
      <component glyphName="grave" x="43" y="0" flags="0x4"/>
    </TTGlyph>
    <TTGlyph name="alpha" xMin="102" yMin="-20" xMax="1133" yMax="1104">
      <contour>
        <pt x="655" y="1104" on="1"/>
        <pt x="768" y="1104" on="0"/>
        <pt x="913" y="990" on="0"/>
        <pt x="940" y="874" on="1"/>
        <pt x="946" y="874" on="1"/>
        <pt x="998" y="1017" on="0"/>
        <pt x="1051" y="1087" on="1"/>
        <pt x="1133" y="1087" on="1"/>
        <pt x="1097" y="1026" on="0"/>
        <pt x="1015" y="781" on="0"/>
        <pt x="981" y="625" on="1"/>
        <pt x="908" y="281" on="0"/>
        <pt x="895" y="188" on="0"/>
        <pt x="895" y="164" on="1"/>
        <pt x="895" y="66" on="0"/>
        <pt x="971" y="66" on="1"/>
        <pt x="1010" y="66" on="0"/>
        <pt x="1065" y="88" on="1"/>
        <pt x="1065" y="10" on="1"/>
        <pt x="1005" y="-20" on="0"/>
        <pt x="942" y="-20" on="1"/>
        <pt x="865" y="-20" on="0"/>
        <pt x="795" y="69" on="0"/>
        <pt x="795" y="141" on="1"/>
        <pt x="795" y="196" on="0"/>
        <pt x="807" y="274" on="1"/>
        <pt x="801" y="274" on="1"/>
        <pt x="637" y="-20" on="0"/>
        <pt x="383" y="-20" on="1"/>
        <pt x="102" y="-20" on="0"/>
        <pt x="102" y="354" on="1"/>
        <pt x="102" y="551" on="0"/>
        <pt x="252" y="909" on="0"/>
        <pt x="503" y="1104" on="0"/>
      </contour>
      <contour>
        <pt x="406" y="70" on="1"/>
        <pt x="498" y="70" on="0"/>
        <pt x="677" y="193" on="0"/>
        <pt x="814" y="401" on="0"/>
        <pt x="887" y="647" on="0"/>
        <pt x="887" y="741" on="1"/>
        <pt x="887" y="820" on="0"/>
        <pt x="835" y="945" on="0"/>
        <pt x="733" y="1018" on="0"/>
        <pt x="657" y="1018" on="1"/>
        <pt x="533" y="1018" on="0"/>
        <pt x="333" y="854" on="0"/>
        <pt x="205" y="527" on="0"/>
        <pt x="205" y="365" on="1"/>
        <pt x="205" y="213" on="0"/>
        <pt x="305" y="70" on="0"/>
      </contour>
    </TTGlyph>
    <TTGlyph name="alphatonos" xMin="102" yMin="-20" xMax="1133" yMax="1663">
      <component glyphName="alpha" x="0" y="0" flags="0x204"/>
      <component glyphName="tonos" x="-17" y="0" flags="0x4"/>
    </TTGlyph>
    <TTGlyph name="amacron" xMin="102" yMin="-20" xMax="1079" yMax="1333">
      <component glyphName="a" x="0" y="0" flags="0x204"/>
      <component glyphName="macron" x="35" y="0" flags="0x4"/>
    </TTGlyph>
    <TTGlyph name="ampersand" xMin="78" yMin="-20" xMax="1307" yMax="1485">
      <contour>
        <pt x="748" y="1395" on="1"/>
        <pt x="623" y="1395" on="0"/>
        <pt x="485" y="1259" on="0"/>
        <pt x="485" y="1135" on="1"/>
        <pt x="485" y="1003" on="0"/>
        <pt x="594" y="854" on="1"/>
        <pt x="797" y="943" on="0"/>
        <pt x="950" y="1092" on="0"/>
        <pt x="950" y="1200" on="1"/>
        <pt x="950" y="1291" on="0"/>
        <pt x="837" y="1395" on="0"/>
      </contour>
      <contour>
        <pt x="465" y="63" on="1"/>
        <pt x="573" y="63" on="0"/>
        <pt x="780" y="148" on="0"/>
        <pt x="899" y="252" on="1"/>
        <pt x="547" y="745" on="1"/>
        <pt x="383" y="666" on="0"/>
        <pt x="247" y="555" on="0"/>
        <pt x="176" y="418" on="0"/>
        <pt x="176" y="328" on="1"/>
        <pt x="176" y="209" on="0"/>
        <pt x="332" y="63" on="0"/>
      </contour>
      <contour>
        <pt x="78" y="324" on="1"/>
        <pt x="78" y="486" on="0"/>
        <pt x="276" y="717" on="0"/>
        <pt x="502" y="817" on="1"/>
        <pt x="461" y="884" on="1"/>
        <pt x="383" y="1012" on="0"/>
        <pt x="383" y="1135" on="1"/>
        <pt x="383" y="1292" on="0"/>
        <pt x="585" y="1485" on="0"/>
        <pt x="748" y="1485" on="1"/>
        <pt x="893" y="1485" on="0"/>
        <pt x="1057" y="1332" on="0"/>
        <pt x="1057" y="1202" on="1"/>
        <pt x="1057" y="1117" on="0"/>
        <pt x="975" y="979" on="0"/>
        <pt x="815" y="861" on="0"/>
        <pt x="639" y="782" on="1"/>
        <pt x="969" y="319" on="1"/>
        <pt x="1042" y="394" on="0"/>
        <pt x="1167" y="597" on="0"/>
        <pt x="1196" y="682" on="1"/>
        <pt x="1307" y="682" on="1"/>
        <pt x="1205" y="435" on="0"/>
        <pt x="1022" y="246" on="1"/>
        <pt x="1206" y="0" on="1"/>
        <pt x="1083" y="0" on="1"/>
        <pt x="952" y="184" on="1"/>
        <pt x="831" y="76" on="0"/>
        <pt x="589" y="-20" on="0"/>
        <pt x="444" y="-20" on="1"/>
        <pt x="277" y="-20" on="0"/>
        <pt x="78" y="168" on="0"/>
      </contour>
    </TTGlyph>
    <TTGlyph name="anoteleia" xMin="207" yMin="625" xMax="367" yMax="819">
      <component glyphName="period" x="125" y="643" flags="0x4"/>
    </TTGlyph>
    <TTGlyph name="aogonek" xMin="102" yMin="-414" xMax="1079" yMax="1104">
      <component glyphName="a" x="0" y="0" flags="0x204"/>
      <component glyphName="ogonek" x="686" y="0" flags="0x4"/>
    </TTGlyph>
    <TTGlyph name="approxequal" xMin="127" yMin="414" xMax="1075" yMax="1038">
      <contour>
        <pt x="350" y="543" on="1"/>
        <pt x="300" y="543" on="0"/>
        <pt x="183" y="480" on="0"/>
        <pt x="127" y="422" on="1"/>
        <pt x="127" y="516" on="1"/>
        <pt x="234" y="627" on="0"/>
        <pt x="360" y="627" on="1"/>
        <pt x="427" y="627" on="0"/>
        <pt x="542" y="594" on="0"/>
        <pt x="631" y="555" on="1"/>
        <pt x="753" y="498" on="0"/>
        <pt x="850" y="498" on="1"/>
        <pt x="960" y="498" on="0"/>
        <pt x="1075" y="623" on="1"/>
        <pt x="1075" y="526" on="1"/>
        <pt x="965" y="414" on="0"/>
        <pt x="842" y="414" on="1"/>
        <pt x="723" y="414" on="0"/>
        <pt x="571" y="485" on="1"/>
        <pt x="512" y="512" on="0"/>
        <pt x="406" y="543" on="0"/>
      </contour>
      <contour>
        <pt x="350" y="954" on="1"/>
        <pt x="301" y="954" on="0"/>
        <pt x="183" y="893" on="0"/>
        <pt x="127" y="834" on="1"/>
        <pt x="127" y="928" on="1"/>
        <pt x="235" y="1038" on="0"/>
        <pt x="360" y="1038" on="1"/>
        <pt x="421" y="1038" on="0"/>
        <pt x="529" y="1011" on="0"/>
        <pt x="631" y="967" on="1"/>
        <pt x="757" y="909" on="0"/>
        <pt x="850" y="909" on="1"/>
        <pt x="904" y="909" on="0"/>
        <pt x="1011" y="967" on="0"/>
        <pt x="1075" y="1034" on="1"/>
        <pt x="1075" y="938" on="1"/>
        <pt x="967" y="825" on="0"/>
        <pt x="842" y="825" on="1"/>
        <pt x="725" y="825" on="0"/>
        <pt x="571" y="897" on="1"/>
        <pt x="509" y="926" on="0"/>
        <pt x="408" y="954" on="0"/>
      </contour>
    </TTGlyph>
    <TTGlyph name="aring" xMin="102" yMin="-20" xMax="1079" yMax="1640">
      <component glyphName="a" x="0" y="0" flags="0x204"/>
      <component glyphName="ring" x="-40" y="0" flags="0x4"/>
    </TTGlyph>
    <TTGlyph name="aringacute" xMin="102" yMin="-20" xMax="1079" yMax="1991">
      <component glyphName="a" x="0" y="0" flags="0x204"/>
      <component glyphName="ring" x="-36" y="-50" flags="0x4"/>
      <component glyphName="acute" x="76" y="422" flags="0x4"/>
    </TTGlyph>
    <TTGlyph name="asciicircum" xMin="70" yMin="569" xMax="1008" yMax="1475">
      <contour>
        <pt x="70" y="569" on="1"/>
        <pt x="657" y="1475" on="1"/>
        <pt x="748" y="1475" on="1"/>
        <pt x="1008" y="569" on="1"/>
        <pt x="903" y="569" on="1"/>
        <pt x="686" y="1378" on="1"/>
        <pt x="186" y="569" on="1"/>
      </contour>
    </TTGlyph>
    <TTGlyph name="asciitilde" xMin="127" yMin="616" xMax="1075" yMax="829">
      <contour>
        <pt x="350" y="745" on="1"/>
        <pt x="301" y="745" on="0"/>
        <pt x="183" y="684" on="0"/>
        <pt x="127" y="625" on="1"/>
        <pt x="127" y="719" on="1"/>
        <pt x="235" y="829" on="0"/>
        <pt x="360" y="829" on="1"/>
        <pt x="421" y="829" on="0"/>
        <pt x="529" y="802" on="0"/>
        <pt x="631" y="758" on="1"/>
        <pt x="757" y="700" on="0"/>
        <pt x="850" y="700" on="1"/>
        <pt x="904" y="700" on="0"/>
        <pt x="1011" y="758" on="0"/>
        <pt x="1075" y="825" on="1"/>
        <pt x="1075" y="729" on="1"/>
        <pt x="964" y="616" on="0"/>
        <pt x="842" y="616" on="1"/>
        <pt x="725" y="616" on="0"/>
        <pt x="571" y="688" on="1"/>
        <pt x="509" y="717" on="0"/>
        <pt x="408" y="745" on="0"/>
      </contour>
    </TTGlyph>
    <TTGlyph name="asterisk" xMin="233" yMin="627" xMax="1163" yMax="1559">
      <contour>
        <pt x="834" y="1540" on="1"/>
        <pt x="725" y="1135" on="1"/>
        <pt x="1163" y="1143" on="1"/>
        <pt x="1155" y="1036" on="1"/>
        <pt x="739" y="1065" on="1"/>
        <pt x="920" y="664" on="1"/>
        <pt x="805" y="627" on="1"/>
        <pt x="670" y="1044" on="1"/>
        <pt x="385" y="696" on="1"/>
        <pt x="307" y="774" on="1"/>
        <pt x="625" y="1092" on="1"/>
        <pt x="233" y="1217" on="1"/>
        <pt x="272" y="1319" on="1"/>
        <pt x="666" y="1151" on="1"/>
        <pt x="713" y="1559" on="1"/>
      </contour>
    </TTGlyph>
    <TTGlyph name="at" xMin="125" yMin="-184" xMax="1688" yMax="1458">
      <contour>
        <pt x="1688" y="858" on="1"/>
        <pt x="1688" y="679" on="0"/>
        <pt x="1576" y="390" on="0"/>
        <pt x="1379" y="225" on="0"/>
        <pt x="1266" y="225" on="1"/>
        <pt x="1168" y="225" on="0"/>
        <pt x="1055" y="335" on="0"/>
        <pt x="1055" y="424" on="1"/>
        <pt x="1051" y="424" on="1"/>
        <pt x="997" y="327" on="0"/>
        <pt x="840" y="225" on="0"/>
        <pt x="750" y="225" on="1"/>
        <pt x="638" y="225" on="0"/>
        <pt x="506" y="371" on="0"/>
        <pt x="506" y="500" on="1"/>
        <pt x="506" y="656" on="0"/>
        <pt x="632" y="910" on="0"/>
        <pt x="862" y="1053" on="0"/>
        <pt x="1008" y="1053" on="1"/>
        <pt x="1130" y="1053" on="0"/>
        <pt x="1260" y="1001" on="1"/>
        <pt x="1176" y="686" on="1"/>
        <pt x="1137" y="546" on="0"/>
        <pt x="1137" y="465" on="1"/>
        <pt x="1137" y="394" on="0"/>
        <pt x="1206" y="313" on="0"/>
        <pt x="1272" y="313" on="1"/>
        <pt x="1358" y="313" on="0"/>
        <pt x="1506" y="460" on="0"/>
        <pt x="1593" y="709" on="0"/>
        <pt x="1593" y="836" on="1"/>
        <pt x="1593" y="992" on="0"/>
        <pt x="1463" y="1234" on="0"/>
        <pt x="1219" y="1368" on="0"/>
        <pt x="1049" y="1368" on="1"/>
        <pt x="814" y="1368" on="0"/>
        <pt x="435" y="1151" on="0"/>
        <pt x="223" y="760" on="0"/>
        <pt x="223" y="516" on="1"/>
        <pt x="223" y="228" on="0"/>
        <pt x="533" y="-94" on="0"/>
        <pt x="813" y="-94" on="1"/>
        <pt x="1020" y="-94" on="0"/>
        <pt x="1233" y="-12" on="1"/>
        <pt x="1233" y="-102" on="1"/>
        <pt x="1023" y="-184" on="0"/>
        <pt x="805" y="-184" on="1"/>
        <pt x="602" y="-184" on="0"/>
        <pt x="293" y="-19" on="0"/>
        <pt x="125" y="294" on="0"/>
        <pt x="125" y="508" on="1"/>
        <pt x="125" y="784" on="0"/>
        <pt x="368" y="1219" on="0"/>
        <pt x="799" y="1458" on="0"/>
        <pt x="1057" y="1458" on="1"/>
        <pt x="1246" y="1458" on="0"/>
        <pt x="1529" y="1313" on="0"/>
        <pt x="1688" y="1032" on="0"/>
      </contour>
      <contour>
        <pt x="1008" y="969" on="1"/>
        <pt x="895" y="969" on="0"/>
        <pt x="712" y="851" on="0"/>
        <pt x="610" y="638" on="0"/>
        <pt x="610" y="506" on="1"/>
        <pt x="610" y="414" on="0"/>
        <pt x="691" y="313" on="0"/>
        <pt x="764" y="313" on="1"/>
        <pt x="865" y="313" on="0"/>
        <pt x="1024" y="491" on="0"/>
        <pt x="1069" y="657" on="1"/>
        <pt x="1147" y="946" on="1"/>
        <pt x="1081" y="969" on="0"/>
      </contour>
    </TTGlyph>
    <TTGlyph name="atilde" xMin="102" yMin="-20" xMax="1079" yMax="1477">
      <component glyphName="a" x="0" y="0" flags="0x204"/>
      <component glyphName="tilde" x="27" y="0" flags="0x4"/>
    </TTGlyph>
    <TTGlyph name="b" xMin="76" yMin="-16" xMax="1053" yMax="1556">
      <contour>
        <pt x="500" y="-16" on="1"/>
        <pt x="387" y="-16" on="0"/>
        <pt x="241" y="102" on="0"/>
        <pt x="217" y="209" on="1"/>
        <pt x="211" y="209" on="1"/>
        <pt x="156" y="0" on="1"/>
        <pt x="76" y="0" on="1"/>
        <pt x="403" y="1556" on="1"/>
        <pt x="498" y="1556" on="1"/>
        <pt x="367" y="928" on="0"/>
        <pt x="336" y="805" on="1"/>
        <pt x="342" y="805" on="1"/>
        <pt x="435" y="961" on="0"/>
        <pt x="647" y="1108" on="0"/>
        <pt x="772" y="1108" on="1"/>
        <pt x="1053" y="1108" on="0"/>
        <pt x="1053" y="733" on="1"/>
        <pt x="1053" y="530" on="0"/>
        <pt x="901" y="176" on="0"/>
        <pt x="651" y="-16" on="0"/>
      </contour>
      <contour>
        <pt x="750" y="1018" on="1"/>
        <pt x="659" y="1018" on="0"/>
        <pt x="481" y="895" on="0"/>
        <pt x="338" y="679" on="0"/>
        <pt x="268" y="425" on="0"/>
        <pt x="268" y="346" on="1"/>
        <pt x="268" y="217" on="0"/>
        <pt x="396" y="70" on="0"/>
        <pt x="498" y="70" on="1"/>
        <pt x="622" y="70" on="0"/>
        <pt x="822" y="236" on="0"/>
        <pt x="950" y="560" on="0"/>
        <pt x="950" y="723" on="1"/>
        <pt x="950" y="875" on="0"/>
        <pt x="852" y="1018" on="0"/>
      </contour>
    </TTGlyph>
    <TTGlyph name="backslash" xMin="209" yMin="0" xMax="537" yMax="1462">
      <contour>
        <pt x="295" y="1462" on="1"/>
        <pt x="537" y="0" on="1"/>
        <pt x="455" y="0" on="1"/>
        <pt x="209" y="1462" on="1"/>
      </contour>
    </TTGlyph>
    <TTGlyph name="bar" xMin="584" yMin="-510" xMax="684" yMax="1561">
      <contour>
        <pt x="584" y="1561" on="1"/>
        <pt x="684" y="1561" on="1"/>
        <pt x="684" y="-510" on="1"/>
        <pt x="584" y="-510" on="1"/>
      </contour>
    </TTGlyph>
    <TTGlyph name="beta" xMin="-31" yMin="-492" xMax="1110" yMax="1567">
      <contour>
        <pt x="770" y="1567" on="1"/>
        <pt x="925" y="1567" on="0"/>
        <pt x="1110" y="1391" on="0"/>
        <pt x="1110" y="1239" on="1"/>
        <pt x="1110" y="1124" on="0"/>
        <pt x="1020" y="944" on="0"/>
        <pt x="861" y="832" on="0"/>
        <pt x="756" y="815" on="1"/>
        <pt x="881" y="784" on="0"/>
        <pt x="1018" y="591" on="0"/>
        <pt x="1018" y="449" on="1"/>
        <pt x="1018" y="313" on="0"/>
        <pt x="903" y="99" on="0"/>
        <pt x="690" y="-20" on="0"/>
        <pt x="547" y="-20" on="1"/>
        <pt x="478" y="-20" on="0"/>
        <pt x="360" y="8" on="0"/>
        <pt x="262" y="53" on="0"/>
        <pt x="193" y="104" on="1"/>
        <pt x="128" y="-192" on="1"/>
        <pt x="63" y="-492" on="1"/>
        <pt x="-31" y="-492" on="1"/>
        <pt x="317" y="1126" on="1"/>
        <pt x="367" y="1359" on="0"/>
        <pt x="589" y="1567" on="0"/>
      </contour>
      <contour>
        <pt x="756" y="1481" on="1"/>
        <pt x="660" y="1481" on="0"/>
        <pt x="524" y="1400" on="0"/>
        <pt x="437" y="1247" on="0"/>
        <pt x="408" y="1108" on="1"/>
        <pt x="211" y="188" on="1"/>
        <pt x="281" y="132" on="0"/>
        <pt x="457" y="66" on="0"/>
        <pt x="543" y="66" on="1"/>
        <pt x="713" y="66" on="0"/>
        <pt x="915" y="269" on="0"/>
        <pt x="915" y="442" on="1"/>
        <pt x="915" y="776" on="0"/>
        <pt x="553" y="776" on="1"/>
        <pt x="500" y="776" on="1"/>
        <pt x="516" y="858" on="1"/>
        <pt x="575" y="858" on="1"/>
        <pt x="786" y="858" on="0"/>
        <pt x="1008" y="1049" on="0"/>
        <pt x="1008" y="1233" on="1"/>
        <pt x="1008" y="1351" on="0"/>
        <pt x="875" y="1481" on="0"/>
      </contour>
    </TTGlyph>
    <TTGlyph name="braceleft" xMin="59" yMin="-324" xMax="799" yMax="1462">
      <contour>
        <pt x="424" y="-324" on="1"/>
        <pt x="168" y="-324" on="0"/>
        <pt x="168" y="-125" on="1"/>
        <pt x="168" y="-80" on="0"/>
        <pt x="184" y="-10" on="1"/>
        <pt x="240" y="242" on="1"/>
        <pt x="258" y="332" on="0"/>
        <pt x="258" y="369" on="1"/>
        <pt x="258" y="528" on="0"/>
        <pt x="59" y="528" on="1"/>
        <pt x="80" y="606" on="1"/>
        <pt x="206" y="606" on="0"/>
        <pt x="336" y="704" on="0"/>
        <pt x="360" y="813" on="1"/>
        <pt x="449" y="1206" on="1"/>
        <pt x="479" y="1341" on="0"/>
        <pt x="631" y="1462" on="0"/>
        <pt x="770" y="1462" on="1"/>
        <pt x="799" y="1462" on="1"/>
        <pt x="782" y="1376" on="1"/>
        <pt x="696" y="1374" on="0"/>
        <pt x="610" y="1337" on="0"/>
        <pt x="557" y="1251" on="0"/>
        <pt x="539" y="1174" on="1"/>
        <pt x="465" y="836" on="1"/>
        <pt x="435" y="702" on="0"/>
        <pt x="312" y="581" on="0"/>
        <pt x="209" y="563" on="1"/>
        <pt x="209" y="559" on="1"/>
        <pt x="277" y="541" on="0"/>
        <pt x="352" y="440" on="0"/>
        <pt x="352" y="369" on="1"/>
        <pt x="352" y="317" on="0"/>
        <pt x="328" y="205" on="1"/>
        <pt x="281" y="-20" on="1"/>
        <pt x="268" y="-78" on="0"/>
        <pt x="268" y="-121" on="1"/>
        <pt x="268" y="-182" on="0"/>
        <pt x="343" y="-238" on="0"/>
        <pt x="444" y="-238" on="1"/>
        <pt x="444" y="-324" on="1"/>
      </contour>
    </TTGlyph>
    <TTGlyph name="braceright" xMin="-41" yMin="-324" xMax="688" yMax="1462">
      <contour>
        <pt x="332" y="1462" on="1"/>
        <pt x="463" y="1462" on="0"/>
        <pt x="580" y="1360" on="0"/>
        <pt x="580" y="1264" on="1"/>
        <pt x="580" y="1223" on="0"/>
        <pt x="563" y="1149" on="1"/>
        <pt x="508" y="897" on="1"/>
        <pt x="489" y="802" on="0"/>
        <pt x="489" y="770" on="1"/>
        <pt x="489" y="693" on="0"/>
        <pt x="588" y="610" on="0"/>
        <pt x="688" y="610" on="1"/>
        <pt x="668" y="532" on="1"/>
        <pt x="543" y="532" on="0"/>
        <pt x="411" y="435" on="0"/>
        <pt x="387" y="326" on="1"/>
        <pt x="299" y="-68" on="1"/>
        <pt x="267" y="-207" on="0"/>
        <pt x="114" y="-324" on="0"/>
        <pt x="-23" y="-324" on="1"/>
        <pt x="-41" y="-324" on="1"/>
        <pt x="-41" y="-238" on="1"/>
        <pt x="55" y="-236" on="0"/>
        <pt x="139" y="-198" on="0"/>
        <pt x="192" y="-114" on="0"/>
        <pt x="209" y="-35" on="1"/>
        <pt x="283" y="303" on="1"/>
        <pt x="310" y="429" on="0"/>
        <pt x="431" y="556" on="0"/>
        <pt x="539" y="575" on="1"/>
        <pt x="539" y="580" on="1"/>
        <pt x="464" y="600" on="0"/>
        <pt x="395" y="705" on="0"/>
        <pt x="395" y="770" on="1"/>
        <pt x="395" y="825" on="0"/>
        <pt x="413" y="901" on="1"/>
        <pt x="467" y="1159" on="1"/>
        <pt x="479" y="1220" on="0"/>
        <pt x="479" y="1260" on="1"/>
        <pt x="479" y="1304" on="0"/>
        <pt x="443" y="1354" on="0"/>
        <pt x="371" y="1376" on="0"/>
        <pt x="291" y="1376" on="1"/>
        <pt x="311" y="1462" on="1"/>
      </contour>
    </TTGlyph>
    <TTGlyph name="bracketleft" xMin="-57" yMin="-324" xMax="748" yMax="1462">
      <contour>
        <pt x="369" y="-324" on="1"/>
        <pt x="-57" y="-324" on="1"/>
        <pt x="319" y="1462" on="1"/>
        <pt x="748" y="1462" on="1"/>
        <pt x="729" y="1372" on="1"/>
        <pt x="399" y="1372" on="1"/>
        <pt x="59" y="-233" on="1"/>
        <pt x="389" y="-233" on="1"/>
      </contour>
    </TTGlyph>
    <TTGlyph name="bracketright" xMin="-176" yMin="-324" xMax="629" yMax="1462">
      <contour>
        <pt x="203" y="1462" on="1"/>
        <pt x="629" y="1462" on="1"/>
        <pt x="252" y="-324" on="1"/>
        <pt x="-176" y="-324" on="1"/>
        <pt x="-158" y="-233" on="1"/>
        <pt x="172" y="-233" on="1"/>
        <pt x="512" y="1372" on="1"/>
        <pt x="182" y="1372" on="1"/>
      </contour>
    </TTGlyph>
    <TTGlyph name="breve" xMin="494" yMin="1247" xMax="1008" yMax="1481">
      <contour>
        <pt x="1008" y="1481" on="1"/>
        <pt x="979" y="1361" on="0"/>
        <pt x="835" y="1247" on="0"/>
        <pt x="715" y="1247" on="1"/>
        <pt x="610" y="1247" on="0"/>
        <pt x="494" y="1348" on="0"/>
        <pt x="494" y="1440" on="1"/>
        <pt x="494" y="1461" on="1"/>
        <pt x="496" y="1481" on="1"/>
        <pt x="565" y="1481" on="1"/>
        <pt x="565" y="1413" on="0"/>
        <pt x="637" y="1343" on="0"/>
        <pt x="723" y="1343" on="1"/>
        <pt x="808" y="1343" on="0"/>
        <pt x="911" y="1404" on="0"/>
        <pt x="936" y="1481" on="1"/>
      </contour>
    </TTGlyph>
    <TTGlyph name="breveacutecomb" xMin="-735" yMin="1247" xMax="-201" yMax="1729">
      <contour>
        <pt x="-221" y="1481" on="1"/>
        <pt x="-250" y="1362" on="0"/>
        <pt x="-392" y="1247" on="0"/>
        <pt x="-514" y="1247" on="1"/>
        <pt x="-619" y="1247" on="0"/>
        <pt x="-735" y="1348" on="0"/>
        <pt x="-735" y="1440" on="1"/>
        <pt x="-735" y="1461" on="1"/>
        <pt x="-733" y="1481" on="1"/>
        <pt x="-664" y="1481" on="1"/>
        <pt x="-664" y="1413" on="0"/>
        <pt x="-592" y="1343" on="0"/>
        <pt x="-506" y="1343" on="1"/>
        <pt x="-421" y="1343" on="0"/>
        <pt x="-318" y="1404" on="0"/>
        <pt x="-293" y="1481" on="1"/>
      </contour>
      <contour>
        <pt x="-518" y="1530" on="1"/>
        <pt x="-476" y="1562" on="0"/>
        <pt x="-365" y="1678" on="0"/>
        <pt x="-330" y="1729" on="1"/>
        <pt x="-201" y="1729" on="1"/>
        <pt x="-201" y="1698" on="1"/>
        <pt x="-247" y="1648" on="0"/>
        <pt x="-391" y="1535" on="0"/>
        <pt x="-453" y="1501" on="1"/>
        <pt x="-518" y="1501" on="1"/>
      </contour>
    </TTGlyph>
    <TTGlyph name="brevegravecomb" xMin="-735" yMin="1247" xMax="-221" yMax="1729">
      <contour>
        <pt x="-221" y="1481" on="1"/>
        <pt x="-250" y="1362" on="0"/>
        <pt x="-392" y="1247" on="0"/>
        <pt x="-514" y="1247" on="1"/>
        <pt x="-619" y="1247" on="0"/>
        <pt x="-735" y="1348" on="0"/>
        <pt x="-735" y="1440" on="1"/>
        <pt x="-735" y="1461" on="1"/>
        <pt x="-733" y="1481" on="1"/>
        <pt x="-664" y="1481" on="1"/>
        <pt x="-664" y="1413" on="0"/>
        <pt x="-592" y="1343" on="0"/>
        <pt x="-506" y="1343" on="1"/>
        <pt x="-421" y="1343" on="0"/>
        <pt x="-318" y="1404" on="0"/>
        <pt x="-293" y="1481" on="1"/>
      </contour>
      <contour>
        <pt x="-479" y="1501" on="1"/>
        <pt x="-541" y="1539" on="0"/>
        <pt x="-660" y="1655" on="0"/>
        <pt x="-684" y="1698" on="1"/>
        <pt x="-684" y="1729" on="1"/>
        <pt x="-569" y="1729" on="1"/>
        <pt x="-549" y="1686" on="0"/>
        <pt x="-459" y="1563" on="0"/>
        <pt x="-418" y="1528" on="1"/>
        <pt x="-418" y="1501" on="1"/>
      </contour>
    </TTGlyph>
    <TTGlyph name="brevehookcomb" xMin="-735" yMin="1247" xMax="-221" yMax="1796">
      <contour>
        <pt x="-221" y="1481" on="1"/>
        <pt x="-250" y="1362" on="0"/>
        <pt x="-392" y="1247" on="0"/>
        <pt x="-514" y="1247" on="1"/>
        <pt x="-619" y="1247" on="0"/>
        <pt x="-735" y="1348" on="0"/>
        <pt x="-735" y="1440" on="1"/>
        <pt x="-735" y="1461" on="1"/>
        <pt x="-733" y="1481" on="1"/>
        <pt x="-664" y="1481" on="1"/>
        <pt x="-664" y="1413" on="0"/>
        <pt x="-592" y="1343" on="0"/>
        <pt x="-506" y="1343" on="1"/>
        <pt x="-421" y="1343" on="0"/>
        <pt x="-318" y="1404" on="0"/>
        <pt x="-293" y="1481" on="1"/>
      </contour>
      <contour>
        <pt x="-276" y="1683" on="1"/>
        <pt x="-276" y="1627" on="0"/>
        <pt x="-372" y="1549" on="0"/>
        <pt x="-457" y="1534" on="1"/>
        <pt x="-463" y="1491" on="1"/>
        <pt x="-530" y="1491" on="1"/>
        <pt x="-524" y="1585" on="1"/>
        <pt x="-360" y="1596" on="0"/>
        <pt x="-360" y="1677" on="1"/>
        <pt x="-360" y="1735" on="0"/>
        <pt x="-451" y="1735" on="1"/>
        <pt x="-485" y="1735" on="0"/>
        <pt x="-535" y="1726" on="1"/>
        <pt x="-535" y="1786" on="1"/>
        <pt x="-472" y="1796" on="0"/>
        <pt x="-440" y="1796" on="1"/>
        <pt x="-276" y="1796" on="0"/>
      </contour>
    </TTGlyph>
    <TTGlyph name="brevetildecomb" xMin="-803" yMin="1247" xMax="-98" yMax="1815">
      <contour>
        <pt x="-221" y="1481" on="1"/>
        <pt x="-250" y="1362" on="0"/>
        <pt x="-392" y="1247" on="0"/>
        <pt x="-514" y="1247" on="1"/>
        <pt x="-619" y="1247" on="0"/>
        <pt x="-735" y="1348" on="0"/>
        <pt x="-735" y="1440" on="1"/>
        <pt x="-735" y="1461" on="1"/>
        <pt x="-733" y="1481" on="1"/>
        <pt x="-664" y="1481" on="1"/>
        <pt x="-664" y="1413" on="0"/>
        <pt x="-592" y="1343" on="0"/>
        <pt x="-506" y="1343" on="1"/>
        <pt x="-421" y="1343" on="0"/>
        <pt x="-318" y="1404" on="0"/>
        <pt x="-293" y="1481" on="1"/>
      </contour>
      <contour>
        <pt x="-303" y="1604" on="1"/>
        <pt x="-345" y="1604" on="0"/>
        <pt x="-421" y="1638" on="0"/>
        <pt x="-461" y="1661" on="1"/>
        <pt x="-496" y="1683" on="0"/>
        <pt x="-558" y="1716" on="0"/>
        <pt x="-598" y="1716" on="1"/>
        <pt x="-644" y="1716" on="0"/>
        <pt x="-705" y="1664" on="0"/>
        <pt x="-727" y="1597" on="1"/>
        <pt x="-803" y="1597" on="1"/>
        <pt x="-784" y="1698" on="0"/>
        <pt x="-677" y="1806" on="0"/>
        <pt x="-592" y="1806" on="1"/>
        <pt x="-542" y="1806" on="0"/>
        <pt x="-465" y="1770" on="0"/>
        <pt x="-436" y="1751" on="1"/>
        <pt x="-377" y="1712" on="0"/>
        <pt x="-327" y="1692" on="0"/>
        <pt x="-299" y="1692" on="1"/>
        <pt x="-254" y="1692" on="0"/>
        <pt x="-195" y="1750" on="0"/>
        <pt x="-176" y="1815" on="1"/>
        <pt x="-98" y="1815" on="1"/>
        <pt x="-124" y="1705" on="0"/>
        <pt x="-225" y="1604" on="0"/>
      </contour>
    </TTGlyph>
    <TTGlyph name="brokenbar" xMin="578" yMin="-510" xMax="678" yMax="1561">
      <contour>
        <pt x="578" y="1561" on="1"/>
        <pt x="678" y="1561" on="1"/>
        <pt x="678" y="805" on="1"/>
        <pt x="578" y="805" on="1"/>
      </contour>
      <contour>
        <pt x="578" y="246" on="1"/>
        <pt x="678" y="246" on="1"/>
        <pt x="678" y="-510" on="1"/>
        <pt x="578" y="-510" on="1"/>
      </contour>
    </TTGlyph>
    <TTGlyph name="bullet" xMin="248" yMin="524" xMax="639" yMax="971">
      <contour>
        <pt x="248" y="682" on="1"/>
        <pt x="248" y="819" on="0"/>
        <pt x="374" y="971" on="0"/>
        <pt x="483" y="971" on="1"/>
        <pt x="559" y="971" on="0"/>
        <pt x="639" y="892" on="0"/>
        <pt x="639" y="813" on="1"/>
        <pt x="639" y="688" on="0"/>
        <pt x="507" y="524" on="0"/>
        <pt x="397" y="524" on="1"/>
        <pt x="248" y="524" on="0"/>
      </contour>
    </TTGlyph>
    <TTGlyph name="c" xMin="102" yMin="-20" xMax="905" yMax="1104">
      <contour>
        <pt x="477" y="-20" on="1"/>
        <pt x="303" y="-20" on="0"/>
        <pt x="102" y="201" on="0"/>
        <pt x="102" y="397" on="1"/>
        <pt x="102" y="590" on="0"/>
        <pt x="249" y="927" on="0"/>
        <pt x="499" y="1104" on="0"/>
        <pt x="664" y="1104" on="1"/>
        <pt x="798" y="1104" on="0"/>
        <pt x="905" y="1061" on="1"/>
        <pt x="877" y="971" on="1"/>
        <pt x="770" y="1018" on="0"/>
        <pt x="659" y="1018" on="1"/>
        <pt x="530" y="1018" on="0"/>
        <pt x="323" y="864" on="0"/>
        <pt x="205" y="574" on="0"/>
        <pt x="205" y="399" on="1"/>
        <pt x="205" y="241" on="0"/>
        <pt x="352" y="70" on="0"/>
        <pt x="487" y="70" on="1"/>
        <pt x="558" y="70" on="0"/>
        <pt x="679" y="96" on="0"/>
        <pt x="750" y="129" on="1"/>
        <pt x="750" y="37" on="1"/>
        <pt x="634" y="-20" on="0"/>
      </contour>
    </TTGlyph>
    <TTGlyph name="cacute" xMin="102" yMin="-20" xMax="994" yMax="1569">
      <component glyphName="c" x="0" y="0" flags="0x204"/>
      <component glyphName="acute" x="-3" y="0" flags="0x4"/>
    </TTGlyph>
    <TTGlyph name="caron" xMin="514" yMin="1241" xMax="1028" yMax="1569">
      <contour>
        <pt x="514" y="1569" on="1"/>
        <pt x="563" y="1569" on="1"/>
        <pt x="635" y="1508" on="0"/>
        <pt x="725" y="1362" on="1"/>
        <pt x="780" y="1419" on="0"/>
        <pt x="920" y="1534" on="0"/>
        <pt x="975" y="1569" on="1"/>
        <pt x="1028" y="1569" on="1"/>
        <pt x="1028" y="1540" on="1"/>
        <pt x="960" y="1485" on="0"/>
        <pt x="785" y="1303" on="0"/>
        <pt x="743" y="1241" on="1"/>
        <pt x="680" y="1241" on="1"/>
        <pt x="651" y="1315" on="0"/>
        <pt x="556" y="1483" on="0"/>
        <pt x="514" y="1540" on="1"/>
      </contour>
    </TTGlyph>
    <TTGlyph name="caroncommaaccent" xMin="532" yMin="1229" xMax="788" yMax="1556">
      <contour>
        <pt x="532" y="1255" on="1"/>
        <pt x="568" y="1301" on="0"/>
        <pt x="672" y="1502" on="0"/>
        <pt x="692" y="1556" on="1"/>
        <pt x="788" y="1556" on="1"/>
        <pt x="788" y="1536" on="1"/>
        <pt x="779" y="1497" on="0"/>
        <pt x="638" y="1283" on="0"/>
        <pt x="580" y="1229" on="1"/>
        <pt x="532" y="1229" on="1"/>
      </contour>
    </TTGlyph>
    <TTGlyph name="ccaron" xMin="102" yMin="-20" xMax="963" yMax="1569">
      <component glyphName="c" x="0" y="0" flags="0x204"/>
      <component glyphName="caron" x="-65" y="0" flags="0x4"/>
    </TTGlyph>
    <TTGlyph name="ccedilla" xMin="102" yMin="-492" xMax="905" yMax="1104">
      <component glyphName="c" x="0" y="0" flags="0x204"/>
      <component glyphName="cedilla" x="377" y="0" flags="0x4"/>
    </TTGlyph>
    <TTGlyph name="ccircumflex" xMin="102" yMin="-20" xMax="908" yMax="1569">
      <component glyphName="c" x="0" y="0" flags="0x204"/>
      <component glyphName="circumflex" x="-50" y="0" flags="0x4"/>
    </TTGlyph>
    <TTGlyph name="cdot" xMin="102" yMin="-20" xMax="905" yMax="1487">
      <component glyphName="c" x="0" y="0" flags="0x204"/>
      <component glyphName="dotaccent" x="317" y="0" flags="0x4"/>
    </TTGlyph>
    <TTGlyph name="cedilla" xMin="-174" yMin="-492" xMax="197" yMax="0">
      <contour>
        <pt x="197" y="-289" on="1"/>
        <pt x="197" y="-383" on="0"/>
        <pt x="46" y="-492" on="0"/>
        <pt x="-96" y="-492" on="1"/>
        <pt x="-142" y="-492" on="0"/>
        <pt x="-174" y="-485" on="1"/>
        <pt x="-174" y="-406" on="1"/>
        <pt x="-144" y="-412" on="0"/>
        <pt x="-102" y="-412" on="1"/>
        <pt x="96" y="-412" on="0"/>
        <pt x="96" y="-297" on="1"/>
        <pt x="96" y="-200" on="0"/>
        <pt x="-55" y="-190" on="1"/>
        <pt x="55" y="0" on="1"/>
        <pt x="135" y="0" on="1"/>
        <pt x="57" y="-137" on="1"/>
        <pt x="197" y="-167" on="0"/>
      </contour>
    </TTGlyph>
    <TTGlyph name="cent" xMin="250" yMin="-20" xMax="1053" yMax="1483">
      <contour>
        <pt x="578" y="-20" on="1"/>
        <pt x="485" y="-20" on="1"/>
        <pt x="530" y="195" on="1"/>
        <pt x="398" y="220" on="0"/>
        <pt x="250" y="435" on="0"/>
        <pt x="250" y="600" on="1"/>
        <pt x="250" y="784" on="0"/>
        <pt x="377" y="1098" on="0"/>
        <pt x="606" y="1290" on="0"/>
        <pt x="748" y="1305" on="1"/>
        <pt x="784" y="1483" on="1"/>
        <pt x="874" y="1483" on="1"/>
        <pt x="836" y="1307" on="1"/>
        <pt x="952" y="1303" on="0"/>
        <pt x="1053" y="1264" on="1"/>
        <pt x="1024" y="1174" on="1"/>
        <pt x="917" y="1221" on="0"/>
        <pt x="807" y="1221" on="1"/>
        <pt x="677" y="1221" on="0"/>
        <pt x="471" y="1069" on="0"/>
        <pt x="352" y="779" on="0"/>
        <pt x="352" y="602" on="1"/>
        <pt x="352" y="438" on="0"/>
        <pt x="501" y="272" on="0"/>
        <pt x="635" y="272" on="1"/>
        <pt x="762" y="272" on="0"/>
        <pt x="899" y="332" on="1"/>
        <pt x="899" y="240" on="1"/>
        <pt x="781" y="182" on="0"/>
        <pt x="618" y="182" on="1"/>
      </contour>
    </TTGlyph>
    <TTGlyph name="chi" xMin="-215" yMin="-492" xMax="1059" yMax="1098">
      <contour>
        <pt x="223" y="1098" on="1"/>
        <pt x="286" y="1098" on="0"/>
        <pt x="360" y="1055" on="0"/>
        <pt x="402" y="976" on="0"/>
        <pt x="416" y="870" on="1"/>
        <pt x="471" y="418" on="1"/>
        <pt x="952" y="1087" on="1"/>
        <pt x="1059" y="1087" on="1"/>
        <pt x="492" y="299" on="1"/>
        <pt x="561" y="-225" on="1"/>
        <pt x="573" y="-325" on="0"/>
        <pt x="637" y="-403" on="0"/>
        <pt x="696" y="-403" on="1"/>
        <pt x="743" y="-403" on="0"/>
        <pt x="782" y="-389" on="1"/>
        <pt x="782" y="-471" on="1"/>
        <pt x="729" y="-492" on="0"/>
        <pt x="670" y="-492" on="1"/>
        <pt x="493" y="-492" on="0"/>
        <pt x="467" y="-262" on="1"/>
        <pt x="410" y="209" on="1"/>
        <pt x="-96" y="-492" on="1"/>
        <pt x="-215" y="-492" on="1"/>
        <pt x="391" y="330" on="1"/>
        <pt x="326" y="842" on="1"/>
        <pt x="315" y="927" on="0"/>
        <pt x="290" y="982" on="0"/>
        <pt x="246" y="1010" on="0"/>
        <pt x="211" y="1010" on="1"/>
        <pt x="173" y="1010" on="0"/>
        <pt x="133" y="993" on="1"/>
        <pt x="115" y="1077" on="1"/>
        <pt x="135" y="1085" on="0"/>
        <pt x="202" y="1098" on="0"/>
      </contour>
    </TTGlyph>
    <TTGlyph name="circumflex" xMin="444" yMin="1241" xMax="958" yMax="1569">
      <contour>
        <pt x="958" y="1241" on="1"/>
        <pt x="909" y="1241" on="1"/>
        <pt x="839" y="1301" on="0"/>
        <pt x="748" y="1448" on="1"/>
        <pt x="693" y="1391" on="0"/>
        <pt x="553" y="1276" on="0"/>
        <pt x="498" y="1241" on="1"/>
        <pt x="444" y="1241" on="1"/>
        <pt x="444" y="1270" on="1"/>
        <pt x="512" y="1326" on="0"/>
        <pt x="691" y="1511" on="0"/>
        <pt x="729" y="1569" on="1"/>
        <pt x="793" y="1569" on="1"/>
        <pt x="816" y="1505" on="0"/>
        <pt x="915" y="1328" on="0"/>
        <pt x="958" y="1270" on="1"/>
      </contour>
    </TTGlyph>
    <TTGlyph name="circumflexacutecomb" xMin="-766" yMin="1241" xMax="27" yMax="1663">
      <contour>
        <pt x="-766" y="1266" on="1"/>
        <pt x="-703" y="1305" on="0"/>
        <pt x="-534" y="1456" on="0"/>
        <pt x="-485" y="1513" on="1"/>
        <pt x="-408" y="1513" on="1"/>
        <pt x="-392" y="1470" on="0"/>
        <pt x="-297" y="1326" on="0"/>
        <pt x="-240" y="1264" on="1"/>
        <pt x="-240" y="1241" on="1"/>
        <pt x="-276" y="1241" on="1"/>
        <pt x="-375" y="1296" on="0"/>
        <pt x="-465" y="1401" on="1"/>
        <pt x="-592" y="1297" on="0"/>
        <pt x="-729" y="1241" on="1"/>
        <pt x="-766" y="1241" on="1"/>
      </contour>
      <contour>
        <pt x="-291" y="1464" on="1"/>
        <pt x="-241" y="1501" on="0"/>
        <pt x="-132" y="1620" on="0"/>
        <pt x="-102" y="1663" on="1"/>
        <pt x="27" y="1663" on="1"/>
        <pt x="27" y="1632" on="1"/>
        <pt x="-28" y="1575" on="0"/>
        <pt x="-171" y="1466" on="0"/>
        <pt x="-225" y="1436" on="1"/>
        <pt x="-291" y="1436" on="1"/>
      </contour>
    </TTGlyph>
    <TTGlyph name="circumflexgravecomb" xMin="-915" yMin="1241" xMax="-240" yMax="1661">
      <contour>
        <pt x="-711" y="1434" on="1"/>
        <pt x="-766" y="1468" on="0"/>
        <pt x="-889" y="1584" on="0"/>
        <pt x="-915" y="1630" on="1"/>
        <pt x="-915" y="1661" on="1"/>
        <pt x="-801" y="1661" on="1"/>
        <pt x="-770" y="1602" on="0"/>
        <pt x="-685" y="1491" on="0"/>
        <pt x="-649" y="1460" on="1"/>
        <pt x="-649" y="1434" on="1"/>
      </contour>
      <contour>
        <pt x="-766" y="1266" on="1"/>
        <pt x="-703" y="1305" on="0"/>
        <pt x="-534" y="1456" on="0"/>
        <pt x="-485" y="1513" on="1"/>
        <pt x="-408" y="1513" on="1"/>
        <pt x="-392" y="1470" on="0"/>
        <pt x="-297" y="1326" on="0"/>
        <pt x="-240" y="1264" on="1"/>
        <pt x="-240" y="1241" on="1"/>
        <pt x="-276" y="1241" on="1"/>
        <pt x="-375" y="1296" on="0"/>
        <pt x="-465" y="1401" on="1"/>
        <pt x="-592" y="1297" on="0"/>
        <pt x="-729" y="1241" on="1"/>
        <pt x="-766" y="1241" on="1"/>
      </contour>
    </TTGlyph>
    <TTGlyph name="circumflexhookcomb" xMin="-766" yMin="1241" xMax="-27" yMax="1747">
      <contour>
        <pt x="-766" y="1266" on="1"/>
        <pt x="-703" y="1305" on="0"/>
        <pt x="-534" y="1456" on="0"/>
        <pt x="-485" y="1513" on="1"/>
        <pt x="-408" y="1513" on="1"/>
        <pt x="-392" y="1470" on="0"/>
        <pt x="-297" y="1326" on="0"/>
        <pt x="-240" y="1264" on="1"/>
        <pt x="-240" y="1241" on="1"/>
        <pt x="-276" y="1241" on="1"/>
        <pt x="-375" y="1296" on="0"/>
        <pt x="-465" y="1401" on="1"/>
        <pt x="-592" y="1297" on="0"/>
        <pt x="-729" y="1241" on="1"/>
        <pt x="-766" y="1241" on="1"/>
      </contour>
      <contour>
        <pt x="-27" y="1640" on="1"/>
        <pt x="-27" y="1532" on="0"/>
        <pt x="-199" y="1499" on="1"/>
        <pt x="-205" y="1458" on="1"/>
        <pt x="-268" y="1458" on="1"/>
        <pt x="-262" y="1546" on="1"/>
        <pt x="-106" y="1558" on="0"/>
        <pt x="-106" y="1634" on="1"/>
        <pt x="-106" y="1690" on="0"/>
        <pt x="-193" y="1690" on="1"/>
        <pt x="-223" y="1690" on="0"/>
        <pt x="-272" y="1681" on="1"/>
        <pt x="-272" y="1739" on="1"/>
        <pt x="-227" y="1747" on="0"/>
        <pt x="-182" y="1747" on="1"/>
        <pt x="-27" y="1747" on="0"/>
      </contour>
    </TTGlyph>
    <TTGlyph name="circumflextildecomb" xMin="-766" yMin="1241" xMax="-51" yMax="1815">
      <contour>
        <pt x="-766" y="1266" on="1"/>
        <pt x="-703" y="1305" on="0"/>
        <pt x="-534" y="1456" on="0"/>
        <pt x="-485" y="1513" on="1"/>
        <pt x="-408" y="1513" on="1"/>
        <pt x="-392" y="1470" on="0"/>
        <pt x="-297" y="1326" on="0"/>
        <pt x="-240" y="1264" on="1"/>
        <pt x="-240" y="1241" on="1"/>
        <pt x="-276" y="1241" on="1"/>
        <pt x="-375" y="1296" on="0"/>
        <pt x="-465" y="1401" on="1"/>
        <pt x="-592" y="1297" on="0"/>
        <pt x="-729" y="1241" on="1"/>
        <pt x="-766" y="1241" on="1"/>
      </contour>
      <contour>
        <pt x="-256" y="1604" on="1"/>
        <pt x="-298" y="1604" on="0"/>
        <pt x="-373" y="1638" on="0"/>
        <pt x="-414" y="1661" on="1"/>
        <pt x="-449" y="1683" on="0"/>
        <pt x="-511" y="1716" on="0"/>
        <pt x="-551" y="1716" on="1"/>
        <pt x="-597" y="1716" on="0"/>
        <pt x="-658" y="1664" on="0"/>
        <pt x="-680" y="1597" on="1"/>
        <pt x="-756" y="1597" on="1"/>
        <pt x="-737" y="1698" on="0"/>
        <pt x="-630" y="1806" on="0"/>
        <pt x="-545" y="1806" on="1"/>
        <pt x="-495" y="1806" on="0"/>
        <pt x="-418" y="1770" on="0"/>
        <pt x="-389" y="1751" on="1"/>
        <pt x="-330" y="1712" on="0"/>
        <pt x="-280" y="1692" on="0"/>
        <pt x="-252" y="1692" on="1"/>
        <pt x="-207" y="1692" on="0"/>
        <pt x="-148" y="1750" on="0"/>
        <pt x="-129" y="1815" on="1"/>
        <pt x="-51" y="1815" on="1"/>
        <pt x="-77" y="1705" on="0"/>
        <pt x="-178" y="1604" on="0"/>
      </contour>
    </TTGlyph>
    <TTGlyph name="colon" xMin="102" yMin="-18" xMax="420" yMax="1110">
      <contour>
        <pt x="260" y="989" on="1"/>
        <pt x="260" y="1046" on="0"/>
        <pt x="311" y="1110" on="0"/>
        <pt x="354" y="1110" on="1"/>
        <pt x="420" y="1110" on="0"/>
        <pt x="420" y="1038" on="1"/>
        <pt x="420" y="983" on="0"/>
        <pt x="370" y="915" on="0"/>
        <pt x="328" y="915" on="1"/>
        <pt x="260" y="915" on="0"/>
      </contour>
      <contour>
        <pt x="102" y="55" on="1"/>
        <pt x="102" y="111" on="0"/>
        <pt x="153" y="176" on="0"/>
        <pt x="197" y="176" on="1"/>
        <pt x="262" y="176" on="0"/>
        <pt x="262" y="104" on="1"/>
        <pt x="262" y="49" on="0"/>
        <pt x="211" y="-18" on="0"/>
        <pt x="170" y="-18" on="1"/>
        <pt x="102" y="-18" on="0"/>
      </contour>
    </TTGlyph>
    <TTGlyph name="comma" xMin="-90" yMin="-264" xMax="258" yMax="238">
      <contour>
        <pt x="250" y="238" on="1"/>
        <pt x="258" y="215" on="1"/>
        <pt x="224" y="123" on="0"/>
        <pt x="64" y="-160" on="0"/>
        <pt x="-16" y="-264" on="1"/>
        <pt x="-90" y="-264" on="1"/>
        <pt x="-11" y="-132" on="0"/>
        <pt x="113" y="146" on="0"/>
        <pt x="139" y="238" on="1"/>
      </contour>
    </TTGlyph>
    <TTGlyph name="commaaccent" xMin="172" yMin="-453" xMax="428" yMax="-125">
      <contour>
        <pt x="172" y="-426" on="1"/>
        <pt x="206" y="-382" on="0"/>
        <pt x="309" y="-186" on="0"/>
        <pt x="332" y="-125" on="1"/>
        <pt x="428" y="-125" on="1"/>
        <pt x="428" y="-145" on="1"/>
        <pt x="419" y="-185" on="0"/>
        <pt x="280" y="-396" on="0"/>
        <pt x="219" y="-453" on="1"/>
        <pt x="172" y="-453" on="1"/>
      </contour>
    </TTGlyph>
    <TTGlyph name="commaaccentrotate" xMin="522" yMin="1241" xMax="778" yMax="1569">
      <contour>
        <pt x="778" y="1542" on="1"/>
        <pt x="744" y="1498" on="0"/>
        <pt x="641" y="1302" on="0"/>
        <pt x="618" y="1241" on="1"/>
        <pt x="522" y="1241" on="1"/>
        <pt x="522" y="1262" on="1"/>
        <pt x="530" y="1300" on="0"/>
        <pt x="668" y="1510" on="0"/>
        <pt x="731" y="1569" on="1"/>
        <pt x="778" y="1569" on="1"/>
      </contour>
    </TTGlyph>
</ttFont>
